<?xml version="1.0" encoding="UTF-8"?><svg id="Layer_1" xmlns="http://www.w3.org/2000/svg" viewBox="0 0 702.52 282.96"><defs><style>.cls-1{fill:#513112;}</style></defs><path class="cls-1" d="m263.74,141.02c-1.17,0-1.17.87-1.75,2.04l-18.06,56.53c-1.17,3.5-4.08,4.37-7.58,4.37h-11.65V20.98c0-3.5.58-6.12,2.62-8.16l8.74-8.45c.58-.87,2.04-1.75,2.04-2.62s-.58-1.75-1.75-1.75h-45.74c-1.17,0-1.75.87-1.75,1.75s1.46,1.75,2.04,2.62l8.74,8.45c2.04,2.04,2.62,4.66,2.62,8.16v176.57c0,3.5-.58,6.12-2.62,8.16l-8.74,8.45c-.58,1.17-2.04,1.75-2.04,2.62s.58,1.75,1.75,1.75h71.39c2.33,0,3.21-1.46,3.21-4.08v-71.39c0-1.17-.58-2.04-1.46-2.04Z"/><path class="cls-1" d="m350.56,141.02c-1.17,0-1.17.87-1.75,2.04l-18.06,56.53c-1.17,3.5-4.08,4.37-7.58,4.37h-11.65V20.98c0-3.5.58-6.12,2.62-8.16l8.74-8.45c.58-.87,2.04-1.75,2.04-2.62s-.58-1.75-1.75-1.75h-45.74c-1.17,0-1.75.87-1.75,1.75s1.46,1.75,2.04,2.62l8.74,8.45c2.04,2.04,2.62,4.66,2.62,8.16v176.57c0,3.5-.58,6.12-2.62,8.16l-8.74,8.45c-.58,1.17-2.04,1.75-2.04,2.62s.58,1.75,1.75,1.75h71.39c2.33,0,3.21-1.46,3.21-4.08v-71.39c0-1.17-.58-2.04-1.46-2.04Z"/><path class="cls-1" d="m174.58,206.58c-2.04-1.75-2.91-4.95-3.2-7.87L143.7,3.21c-.29-1.75-1.17-3.21-2.62-3.21h-10.78c-1.46,0-2.04,1.17-2.33,2.62l-26.52,195.8c-.29,2.62-.58,5.54-2.33,7.29l-8.16,8.16c-.87.87-2.04,2.04-2.04,2.91s.58,1.75,1.75,1.75h33.51c1.46,0,2.04-.87,2.04-1.75s-1.75-2.04-2.91-3.5l-6.41-6.7c-1.16-1.46-1.74-3.21-1.45-5.25l4.37-32.05c.29-1.17.87-2.04,1.75-2.04h21.56c1.46,0,2.33,1.17,2.62,2.62l4.37,30.59c.29,2.62-.29,4.66-1.46,5.83l-7.87,7.86c-.87.87-2.04,1.75-2.04,2.62s.58,1.75,2.04,1.75h41.96c1.46,0,2.04-.87,2.04-1.75s-.87-1.75-1.75-2.62l-8.45-7.57Zm-32.92-54.78h-18.36c-.58,0-1.17-.58-.87-1.75l9.62-71.68h.58l10.2,71.39c.29,1.17-.29,2.04-1.17,2.04Z"/><path class="cls-1" d="m541.11,0h-85.37c-.87,0-1.46.58-1.46,1.17v73.72c0,1.46.29,2.04,1.46,2.04s2.04-.58,2.33-1.75l15.15-57.98c.58-1.75,1.46-3.21,3.21-3.21h10.78v183.56c0,3.5-.29,6.12-2.33,8.16l-8.74,8.45c-.87.87-2.04,1.75-2.04,2.62s.29,1.75,1.75,1.75h45.16c1.46,0,1.75-.87,1.75-1.75s-1.17-1.75-2.04-2.62l-8.74-8.45c-2.04-2.04-2.33-4.66-2.33-8.16V13.98h10.78c1.75,0,2.62,1.46,3.21,3.21l15.15,57.98c.29,1.17,1.17,1.75,2.33,1.75s1.46-.58,1.46-2.04V1.17c0-.58-.58-1.17-1.46-1.17Z"/><path class="cls-1" d="m588.01,12.82l8.74-8.45c.58-.87,2.04-1.75,2.04-2.62s-.58-1.75-1.75-1.75h-45.74c-1.17,0-1.75.87-1.75,1.75s1.46,1.75,2.04,2.62l8.74,8.45c2.04,2.04,2.62,4.66,2.62,8.16v176.57c0,3.5-.58,6.12-2.62,8.16l-8.74,8.45c-.58.87-2.04,1.75-2.04,2.62s.58,1.75,1.75,1.75h45.74c1.17,0,1.75-.87,1.75-1.75s-1.46-1.75-2.04-2.62l-8.74-8.45c-2.04-2.04-2.62-4.66-2.62-8.16V20.98c0-3.5.58-6.12,2.62-8.16Z"/><path class="cls-1" d="m700.77,0h-38.46c-1.17,0-1.75.87-1.75,1.46,0,1.17,1.46,2.04,2.04,2.91l8.16,8.74c2.04,2.04,2.62,4.37,2.62,7.87v109.26h-.58l-26.8-125.29c-.58-2.91-1.46-4.95-3.5-4.95h-34.96c-1.17,0-1.75.87-1.75,1.46,0,1.17,1.46,2.04,2.04,2.91l7.28,8.45c1.75,2.33,2.62,4.66,2.62,8.16v176.57c0,3.5-.87,5.83-2.62,8.16l-7.28,8.45c-.58.87-2.04,1.75-2.04,2.91,0,.58.58,1.46,1.75,1.46h38.46c1.17,0,1.75-.87,1.75-1.46,0-1.17-1.17-2.04-2.04-2.91l-7.87-8.74c-2.04-2.04-2.91-4.37-2.91-7.87V52.45h.58l34.09,158.8c.87,4.37,3.21,7.29,5.83,7.29h12.24c2.04,0,2.91-1.17,2.91-3.21V20.98c0-3.5.87-5.83,2.62-8.16l7.29-8.45c.87-.87,2.04-1.75,2.04-2.91,0-.58-.58-1.46-1.75-1.46Z"/><path class="cls-1" d="m403.58,0c-34.96,0-38.75,61.48-38.75,103.43,0,55.07,3.78,115.09,38.75,115.09s39.04-60.02,39.04-115.09c0-41.95-3.78-103.43-39.04-103.43Zm0,203.96c-8.45,0-14.86-24.48-14.86-100.23,0-64.68,6.41-89.16,14.86-89.16s15.15,24.48,15.15,89.16c0,75.76-6.41,100.23-15.15,100.23Z"/><path class="cls-1" d="m63.28,105.77c11.37-6.99,21.56-18.36,21.56-51.86C84.84,18.65,69.11,0,38.81,0H2.39C1.22,0,.64.87.64,1.75s1.46,1.75,2.04,2.62l8.74,8.45c2.04,2.04,2.62,4.66,2.62,8.16v176.57c0,3.5-.58,6.12-2.62,8.16l-8.74,8.45c-.58,1.17-2.04,1.75-2.04,2.62s.58,1.75,1.75,1.75h45.74c23.89,0,37.3-20.1,37.3-62.35,0-32.34-10.78-44.58-22.15-50.41ZM36.48,14.57h4.37c14.28,0,20.4,9.62,20.4,39.34,0,34.96-6.12,46.33-20.4,46.33h-4.37V14.57Zm9.03,189.39h-9.03v-89.16h4.37c14.28,0,20.4,10.78,20.4,39.33,0,39.34-2.91,49.83-15.74,49.83Z"/><path class="cls-1" d="m0,269.07v-.08c0-7.68,5.79-13.98,14.09-13.98,5.1,0,8.15,1.7,10.66,4.17l-3.78,4.36c-2.09-1.89-4.21-3.05-6.91-3.05-4.56,0-7.84,3.78-7.84,8.42v.08c0,4.63,3.2,8.49,7.84,8.49,3.09,0,4.98-1.24,7.1-3.17l3.78,3.82c-2.78,2.97-5.87,4.82-11.08,4.82-7.95,0-13.86-6.14-13.86-13.9Z"/><path class="cls-1" d="m45.16,255.47h5.95v10.69h10.97v-10.69h5.94v27.03h-5.94v-10.85h-10.97v10.85h-5.95v-27.03Z"/><path class="cls-1" d="m88.78,269.07v-.08c0-7.68,6.06-13.98,14.4-13.98s14.32,6.22,14.32,13.9v.08c0,7.68-6.06,13.98-14.4,13.98s-14.32-6.22-14.32-13.9Zm22.51,0v-.08c0-4.63-3.4-8.5-8.18-8.5s-8.11,3.78-8.11,8.42v.08c0,4.63,3.4,8.49,8.19,8.49s8.11-3.78,8.11-8.42Z"/><path class="cls-1" d="m137.07,269.07v-.08c0-7.68,5.79-13.98,14.09-13.98,5.1,0,8.15,1.7,10.66,4.17l-3.78,4.36c-2.09-1.89-4.21-3.05-6.91-3.05-4.56,0-7.84,3.78-7.84,8.42v.08c0,4.63,3.2,8.49,7.84,8.49,3.09,0,4.98-1.24,7.1-3.17l3.78,3.82c-2.78,2.97-5.87,4.82-11.08,4.82-7.95,0-13.86-6.14-13.86-13.9Z"/><path class="cls-1" d="m180.26,269.07v-.08c0-7.68,6.06-13.98,14.4-13.98s14.32,6.22,14.32,13.9v.08c0,7.68-6.06,13.98-14.4,13.98s-14.32-6.22-14.32-13.9Zm22.51,0v-.08c0-4.63-3.4-8.5-8.19-8.5s-8.11,3.78-8.11,8.42v.08c0,4.63,3.4,8.49,8.19,8.49s8.11-3.78,8.11-8.42Z"/><path class="cls-1" d="m229.75,255.47h5.95v21.62h13.48v5.4h-19.42v-27.03Z"/><path class="cls-1" d="m278.39,255.28h5.48l11.58,27.22h-6.22l-2.47-6.06h-11.43l-2.47,6.06h-6.06l11.58-27.22Zm6.25,15.91l-3.59-8.76-3.59,8.76h7.18Z"/><path class="cls-1" d="m317.91,260.96h-8.22v-5.48h22.39v5.48h-8.22v21.55h-5.94v-21.55Z"/><path class="cls-1" d="m352.1,255.47h20.39v5.29h-14.48v5.48h12.74v5.29h-12.74v5.68h14.67v5.29h-20.58v-27.03Z"/><path class="cls-1" d="m418.4,255.47h6.37l5.6,18.3,6.06-18.38h5.1l6.06,18.38,5.6-18.3h6.22l-9.23,27.22h-5.17l-6.1-17.69-6.1,17.69h-5.17l-9.23-27.22Z"/><path class="cls-1" d="m479.29,255.47h5.95v10.69h10.96v-10.69h5.95v27.03h-5.95v-10.85h-10.96v10.85h-5.95v-27.03Z"/><path class="cls-1" d="m524.37,255.47h5.95v27.03h-5.95v-27.03Z"/><path class="cls-1" d="m550.68,278.56l3.51-4.21c2.43,2.01,4.98,3.28,8.07,3.28,2.43,0,3.9-.97,3.9-2.55v-.08c0-1.5-.92-2.28-5.44-3.44-5.44-1.39-8.96-2.9-8.96-8.26v-.08c0-4.9,3.94-8.15,9.46-8.15,3.94,0,7.3,1.24,10.04,3.44l-3.09,4.48c-2.39-1.66-4.75-2.66-7.03-2.66s-3.48,1.04-3.48,2.36v.08c0,1.78,1.16,2.36,5.83,3.55,5.48,1.43,8.57,3.4,8.57,8.11v.08c0,5.37-4.09,8.38-9.92,8.38-4.09,0-8.22-1.43-11.47-4.32Z"/><path class="cls-1" d="m592.72,255.47h5.95v11.81l10.96-11.81h7.18l-11.01,11.47,11.51,15.56h-7.14l-8.38-11.51-3.13,3.24v8.26h-5.95v-27.03Z"/><path class="cls-1" d="m636.37,255.47h20.39v5.29h-14.48v5.48h12.74v5.29h-12.74v5.68h14.68v5.29h-20.58v-27.03Z"/><path class="cls-1" d="m685.32,271.84l-10.39-16.37h6.95l6.45,10.85,6.56-10.85h6.76l-10.38,16.25v10.77h-5.95v-10.66Z"/></svg>