<?xml version="1.0" encoding="utf-8"?>
<!-- Generator: Adobe Illustrator 25.4.1, SVG Export Plug-In . SVG Version: 6.00 Build 0)  -->
<svg version="1.1" id="Слой_1" xmlns="http://www.w3.org/2000/svg" xmlns:xlink="http://www.w3.org/1999/xlink" x="0px" y="0px"
	 viewBox="0 0 100 64" style="enable-background:new 0 0 100 64;" xml:space="preserve">
<style type="text/css">
	.st0{clip-path:url(#SVGID_00000119837251732321531910000005623642392622031803_);}
	.st1{fill:#FCF7F2;}
	.st2{fill:#651938;}
</style>
<g>
	<defs>
		<rect id="SVGID_1_" width="100" height="64"/>
	</defs>
	<clipPath id="SVGID_00000014604818061668643550000014849764089066208387_">
		<use xlink:href="#SVGID_1_"  style="overflow:visible;"/>
	</clipPath>
	<g style="clip-path:url(#SVGID_00000014604818061668643550000014849764089066208387_);">
		<path class="st1" d="M93.7,36.5c0,0-10.7-7.6-32.8,5.6C36.5,56.8,1.7,50.9,0.5,30.6C-1.5-1.3,44.4-6.3,67.2,7.7
			C82.6,17.3,93.7,36.5,93.7,36.5z"/>
		<path class="st1" d="M94.3,33c-1.1-2.4-1.3-6.9,3.8-14.6c5.1-7.7-4.6-15.2-9.4-5.6C83.9,22.3,94.3,33,94.3,33z"/>
		<path class="st2" d="M40.9,37c-0.1-0.7-0.7-4.5-0.8-4.9l-0.3-1.8c-0.1-0.3-0.8-4.3-0.8-4.7l2.3-0.4c0.1,0.3,0.4,2.8,0.7,4.7
			l0.3,1.8c0.3,1.6,0.8,4.5,0.9,4.9L40.9,37z"/>
		<path class="st2" d="M44.5,34.9c0.2-0.4,2.3-4.2,2.6-4.9c-0.7-0.7-2.9-3.2-3.3-3.7l1.4-2.1c0.6,0.7,2.4,3,3.1,3.8
			c0.3-0.6,1.9-3.7,2.3-4.5l1.8,1.7c-0.3,0.5-2.3,3.8-2.6,4.4c0.5,0.5,3.3,3.6,3.7,4l-1.4,2.2c-0.5-0.5-3.1-3.7-3.5-4.2
			c-0.2,0.4-2.2,4.6-2.4,5L44.5,34.9z"/>
		<path class="st2" d="M60.4,34.9c-0.4,0-4.7,0.2-5.2,0.2c0-0.9-0.3-4.3-0.3-4.7l-0.2-2.2c0-0.3-0.3-4.2-0.4-4.5
			c0.6-0.1,4.5-0.6,4.9-0.6l0.2,2.1c-0.4,0-2.6,0.3-2.8,0.3l0.2,2.9c0.3-0.1,1.7-0.2,2.4-0.3l0.2,2c-0.3,0-2.2,0.1-2.4,0.1l0.2,2.8
			c0.3-0.1,2.2-0.1,2.9-0.3L60.4,34.9z"/>
		<path class="st2" d="M62,32.8c1.2-0.1,2.7-0.7,2.7-1.7c0-0.5-0.3-0.8-1.3-1.5c-0.9-0.7-1.8-1.4-1.8-2.7c-0.1-1.8,1.8-3.6,4.5-4.1
			l0.4,2.1c-1.3,0.1-2.5,0.6-2.5,1.5c0,0.6,0.6,0.9,1.3,1.4c0.8,0.5,1.8,1.1,1.8,2.6c0.1,1.7-1.4,3.8-4.7,4.5L62,32.8z"/>
		<path class="st2" d="M25,25.3c0.2-0.7,0.6-2.7,0.6-3l4-0.8c0.2,0.2,1.4,2.2,1.8,2.9l1.7-1.8c-0.8-1.1-5-7.5-6.8-10h-0.1
			c-0.6,1.8-3,10.4-3.3,11.6L25,25.3z M26,20.3c0.2-0.7,0.7-3,0.8-3.7c0.3,0.5,1.5,2.5,1.8,3.1L26,20.3z"/>
		<path class="st2" d="M34.3,21.6c1.2-0.3,2.6-1,2.4-2c-0.1-0.5-0.4-0.7-1.4-1.3c-1-0.5-1.9-1.1-2.2-2.4c-0.3-1.8,1.4-3.8,3.9-4.6
			l0.6,2c-1.2,0.3-2.4,0.9-2.3,1.9c0.1,0.5,0.7,0.8,1.5,1.2c0.8,0.4,1.9,0.9,2.1,2.3c0.3,1.7-0.9,3.9-4,5L34.3,21.6z"/>
		<path class="st2" d="M43.8,22.1c0-0.4-0.5-3.7-0.7-5.7L42.7,13c-0.9,0.1-2.7,0.5-3.1,0.6l-0.3-2.2c0.6,0,3.6-0.3,3.7-0.4l1.1-0.2
			c0.3-0.1,3-0.5,3.6-0.7l0.3,2.2c-0.3,0-2.6,0.2-3.1,0.3l0.5,3.7c0.3,2.3,0.8,5.1,0.8,5.4L43.8,22.1z"/>
		<path class="st2" d="M56,20.7c-0.4,0.1-4.6,0.4-5.1,0.4c-0.1-0.8-0.4-4.2-0.5-4.6l-0.2-2.1c0-0.3-0.5-4.1-0.5-4.5
			c0.6-0.1,4.4-0.7,4.8-0.8l0.3,2.1c-0.4,0.1-2.5,0.4-2.7,0.4l0.3,2.9c0.3,0,1.7-0.3,2.3-0.4l0.3,2c-0.3,0.1-2.1,0.2-2.4,0.2
			l0.3,2.7c0.3-0.1,2.1-0.2,2.9-0.4L56,20.7z"/>
		<path class="st2" d="M57.9,20.4c0-0.4-0.3-5.5-0.3-5.8l-0.1-1.3c-0.1-0.5-0.3-3.9-0.3-4.2c1.3-0.1,2.8-0.2,3.8,0
			c1.8,0.2,2.9,1,3,2.5c0.1,1.3-0.6,2.4-1.5,3.3c0.4,0.5,2.7,3.4,3,3.8l-1.7,1.9c-0.3-0.4-3.1-4.9-3.5-5.5c0.6-0.5,1.5-1.4,1.5-2.7
			c-0.1-0.8-0.5-1.6-2.3-1.5l0.3,4.6c0.1,0.6,0.3,4.6,0.4,4.9H57.9z"/>
		<path class="st2" d="M20.5,30.1c-0.5-1.7-1.7-8.8-1.8-9.3c-0.4,0.7-2.6,5.6-3.6,7.4h-0.1c-1.1-2.4-2.8-6.8-3.1-7.7h-0.1
			c-0.3,1-1.5,10.2-1.3,14.2c-1.2-1-4.9-1-4.9-1c0.5-0.3,1-1,3.7-12.7c1.2-5.2,1.6-7.8,1.6-7.8c0.8,1.8,3.6,8.3,4.1,9.4
			c0.7-1.2,3.7-7.8,4.4-9.1h0.1c0.1,0.8,0.7,4.9,1.5,7.9c1,4.1,1.8,6.1,2.8,7C21.4,29.1,20.5,30.1,20.5,30.1z"/>
		<path class="st2" d="M38,42.4c-0.5-1.8-2.1-8.6-2.3-9.2c-0.4,0.7-3.4,5.7-4.6,7.7h-0.1c-1.2-2.6-2.6-7-2.9-7.9h-0.1
			c-0.3,1.1-2.3,8.2-2.6,9.2C24.2,41,21,41.6,21,41.6c0.5-0.3,3-2.7,4.6-8.2c1.4-4,1.9-8.5,1.9-8.5c0.8,2,3.6,8.8,4.1,10
			c0.7-1.3,4-7.8,4.8-9.2h0.2c0,0.8,0.5,5.1,1.5,8.4c1,3.3,2.5,6.6,3.7,7.3C38.7,41.7,38,42.4,38,42.4z"/>
		<path class="st2" d="M12.5,35.8c0.1,1.7,1.2,2.9,2.8,2.8c2.2-0.2,2.8-2.3,2.7-3.6c-0.2-2-1.3-3-2.8-2.9
			C13.2,32.3,12.3,34.1,12.5,35.8z M13.7,35.7c-0.1-1.3,0.5-2.3,1.3-2.3c0.7-0.1,1.4,0.6,1.5,2c0.1,1.5-0.7,2.2-1.3,2.3
			C14.5,37.6,13.8,36.9,13.7,35.7z"/>
		<path class="st2" d="M19.4,38.1c-0.1-0.5-0.3-2.3-0.3-2.5L19,34.4c0-0.2-0.4-2.2-0.4-2.5c0.4-0.1,2.2-0.4,2.7-0.5l0.2,1.1
			l-1.5,0.3l0.3,1.7c0.1,0,0.8-0.2,1.4-0.3l0.2,1.1l-1.4,0.2l0.1,0.8c0.1,0.2,0.2,1.5,0.3,1.7L19.4,38.1z"/>
		<path class="st2" d="M71.4,29c1.1,0,1.9,0.9,1.9,1.9c0,1.1-0.8,2-1.9,2c-1.1,0-1.9-0.9-1.9-2C69.5,29.9,70.4,29,71.4,29z
			 M71.4,29.3c-0.8,0-1.5,0.7-1.5,1.7c0,0.9,0.7,1.7,1.5,1.7c0.9,0,1.5-0.7,1.5-1.7C72.9,30,72.3,29.3,71.4,29.3z M71,32.1h-0.4
			v-2.1c0.2,0,0.4-0.1,0.6-0.1c0.3,0,0.6,0.1,0.7,0.2c0.1,0.1,0.2,0.3,0.2,0.5c0,0.3-0.2,0.5-0.4,0.5c0.2,0,0.3,0.2,0.4,0.5
			c0.1,0.3,0.1,0.5,0.2,0.5h-0.4c-0.1-0.1-0.1-0.3-0.2-0.6c-0.1-0.3-0.2-0.4-0.5-0.4h-0.2L71,32.1z M71,30.9h0.3
			c0.3,0,0.5-0.1,0.5-0.4c0-0.2-0.2-0.4-0.5-0.4c-0.1,0-0.2,0-0.3,0V30.9z"/>
		<path class="st1" d="M8.4,49.5l1.3,0.8c0.1,0,0.1,0.1,0.1,0.1c0.1,0.1,0.1,0.1,0.1,0.2l0.1,8.7c0,0.1,0,0.1-0.1,0.1
			c0,0-0.1,0-0.1,0l-1.3-0.8c-0.1,0-0.1-0.1-0.1-0.1c-0.1-0.1-0.1-0.1-0.1-0.2l-0.1-5.7c0-0.1,0-0.1,0-0.1H8.3L7.1,54
			C7,54.1,7,54.1,6.9,54l-0.7-0.4c-0.1-0.1-0.1-0.1-0.2-0.2l-1.2-2.8c0-0.1-0.1-0.1-0.1-0.1s0,0,0,0.1l0.1,5.7c0,0.1,0,0.1-0.1,0.1
			c0,0-0.1,0-0.1,0l-1.3-0.8c-0.1,0-0.1-0.1-0.1-0.1c-0.1-0.1-0.1-0.1-0.1-0.2l-0.1-8.7c0-0.1,0-0.1,0.1-0.1c0,0,0.1,0,0.1,0
			l1.3,0.8c0.1,0.1,0.1,0.1,0.2,0.2l1.7,4c0,0.1,0.1,0.1,0.1,0.1l1.6-2C8.3,49.4,8.3,49.4,8.4,49.5z"/>
		<path class="st1" d="M12.1,60C12,60,12,59.9,12,59.9l-0.1-8.7c0-0.1,0-0.1,0.1-0.1c0.1,0,0.1,0,0.1,0l1.4,0.5
			c0.1,0,0.1,0.1,0.1,0.1c0.1,0.1,0.1,0.1,0.1,0.1l0.1,8.7c0,0.1,0,0.1-0.1,0.1c-0.1,0-0.1,0-0.1,0l-1.4-0.5
			C12.1,60.1,12.1,60.1,12.1,60z"/>
		<path class="st1" d="M15.4,61.3c0-0.1,0-0.1,0-0.1l2.4-3.7v-0.1l-2.5-4.9l-0.1-0.1c0-0.1,0.1-0.1,0.2-0.1l1.6,0.4
			c0.1,0,0.2,0.1,0.2,0.2l1.6,3.4c0,0.1,0.1,0.1,0.1,0l1.6-2.6c0.1-0.1,0.1-0.1,0.2-0.1l1.6,0.4c0.1,0,0.1,0.1,0.1,0.1
			c0,0.1,0,0.1,0,0.1L20.1,58V58l2.5,4.9l0.1,0.1c0,0.1-0.1,0.1-0.2,0.1l-1.6-0.4c-0.1,0-0.2-0.1-0.2-0.2L19,59.2
			c0-0.1-0.1-0.1-0.1,0l-1.6,2.6c-0.1,0.1-0.1,0.1-0.2,0.1l-1.6-0.4C15.5,61.4,15.4,61.4,15.4,61.3z"/>
		<path class="st1" d="M25.4,63c-0.5-0.3-0.9-0.7-1.2-1.2c-0.3-0.5-0.4-1.1-0.5-1.8v-2.7c0-0.6,0.2-1.2,0.4-1.7
			c0.3-0.5,0.7-0.8,1.2-1c0.5-0.2,1.1-0.3,1.7-0.3c0.7,0.1,1.3,0.3,1.8,0.6s0.9,0.7,1.2,1.2c0.3,0.5,0.4,1.1,0.5,1.7v2.7
			c0,0.6-0.2,1.2-0.4,1.7c-0.3,0.5-0.7,0.8-1.2,1.1c-0.5,0.2-1.1,0.3-1.7,0.3C26.5,63.5,25.9,63.3,25.4,63z M28.3,61.7
			c0.3-0.3,0.4-0.7,0.4-1.2l-0.1-2.8c0-0.5-0.2-0.9-0.5-1.2c-0.3-0.3-0.7-0.5-1.1-0.6c-0.5-0.1-0.8,0.1-1.1,0.4
			c-0.3,0.3-0.4,0.7-0.4,1.2l0.1,2.8c0,0.5,0.2,0.9,0.5,1.2c0.3,0.3,0.7,0.5,1.1,0.5C27.6,62,28,61.9,28.3,61.7z"/>
		<path class="st1" d="M32.6,63.7c-0.1-0.1-0.1-0.1-0.1-0.1l-0.1-8.7c0-0.1,0-0.1,0.1-0.1c0.1-0.1,0.1-0.1,0.1-0.1l1.5-0.1
			c0.1,0,0.1,0,0.1,0.1c0.1,0.1,0.1,0.1,0.1,0.1l0.1,7.2c0,0.1,0,0.1,0.1,0.1l4.2-0.2c0.1,0,0.1,0,0.1,0.1c0.1,0.1,0.1,0.1,0.1,0.1
			v1.2c0,0.1,0,0.1-0.1,0.1c-0.1,0.1-0.1,0.1-0.1,0.1L32.6,63.7C32.7,63.7,32.7,63.7,32.6,63.7z"/>
		<path class="st1" d="M41.8,62.7c-0.5-0.2-0.9-0.5-1.2-0.9c-0.3-0.5-0.4-1-0.4-1.7v-2.7c0-0.6,0.1-1.2,0.4-1.8
			c0.3-0.6,0.7-1,1.1-1.3c0.5-0.4,1.1-0.6,1.7-0.7c0.7-0.1,1.2-0.1,1.7,0.1c0.5,0.2,0.9,0.5,1.2,0.9c0.3,0.4,0.4,1,0.4,1.6v2.7
			c0,0.6-0.1,1.2-0.4,1.8c-0.3,0.6-0.7,1-1.1,1.4c-0.5,0.4-1.1,0.6-1.7,0.7C42.9,62.9,42.3,62.9,41.8,62.7z M44.7,60.5
			c0.3-0.4,0.4-0.8,0.4-1.3L45,56.4c0-0.5-0.2-0.9-0.4-1.1c-0.3-0.3-0.7-0.3-1.1-0.3c-0.5,0.1-0.8,0.3-1.1,0.7
			c-0.3,0.4-0.4,0.8-0.4,1.3l0.1,2.8c0,0.5,0.2,0.9,0.4,1.1c0.3,0.3,0.7,0.3,1.1,0.3C44,61.1,44.4,60.9,44.7,60.5z"/>
		<path class="st1" d="M50.2,60.6c-0.5-0.1-0.9-0.3-1.1-0.7c-0.3-0.4-0.4-0.9-0.4-1.5l-0.1-2.9c0-0.6,0.1-1.2,0.4-1.8
			c0.3-0.6,0.6-1.1,1.1-1.5c0.5-0.4,1-0.8,1.6-1c0.6-0.2,1.1-0.3,1.6-0.2c0.5,0.1,0.8,0.3,1.1,0.7c0.3,0.4,0.4,0.8,0.4,1.3v0.1
			c0,0.1,0,0.1-0.1,0.1c-0.1,0.1-0.1,0.1-0.1,0.1l-1.4,0.5c-0.1,0-0.1,0-0.1,0s-0.1-0.1-0.1-0.1v-0.1c0-0.4-0.2-0.7-0.4-0.9
			c-0.3-0.2-0.6-0.2-1-0.1c-0.4,0.2-0.8,0.4-1,0.8c-0.3,0.4-0.4,0.8-0.4,1.3l0.1,3c0,0.5,0.2,0.8,0.4,1c0.3,0.2,0.7,0.2,1.1,0.1
			c0.4-0.2,0.8-0.4,1-0.7c0.3-0.3,0.4-0.7,0.4-1.1v-0.6c0-0.1,0-0.1-0.1-0.1l-1.3,0.5c-0.1,0-0.1,0-0.1,0s-0.1-0.1-0.1-0.1v-1.2
			c0-0.1,0-0.1,0.1-0.1c0.1-0.1,0.1-0.1,0.1-0.1l2.9-1.1c0.1,0,0.1,0,0.1,0c0.1,0,0.1,0.1,0.1,0.1v1.7c0,0.7-0.1,1.3-0.4,1.9
			c-0.3,0.6-0.6,1.1-1.1,1.5c-0.5,0.4-1,0.8-1.6,1C51.2,60.7,50.7,60.7,50.2,60.6z"/>
		<path class="st1" d="M58.5,57.3c-0.1,0-0.1-0.1-0.1-0.1l-0.1-3.3c0-0.1,0-0.1,0-0.1l-2.5-4.2c0-0.1,0-0.1,0-0.1
			c0-0.1,0.1-0.1,0.1-0.2l1.5-0.7c0.1-0.1,0.2,0,0.2,0.1l1.5,2.7c0,0.1,0.1,0.1,0.1-0.1l1.4-4.1c0.1-0.1,0.1-0.2,0.2-0.2l1.5-0.7
			c0.1,0,0.1-0.1,0.1,0c0,0,0,0.1,0,0.2L60,53.1c0,0,0,0.1,0,0.1l0.1,3.3c0,0.1,0,0.1-0.1,0.1c-0.1,0.1-0.1,0.1-0.1,0.1l-1.3,0.6
			C58.6,57.3,58.5,57.3,58.5,57.3z"/>
		<path class="st1" d="M72.1,43.3c0.4,0.1,0.7,0.3,1,0.7c0.2,0.4,0.4,0.8,0.4,1.3c0,0.5-0.1,1-0.4,1.5c-0.2,0.5-0.6,0.9-1,1.3
			c-0.4,0.4-0.9,0.6-1.4,0.8l-1.7,0.6c-0.1,0-0.1,0.1-0.1,0.1l0.1,3.3c0,0.1,0,0.1-0.1,0.1c-0.1,0.1-0.1,0.1-0.1,0.1l-1.4,0.5
			c-0.1,0-0.1,0-0.1,0s-0.1-0.1-0.1-0.1L67,44.8c0-0.1,0-0.1,0.1-0.1c0.1-0.1,0.1-0.1,0.1-0.1l3.4-1.1
			C71.1,43.2,71.6,43.2,72.1,43.3z M71.3,46.9c0.2-0.3,0.4-0.6,0.3-1c0-0.4-0.1-0.7-0.4-0.8c-0.2-0.2-0.5-0.2-0.9-0.1l-1.5,0.5
			c-0.1,0-0.1,0.1-0.1,0.1V48c0,0.1,0,0.1,0.1,0.1l1.5-0.5C70.8,47.4,71.1,47.2,71.3,46.9z"/>
		<path class="st1" d="M79.8,50.2l-1.6-3.3c0-0.1-0.1-0.1-0.1-0.1L77,47.1c-0.1,0-0.1,0.1-0.1,0.1l0.1,3.5c0,0.1,0,0.1-0.1,0.1
			c-0.1,0.1-0.1,0.1-0.1,0.1L75.3,51c-0.1,0-0.1,0-0.1-0.1c-0.1,0-0.1-0.1-0.1-0.1l-0.1-8.7c0-0.1,0-0.1,0.1-0.1s0.1-0.1,0.1-0.1
			l3.6-0.6c0.6-0.1,1-0.1,1.4,0.1c0.4,0.2,0.7,0.4,1,0.8c0.2,0.4,0.4,0.8,0.4,1.4c0,0.6-0.2,1.1-0.4,1.6c-0.3,0.5-0.7,0.8-1.2,1.1
			c-0.1,0-0.1,0.1-0.1,0.1l1.7,3.4c0,0.1,0.1,0.1,0.1,0.1c0,0.1-0.1,0.1-0.2,0.1l-1.5,0.3C79.9,50.3,79.8,50.3,79.8,50.2z
			 M76.8,43.4v2.2c0,0.1,0,0.1,0.1,0.1l1.6-0.3c0.4-0.1,0.6-0.2,0.9-0.5c0.2-0.3,0.3-0.6,0.3-0.9c0-0.4-0.1-0.6-0.4-0.8
			c-0.2-0.2-0.5-0.3-0.9-0.2L76.8,43.4C76.8,43.4,76.8,43.4,76.8,43.4z"/>
		<path class="st1" d="M85,49.7c-0.5-0.3-0.9-0.7-1.2-1.2c-0.3-0.5-0.4-1.1-0.5-1.8v-2.7c0-0.6,0.2-1.2,0.4-1.7
			c0.3-0.5,0.7-0.8,1.2-1c0.5-0.3,1.1-0.3,1.7-0.3c0.7,0.1,1.3,0.2,1.8,0.5c0.5,0.3,0.9,0.7,1.2,1.2c0.3,0.5,0.4,1.1,0.5,1.7v2.7
			c0,0.6-0.2,1.2-0.4,1.7c-0.3,0.5-0.7,0.8-1.2,1.1c-0.5,0.3-1.1,0.3-1.7,0.3C86.1,50.2,85.5,50,85,49.7z M87.8,48.3
			c0.3-0.3,0.4-0.7,0.4-1.2l-0.1-2.8c0-0.5-0.2-0.9-0.5-1.2c-0.3-0.3-0.7-0.5-1.1-0.6c-0.5-0.1-0.8,0.1-1.1,0.4
			c-0.3,0.3-0.4,0.7-0.4,1.2l0.1,2.8c0,0.5,0.2,0.9,0.5,1.2s0.7,0.5,1.1,0.5C87.2,48.7,87.5,48.6,87.8,48.3z"/>
	</g>
</g>
</svg>
