<?xml version="1.0" encoding="UTF-8" standalone="no"?>
<svg
   xmlns:dc="http://purl.org/dc/elements/1.1/"
   xmlns:cc="http://creativecommons.org/ns#"
   xmlns:rdf="http://www.w3.org/1999/02/22-rdf-syntax-ns#"
   xmlns:svg="http://www.w3.org/2000/svg"
   xmlns="http://www.w3.org/2000/svg"
   xmlns:sodipodi="http://sodipodi.sourceforge.net/DTD/sodipodi-0.dtd"
   xmlns:inkscape="http://www.inkscape.org/namespaces/inkscape"
   class="q-logo"
   viewBox="0 0 999.99997 1159.8683"
   version="1.1"
   id="svg135"
   sodipodi:docname="A.svg"
   width="1000"
   height="1159.8683"
   inkscape:version="0.92.4 (5da689c313, 2019-01-14)">
  <metadata
     id="metadata141">
    <rdf:RDF>
      <cc:Work
         rdf:about="">
        <dc:format>image/svg+xml</dc:format>
        <dc:type
           rdf:resource="http://purl.org/dc/dcmitype/StillImage" />
        <dc:title></dc:title>
      </cc:Work>
    </rdf:RDF>
  </metadata>
  <defs
     id="defs139" />
  <sodipodi:namedview
     pagecolor="#ffffff"
     bordercolor="#111111"
     borderopacity="1"
     objecttolerance="10"
     gridtolerance="10"
     guidetolerance="10"
     inkscape:pageopacity="0"
     inkscape:pageshadow="2"
     inkscape:window-width="1920"
     inkscape:window-height="1017"
     id="namedview137"
     showgrid="false"
     fit-margin-top="0"
     fit-margin-left="0"
     fit-margin-right="0"
     fit-margin-bottom="0"
     inkscape:zoom="0.5467456"
     inkscape:cx="683.56215"
     inkscape:cy="534.06923"
     inkscape:window-x="1912"
     inkscape:window-y="-8"
     inkscape:window-maximized="1"
     inkscape:current-layer="svg135" />
  <path
     class="mixers"
     d="M 109.6332,1081.5881 42.566165,929.80521 0,1147.411 h 35.093373 l 19.725915,-110.4635 54.193192,122.9208 55.85382,-122.7139 17.6488,110.2566 h 34.88109 L 179.19117,929.80521 Z M 286.74994,964.89589 H 318.5167 V 1147.411 h -31.76676 z m 228.39713,0 h -36.33212 l -34.26038,57.72131 -32.59975,-57.72131 h -36.12791 l 50.24587,87.20671 -57.30753,95.3084 h 36.1279 l 39.03533,-65.6133 38.0008,65.6133 H 517.638 l -55.22773,-95.3084 z m 52.74485,182.51511 h 102.98535 v -30.1088 h -71.21859 v -54.4001 h 69.13878 v -30.1089 h -69.13878 v -37.79117 h 71.21859 V 964.89589 H 567.89192 Z m 259.33627,-94.0615 c 7.47816,-9.5526 11.42012,-20.9728 11.42012,-34.0535 0,-16.8185 -6.01908,-30.52264 -18.06529,-40.69865 C 809.7863,969.46394 792.1375,964.6863 768.05313,964.6863 h -33.84657 v 182.5151 h 31.56254 v -72.675 h 1.03453 l 50.66505,72.675 h 38.82574 l -55.64691,-76.6196 c 11.009,-2.9048 19.73129,-8.7196 26.58068,-17.2323 z m -19.72323,-33.6397 c 0,17.8584 -11.62972,26.5807 -35.71409,26.5807 h -6.01908 v -51.49538 h 7.05898 c 23.46366,0.20691 34.67419,8.30578 34.67419,24.91468 z m 182.09591,39.4545 v 0 c -6.84939,-8.7223 -17.8557,-16.1951 -32.59707,-22.0099 l -17.64879,-7.2659 c -12.04353,-4.9819 -17.85839,-11.0063 -17.85839,-18.6887 0,-5.6053 2.07712,-10.1733 6.43826,-13.70415 4.36115,-3.73774 10.17063,-5.81486 17.02539,-5.81486 5.60527,0 10.17601,1.0399 13.70415,3.32124 3.32124,1.86753 6.85476,6.22867 10.8021,12.87387 l 1.24412,2.0771 25.9519,-15.36747 -1.24412,-2.07443 c -11.83394,-20.76582 -28.85933,-31.14604 -50.04165,-31.14604 -15.78127,0 -29.06892,4.77495 -39.65605,14.11796 -10.80209,9.34569 -16.19508,21.38654 -16.19508,35.30028 0,20.7658 12.87384,36.754 37.99812,47.3411 l 17.02539,7.059 c 4.36114,1.8702 8.09888,3.7404 11.21053,5.8149 2.90743,1.8675 5.40105,4.1515 7.26857,6.2286 1.86753,2.0745 3.11703,4.5681 3.94734,7.059 0.83031,2.7005 1.24412,5.608 1.24412,8.7196 0,8.0989 -2.49362,14.3276 -7.68239,19.519 -5.19145,5.1942 -11.42012,7.6824 -19.09713,7.6824 -9.76219,0 -17.03077,-3.5281 -22.22222,-10.5871 -2.69784,-3.5282 -4.77496,-10.5898 -6.01908,-20.3493 l -0.41381,-2.6979 -31.97635,7.059 0.41381,2.284 c 2.49362,17.0281 8.92651,30.5227 19.30941,40.0753 10.3856,9.5526 23.88016,14.3275 39.87102,14.3275 16.8158,0 31.14335,-5.6079 42.56348,-16.8212 11.42012,-11.0036 17.02539,-25.3311 17.02539,-42.3592 0.20156,-12.2478 -3.33199,-23.2541 -10.39097,-31.9737 z"
     id="path131"
     inkscape:connector-curvature="0"
     style="fill:#010101;stroke-width:2.68708825" />
  <path
     class="q"
     d="m 841.76533,817.88797 c -22.00994,17.8584 -44.85019,25.33119 -69.56065,22.42376 -40.90554,-4.77227 -71.6324,-13.07806 -116.48528,-34.05079 -2.07712,-1.0399 -4.98455,-2.07712 -7.47279,-3.11433 -0.83568,-0.4165 -2.07712,-1.0399 -3.32124,-1.45372 6.43558,-4.36114 12.66425,-8.51269 18.47911,-12.46002 C 782.38068,700.36548 920.0429,537.3694 920.0429,308.5504 920.0429,161.74939 821.20642,1.0563131e-4 645.5434,1.0563131e-4 346.34149,-0.20679437 108.38908,303.56854 108.38908,549.82674 c 0,32.80666 2.69784,62.29208 8.5127,90.11419 14.12064,68.72765 83.26211,186.66665 224.66476,186.66665 39.24224,0 88.66048,-10.58713 121.05333,-24.29397 11.42012,-4.77495 22.42375,-9.7595 32.80666,-14.94827 5.18876,2.70052 11.21322,5.81486 19.51632,9.5526 10.38022,4.77495 31.35294,13.70415 48.79215,20.97272 -26.36571,17.2323 -60.00268,35.50719 -97.79389,46.30122 22.21684,9.75951 86.58336,-4.98186 124.99528,-28.0317 2.07712,-1.24681 4.36115,-2.70052 6.85476,-4.15424 47.96453,19.3121 86.99986,30.10883 126.65591,34.67688 93.2339,10.79672 117.73209,-25.95459 120.42992,-33.43007 2.70321,-8.09889 -2.28402,-15.78127 -2.28402,-15.78127 z M 607.75756,784.87441 c -13.91374,-6.22867 -27.82479,-12.46003 -34.88378,-15.57437 -7.26857,-3.73774 -15.98548,-7.89197 -25.33386,-12.46002 106.72846,-72.0489 153.44617,-167.56145 159.26372,-192.06501 14.53177,-54.4001 -42.98267,-84.30202 -42.98267,-84.30202 0,0 -64.1596,158.63494 -170.88537,251.44966 -14.11797,-6.22867 -23.87747,-10.38023 -23.87747,-10.38023 -91.7775,-40.28214 -164.2429,-54.40278 -201.61761,-41.32204 0.20691,1.66062 0.41381,3.53084 0.833,5.19414 0.62072,2.49093 1.86753,4.77496 3.11433,6.85208 0.41382,0 1.03722,0.2069 1.45103,0.2069 41.11514,4.77496 106.10237,36.12791 154.27649,60.42187 3.11433,1.66062 12.04084,6.22867 22.00725,11.21322 -33.22047,20.34663 -69.55797,33.22047 -108.8002,33.22047 -55.0262,0 -95.10143,-24.70777 -119.18312,-73.2957 -4.77495,-9.34301 -9.1361,-20.13973 -11.00631,-26.7849 C 197.05224,657.17323 192.6911,606.09437 197.46606,548.78684 207.01865,436.0393 258.92783,298.37439 339.48942,200.16132 427.73609,92.398326 534.24958,34.881196 639.11051,34.881196 c 134.75748,0 194.14213,128.735724 194.14213,250.202854 0,243.97687 -129.56871,413.82234 -212.62124,487.32764 0.41382,0.62609 -4.36114,5.19414 -12.87384,12.46272 z"
     id="path133"
     inkscape:connector-curvature="0"
     style="fill:#010101;stroke-width:2.68708825" />
</svg>
