<?xml version="1.0" encoding="utf-8"?>
<!-- Generator: Adobe Illustrator 25.4.1, SVG Export Plug-In . SVG Version: 6.00 Build 0)  -->
<svg version="1.1" id="Слой_1" xmlns="http://www.w3.org/2000/svg" xmlns:xlink="http://www.w3.org/1999/xlink" x="0px" y="0px"
	 viewBox="0 0 144.1 59" style="enable-background:new 0 0 144.1 59;" xml:space="preserve">
<style type="text/css">
	.st0{fill-rule:evenodd;clip-rule:evenodd;fill:#9E7916;}
	.st1{filter:url(#Adobe_OpacityMaskFilter);}
	.st2{fill-rule:evenodd;clip-rule:evenodd;fill:#FFFFFF;}
	.st3{mask:url(#mask-2_00000026871149077972668930000011592493284493481120_);fill-rule:evenodd;clip-rule:evenodd;fill:#9E7916;}
</style>
<g id="Homepage">
	<g id="Homepage-v3" transform="translate(-120.000000, -18.000000)">
		<g id="Roland-Logo" transform="translate(120.000000, 18.000000)">
			<polygon id="Fill-1" class="st0" points="33.9,51 33.9,58.8 39.1,58.8 39.1,57.6 35.6,57.6 35.6,55.3 38.4,55.3 38.4,54.1 
				35.6,54.1 35.6,52.2 39.1,52.2 39.1,51 			"/>
			<g id="Group-23">
				<path id="Fill-2" class="st0" d="M46.2,59c-1.3,0-2.3-0.5-2.8-1l0.4-1.3c0.5,0.5,1.4,1.1,2.4,1.1c0.8,0,1.4-0.4,1.4-1.1
					c0-0.7-0.4-1-1.7-1.3c-1.7-0.4-2.3-1.3-2.3-2.4c0-1.3,1-2.2,2.7-2.2c1,0,1.8,0.4,2.4,0.8l-0.3,1.1c-0.6-0.4-1.3-0.7-2-0.7
					c-0.8,0-1.2,0.3-1.2,0.9c0,0.5,0.3,0.8,1.4,1.1c1.8,0.5,2.6,1.2,2.6,2.6C49.1,58.2,47.7,59,46.2,59"/>
				<polygon id="Fill-4" class="st0" points="56.9,52.2 56.9,58.8 55.3,58.8 55.3,52.2 52.7,52.2 52.7,51 59.6,51 59.6,52.2 				"/>
				<polygon id="Fill-6" class="st0" points="71.7,58.8 71.7,52.2 70.8,52.2 70.8,51.2 73.2,50.8 73.2,58.8 				"/>
				<path id="Fill-8" class="st0" d="M81.1,51.8c-0.9,0-1.4,0.7-1.4,1.6c0,0.9,0.4,1.6,1.3,1.6c0.7,0,1.4-0.5,1.4-1.4
					C82.5,52.4,81.9,51.8,81.1,51.8 M80.6,59c-0.8,0-1.6-0.3-1.9-0.5v-1.2c0.5,0.3,1.1,0.5,1.7,0.5c1.2,0,2-0.7,2.1-2.7
					c-0.3,0.5-1,0.9-1.8,0.9c-1.4,0-2.5-1-2.5-2.6c0-1.6,1.3-2.7,2.9-2.7c1.3,0,3,0.6,3,3.7C84.1,57.2,82.9,59,80.6,59"/>
				<path id="Fill-10" class="st0" d="M90.9,59c-1,0-1.9-0.4-2.4-0.8v-1.3c0.6,0.5,1.3,1,2.2,1c1,0,1.6-0.6,1.6-1.6
					c0-0.8-0.5-1.4-1.4-1.4c-0.5,0-0.8,0.2-1.1,0.4l-0.6-0.7l2.5-2.4h-3.2V51h5.2v0.7l-2.2,2.2c1.3,0.1,2.3,0.9,2.3,2.5
					C93.9,58,92.6,59,90.9,59"/>
				<path id="Fill-12" class="st0" d="M101.8,52.9l-2.1,2.8h2.1V52.9z M103.3,56.9v1.9h-1.5v-1.9h-3.6v-0.8l3.9-5.2h1.2v4.9h1.4v1.1
					H103.3z"/>
				<path id="Fill-14" class="st0" d="M123.9,29.7c-2.7,3.4-7,3.8-7,0.7c0-3.9,3.7-7.9,7.4-7.9c1.5,0,2.1,0.6,2.1,1.8
					C126.4,25,125.7,27.5,123.9,29.7 M79.9,24.2c0,0-0.7,2.8-2.5,5.3c-2.7,3.7-6.7,3.8-6.9,0.8c-0.3-4.3,4.3-7.9,7.5-8
					C80.4,22.3,79.9,24.2,79.9,24.2 M67.2,5.8c2.5,0.1-3.7,13.8-8,14.1C58.9,20,63.6,5.7,67.2,5.8 M136.5,32c-0.5,0-2.2,1.8-4.7,1.4
					c-1.3-0.2-1.6-1.9-1.6-3c0-2.4,4.6-10.2,6.8-19.2c1.1-4.5,1.5-7.8,1.4-8.4c-0.1-0.6-0.6-0.6-2.4-0.4c-1.6,0.2-2.2,0.6-2.4,0.8
					c-0.1,0.1-0.1,0.1-0.1,0.1c-0.9,7.9-4.2,15.7-4.8,17c-0.2-0.2-1.6-1.9-5.2-1.9c-5.1,0-11.8,5-11.8,12.6c0,0.2,0,0.3,0,0.5
					c-1.3,0.8-3.7,2.1-4.5,0.7c-0.8-1.4,1.7-6.6,2.3-8.4c0.6-1.7,2-5.4-2.7-5.4c-3.8,0-7.2,2.6-9,4.2c0.7-1.9,1.2-3.3,1.3-3.3
					c0.1-0.3-1.3-0.8-2.6-0.8c-2.3-0.1-3,0.4-3.1,0.6l-4.5,11.7c-0.2,0.1-4,3.2-5.2,1.1c-1-1.8,2.9-10,3.9-12.6c0-0.1,0.1-0.2,0-0.3
					c-0.3-0.2-1.4-0.6-2.5-0.6c-1.7,0-2.3,0.2-2.4,0.4c-0.1,0.1-0.1,0.2-0.1,0.2L82.2,20c0,0-1.8-1.6-4.7-1.6
					c-4.5,0-11.6,3.8-12.4,12.1c0,0.1,0,0.3,0,0.4c-1.2,1.2-2.9,2.1-4.7,1.5c-2.2-0.8-1.9-6.5-1.8-7.4C66,22.4,71.9,13.7,71.9,6.3
					C71.9,3,70,1,67.5,1c-7.3,0-12.8,11.3-14.1,21.3c-1,0.4-2.2,0.6-3.4,0.2c-0.3-1.5-1.4-5.3-4.9-5.3c-2,0-3.6,1.6-3.6,3.6
					c-0.1,3.5,3.5,4.9,3.7,4.9c0,1.9-1.5,6.9-5.8,6.9c-2.2,0-3.6-2-3.6-3.9c0-3.5,3.3-5.4,4.1-6.3c0.2-0.2,0.2-0.5,0.1-0.8
					c-0.1-0.6-0.8-2.2-1.7-2.1c-2.1,0-7.7,3.4-7.7,9.5c0,3.8,2.9,8.4,8.5,8.4c9,0,10.9-8.7,10.9-10.7c0.5,0.3,1.9,0.2,3-0.1
					c-0.1,6,1.7,10.8,5.9,10.8c3.3,0,5.7-1.9,6.9-3.3c1,1.9,2.8,3.3,5.2,3.3c4.9,0,7.3-3.2,7.3-3.2s0.4,3.3,3.4,3.3
					c2.4,0,4.7-1.7,5.7-2.6l-0.9,2.3c0,0-0.2,0.3,0.1,0.3c0.3,0,4.4,0,5.4,0c0.3,0,0.3-0.2,0.3-0.2s1-2.6,2.2-5.8
					c2.6-5.6,6.9-8,8.7-8c1.1,0,0.7,1,0.4,1.6c-1,2.5-2.5,6.1-2.5,8.6c0,2.4,1.7,3.9,3.9,3.9c3,0,5.8-1.9,7.4-3.2
					c1,2,2.9,3.2,5.2,3.2c4.5,0,7.3-3.2,7.3-3.2s1.2,3.2,5.2,3.2c4.5,0,7.4-3.8,7.4-4.1C137.7,32.8,137,32,136.5,32"/>
				<g id="Group-18">
					<g id="Clip-17">
					</g>
					<defs>
						<filter id="Adobe_OpacityMaskFilter" filterUnits="userSpaceOnUse" x="0" y="0" width="41.6" height="44">
							<feColorMatrix  type="matrix" values="1 0 0 0 0  0 1 0 0 0  0 0 1 0 0  0 0 0 1 0"/>
						</filter>
					</defs>
					
						<mask maskUnits="userSpaceOnUse" x="0" y="0" width="41.6" height="44" id="mask-2_00000026871149077972668930000011592493284493481120_">
						<g class="st1">
							<polygon id="path-1_00000061459493554948507850000002975890947571544716_" class="st2" points="0,0 41.7,0 41.7,44 0,44 
															"/>
						</g>
					</mask>
					<path id="Fill-16" class="st3" d="M41.1,41c-0.5,0-1.8,0.1-2.5,0.1c-11.8,0-16.2-16.1-16.1-16l-0.1-0.3
						c6.1-1.7,12.4-5.3,12.4-13c0-5.4-6-12.8-18.2-11.6C6.6,1-1,7.4,0.2,14.8c0.5,2.9,3.3,5.1,5,5.1c0.7,0,1-0.5,0.9-0.8
						c-0.5-1.3-0.8-2.6-0.7-4.2c0.3-6.4,6.8-9.7,11.3-10.2c8.4-1,12.2,3.9,12.2,7.2c0,6.5-7.5,8.9-13.9,9c2.2-6.3,4.5-11.9,4.5-12.1
						c0-0.4-1.2-0.6-2.5-0.4c-1.6,0.1-2.7,0.6-3,0.8c-0.2,0.1-0.4,0.3-0.4,0.5c-0.6,1.5-2.8,7.1-4.8,12.8c-2.3,6.6-4.8,14-4.9,14.3
						c-0.1,0.3,0.1,0.6,0.4,0.6c0.3,0,3.9,0,4.9,0c0.4,0,0.5-0.4,0.5-0.4s1.2-3.7,3.5-10.8c0.9,0,2-0.1,3.2-0.2l0,0.1
						c1.2,4.3,7.3,18,18.9,18c3.1,0,6.3-1,6.3-2.2C41.6,41.3,41.5,41,41.1,41"/>
				</g>
				<path id="Fill-19" class="st0" d="M140.5,28.5c0.5,0,0.7-0.2,0.7-0.6c0-0.4-0.3-0.6-0.7-0.6h-0.7v1.2H140.5z M139.2,26.7h1.4
					c0.8,0,1.3,0.4,1.3,1.1c0,0.6-0.3,0.9-0.8,1.1l0.9,1.4h-0.7l-0.8-1.3h-0.6v1.3h-0.6V26.7z"/>
				<path id="Fill-21" class="st0" d="M140.5,25.5c-1.7,0-3,1.3-3,3c0,1.7,1.4,3,3,3c1.7,0,3-1.3,3-3
					C143.5,26.9,142.1,25.5,140.5,25.5 M140.5,32.1c-2,0-3.6-1.6-3.6-3.6c0-2,1.6-3.6,3.6-3.6c2,0,3.6,1.6,3.6,3.6
					C144,30.5,142.4,32.1,140.5,32.1"/>
			</g>
		</g>
	</g>
</g>
</svg>
