<svg xmlns="http://www.w3.org/2000/svg" width="263.5" height="106.8" viewBox="0 0 263.5 106.8"><g data-name="egglands_best-logo+tag"><path data-name="Path 555" d="M250.9 18H81.5a50 50 0 1 0 2.9 75.2h166.5a12.7 12.7 0 0 0 12.6-12.7V30.7A12.7 12.7 0 0 0 251 18z" fill="#1c3687"/><path data-name="Path 556" d="M68 20.6h-.2v-.1A40.7 40.7 0 1 0 70 92h.1l.1-.1A40.7 40.7 0 0 0 68 20.6z" fill="#fff"/><path data-name="Path 557" d="M66.5 21.8h-.2A39 39 0 1 0 68.2 91l.2-.1a38.9 38.9 0 0 0-2-69z" fill="#ed2d24"/><path data-name="Path 558" d="M52.9 87.4c-.6 0-1 .3-.9.9l.2 1.7h.3c1 0 1.8-.7 1.8-1.6a1.2 1.2 0 0 0-1.4-1zM23.2 77.2l1.4 1.6 1-2.2zM32.6 30l-2-1.4.2 2.5zM20.4 49.6a2.6 2.6 0 0 1-1 0c-.4-.2-.7-.4-.5-.9s.4-.4.8-.3a1.4 1.4 0 0 0 .9 0c-.1-.9-1-1.5-2.3-2-1.7-.4-3-.1-3.3 1.2s.4 2.2 2.2 2.7c1.5.5 2.6.3 3.1-.7zm13.8 33.5c-.4-.2-.6-.1-.8.1l-1.2 2c.9.3 2 .4 2.4-.4a1.2 1.2 0 0 0-.4-1.7zm8.8 3.6c-.4 0-.6.1-.7.4l-.5 2.2c1 0 2-.2 2.2-1.1a1.2 1.2 0 0 0-1-1.5zm37-26.3l3.9.1c.6 0 .7-.1.8-.6a2.7 2.7 0 0 0-5.5 0c0 .4.1.5.8.5zM63.4 84.1l-.2.1c0 .1 0 0 0 0-1 .7-1 1.9-.2 3.4.8 1.6 1.9 2.3 3 1.6h.2c1.1-.8 1.1-2 .3-3.5-.9-1.6-2-2.2-3.1-1.6z" fill="#ed2d24"/><path data-name="Path 559" d="M147.7 78l-.3.2a1 1 0 0 0-.5.9c0 .8.6 1 1.1 1h8.9a5.8 5.8 0 0 0 4.2-1.5 6 6 0 0 0 1.8-4.5 5.6 5.6 0 0 0-4.4-5.6 5.6 5.6 0 0 0 3.2-4.8 4.5 4.5 0 0 0-1.8-3.8 5.8 5.8 0 0 0-3.6-.9H148c-.5 0-1.1.2-1.1 1a1 1 0 0 0 .5 1h.3c.5.4.4 1 .4 1.7v13.7c0 .6 0 1.3-.4 1.6zm4.8-16.5c.4-.5 1.2-.5 1.7-.5 1.4 0 3.2.3 3.2 2.6 0 3-3.1 4.5-5.1 5V63a3 3 0 0 1 .2-1.6zm-.2 14.4v-5l3.4-1a4.3 4.3 0 0 1 2.7 4c0 3-2.1 4-4.2 4a2.1 2.1 0 0 1-1.6-.4 2.4 2.4 0 0 1-.3-1.6zm12.6.5V62.7c0-.6 0-1.3-.4-1.6l-.3-.2a1 1 0 0 1-.5-.9c0-.8.6-1 1.1-1h10.7c.4 0 1 0 1.3.4a8 8 0 0 1 .4 2.7c0 .7-.2 1.2-.8 1.2-.5 0-.8-.4-1.1-.8a2.6 2.6 0 0 0-1.4-1.2 9.8 9.8 0 0 0-2.3-.2 5.8 5.8 0 0 0-2 .2 1 1 0 0 0-.5.9v5.3h3.4c1.7 0 1.4-1 2.2-1 .8 0 .8 1.2.8 2 0 .7.1 2.3-.8 2.3-.8 0-.6-1-2.2-1h-3.4v5c0 3 .2 3.2 3.4 3.2 1.4 0 2.3-.1 3.2-1.4.4-.6 1-1.4 1.5-1.4a1 1 0 0 1 .9 1 11 11 0 0 1-.5 2.5c-.3 1.2-.5 1.4-1.6 1.4h-11.2c-.5 0-1.1-.2-1.1-1a1 1 0 0 1 .5-1l.3-.1c.5-.3.4-1 .4-1.6zm13.4-1c0-.8.5-1.6 1.1-1.6.7 0 1 .5 1.3 1.1a6.5 6.5 0 0 0 1.6 2.3 4.8 4.8 0 0 0 3 1 3.4 3.4 0 0 0 3.5-3.3 2.5 2.5 0 0 0-1.2-2.3 11.9 11.9 0 0 0-3-1A9.3 9.3 0 0 1 181 70a6 6 0 0 1-2-4.6 7.2 7.2 0 0 1 2.2-5.2 6.7 6.7 0 0 1 4.7-1.6 9.6 9.6 0 0 1 5 1.5 1.4 1.4 0 0 1 .7.8 13.7 13.7 0 0 1 .1 2.6c0 .7-.3 1.2-.8 1.2-1.3 0-1.1-4.1-4.9-4.1a2.8 2.8 0 0 0-2.8 2.8c0 2 1.5 2.6 2.9 3l1.8.6a8 8 0 0 1 3.4 1.8 6.2 6.2 0 0 1 1.6 4.2 7.5 7.5 0 0 1-2.2 5.5 7.2 7.2 0 0 1-5.2 2 8.8 8.8 0 0 1-4.4-1.1c-1.1-.7-2.7-2.2-2.7-4zm23.5-12.7v13.7c0 .6 0 1.3.4 1.6l.3.2a1 1 0 0 1 .6.9c0 .8-.7 1-1.2 1h-4.3c-.5 0-1.2-.2-1.2-1a1 1 0 0 1 .6-1l.2-.1c.5-.3.4-1 .4-1.6V62.7c0-1 .1-1.6-.9-1.6-2.6 0-2.6 2.4-3.7 2.4-.5 0-.9-.4-.9-1a13.6 13.6 0 0 1 .7-3.3c.2-.2.8-.2 1-.2h11.8c.3 0 .9 0 1 .2a6.3 6.3 0 0 1 .6 2.3 5.8 5.8 0 0 1 .1 1c0 .6-.3 1-.8 1-1 0-1.1-2.4-3.8-2.4-1 0-.9.6-.9 1.6zm-97.1-13.2V35.7c0-.6 0-1.2-.4-1.6l-.3-.1a1 1 0 0 1-.5-1c0-.7.6-1 1.1-1h10.7c.4 0 1 0 1.3.4a8 8 0 0 1 .4 2.7c0 .7-.2 1.3-.8 1.3-.5 0-.8-.4-1-.9a2.6 2.6 0 0 0-1.5-1.2 10 10 0 0 0-2.3-.2 6 6 0 0 0-2 .2 1 1 0 0 0-.5.9v5.3h3.5c1.6 0 1.3-1 2.1-1s.8 1.2.8 2c0 .7.1 2.4-.8 2.4-.8 0-.6-1-2.1-1h-3.5v5c0 3 .2 3.1 3.4 3.1a3.3 3.3 0 0 0 3.2-1.4c.4-.5 1-1.4 1.5-1.4a1 1 0 0 1 .9 1 11.1 11.1 0 0 1-.5 2.6c-.3 1.2-.5 1.3-1.6 1.3h-11.2c-.5 0-1.1-.2-1.1-1a1 1 0 0 1 .5-.9l.3-.2c.5-.3.4-1 .4-1.5zm19-6.7c0 3.7 1.6 8.4 5 8.4a3.1 3.1 0 0 0 2.5-1.1 6 6 0 0 0 .6-3.4c0-1.9 0-2.4-1.7-2.4-.7 0-1.8.2-1.8-1.1 0-1.2 1-1.2 1.7-1.2h3.7a6.4 6.4 0 0 1 1.8.2c.3.2.4.4.4.8a12 12 0 0 1 0 1.3l-.2 2a14.6 14.6 0 0 0 .2 2.9 5.2 5.2 0 0 1 .1.5c0 1.3-2 2.3-2.8 2.7a10.2 10.2 0 0 1-4.7 1.1c-5.1 0-9.3-3.9-9.3-10.6 0-7 4.4-11.3 9.7-11.3a9.7 9.7 0 0 1 5.1 1.6 2.6 2.6 0 0 1 1 1 10.2 10.2 0 0 1 .2 2.6v.7c-.1.5-.4.9-.9.9s-.7-.4-.9-1A6.2 6.2 0 0 0 132 35a3.8 3.8 0 0 0-2.7-1.2c-4 0-5.6 4.8-5.6 9zm18.3 0c0 3.7 1.6 8.4 5 8.4a3.1 3.1 0 0 0 2.4-1.1 6 6 0 0 0 .7-3.4c0-1.9-.1-2.4-1.7-2.4-.7 0-1.8.2-1.8-1.1 0-1.2 1-1.2 1.7-1.2h3.7a6.4 6.4 0 0 1 1.8.2c.3.2.4.4.4.8a12 12 0 0 1 0 1.3l-.2 2a14.4 14.4 0 0 0 .2 2.9 5.2 5.2 0 0 1 0 .5c0 1.3-2 2.3-2.7 2.7a10.2 10.2 0 0 1-4.7 1.1c-5.2 0-9.3-3.9-9.3-10.6 0-7 4.3-11.3 9.6-11.3a9.7 9.7 0 0 1 5.2 1.6 2.6 2.6 0 0 1 1 1 10.2 10.2 0 0 1 .2 2.6v.7c-.1.5-.4.9-.9.9s-.7-.4-1-1a6.2 6.2 0 0 0-1.3-2.4 3.8 3.8 0 0 0-2.7-1.2c-4 0-5.6 4.8-5.6 9zm13.3-.2a3.3 3.3 0 0 1 3.3-3.5 3.4 3.4 0 0 1 3.3 3.5 3.3 3.3 0 0 1-3.2 3.4 3.4 3.4 0 0 1-3.4-3.4zm23.3 9.6c0-1-1.2-.8-1.2-2a25.4 25.4 0 0 1 .9-3.9h6.4l.1.5c.2.6 1 3.4 1 4 0 .6-1 .5-1 1.4s.8 1 1.3 1h4c.5 0 1-.2 1-1a1 1 0 0 0-.3-.9 1.4 1.4 0 0 1-.7-1l-.8-3-4.8-13.7c-.4-1.4-.7-1.8-2-1.8-.8 0-1.3.1-1.7 1l-1.7 4.4c-1.1 3.3-2.3 6.5-3.2 10l-.4 1.2a.8.8 0 0 0-.5-.2c-.6 0-1.1.9-1.5 1.4a3.3 3.3 0 0 1-3.2 1.4h-.9c-1.3 0-1.6 0-1.6-1.7V35.7c0-.6-.1-1.2.4-1.6l.3-.1a1 1 0 0 0 .5-1c0-.7-.6-1-1.1-1h-4.4c-.5 0-1.1.3-1.1 1a1 1 0 0 0 .5 1l.3.1c.5.4.4 1 .4 1.6v13.8c0 .6 0 1.2-.4 1.5l-.3.2a1 1 0 0 0-.5 1c0 .7.6 1 1.1 1h10.3a3.2 3.2 0 0 0 .7-.1 4.1 4.1 0 0 0 1 0h1.3c.6 0 1.8.2 1.8-1zm2.9-15.9l2.4 7.2.1.4H179zm26.3-2.4c-.4.2-.7.3-.9.8a5.2 5.2 0 0 0-.1 1v15.6c0 1.6 0 2-1.5 2a1.2 1.2 0 0 1-1.1-.4 31.8 31.8 0 0 1-1.7-3l-7.2-12.4v12a5.2 5.2 0 0 0 .1 1c.2.5.5.6.9.8a.9.9 0 0 1 .6 1c0 .9-1 .8-1.6.8h-2c-.5 0-1.6.1-1.6-.9a.9.9 0 0 1 .6-1c.4-.1.7-.2.9-.7a5.2 5.2 0 0 0 .1-1V36.8c0-1.2.2-2.3-1-2.7-.4-.2-.8-.4-.8-1 0-1 .7-1 1.3-1h3.2c.8 0 1 0 1.5.7a71.4 71.4 0 0 1 4.2 7l3.1 5.4v-9.5a5.2 5.2 0 0 0 0-1c-.3-.5-.6-.6-1-.8a.9.9 0 0 1-.5-1c0-1 1-.8 1.5-.8h2c.6 0 1.6-.1 1.6.9a.9.9 0 0 1-.6 1zM210 51l-.2.2a1 1 0 0 0-.6 1c0 .7.7 1 1.2 1h7.4a7.9 7.9 0 0 0 6.5-3 12.7 12.7 0 0 0 2.3-7.8 11 11 0 0 0-3-8c-2-2-4.2-2.3-6.6-2.3h-6.6c-.5 0-1.2.2-1.2 1a1 1 0 0 0 .6.9l.2.1c.5.4.5 1 .5 1.6v13.8c0 .6 0 1.2-.5 1.5zm4.6-14.4c0-1.8 0-2.5 1.7-2.5 4 0 5.8 4.1 5.8 8.7 0 4.4-1.8 8.3-5.7 8.3-1.7 0-1.8-.8-1.8-2.8V36.6zm29.5 11.3a2.5 2.5 0 0 0-1.2-2.2 12 12 0 0 0-2.9-1 9.3 9.3 0 0 1-3.7-1.6 6 6 0 0 1-2-4.6 7.2 7.2 0 0 1 2.2-5.2 6.7 6.7 0 0 1 4.6-1.7 9.6 9.6 0 0 1 5 1.5 1.4 1.4 0 0 1 .7.9 13.7 13.7 0 0 1 .1 2.6c0 .7-.2 1.1-.8 1.1-1.2 0-1-4-4.8-4a2.8 2.8 0 0 0-3 2.7c0 2.1 1.7 2.7 3 3.1l1.8.6a8 8 0 0 1 3.4 1.7 6.2 6.2 0 0 1 1.6 4.3 7.5 7.5 0 0 1-2.2 5.5 7.2 7.2 0 0 1-5.1 2 8.9 8.9 0 0 1-4.4-1.1c-1.2-.7-2.8-2.3-2.8-4 0-.8.5-1.6 1.2-1.6.6 0 1 .5 1.2 1a6.6 6.6 0 0 0 1.6 2.3 4.7 4.7 0 0 0 3 1A3.4 3.4 0 0 0 244 48zm-14.5-10a6.3 6.3 0 0 0 1.6-3.2 2.7 2.7 0 0 1-.7 0 1.8 1.8 0 0 1-1.7-2 2.2 2.2 0 0 1 2.3-2.2c1.3 0 2.3 1.3 2.3 3a6.5 6.5 0 0 1-1.9 4.3c-.3.3-1 1.1-1.4 1.1a.6.6 0 0 1-.6-.6.6.6 0 0 1 .1-.3zm-173 18.4c2.3-1.6 5.8-4.7 4.6-7.9-1-2.3-3.3-1.8-5.2-1-.7.2-1.7.6-2 1.3a2.8 2.8 0 0 0 .3 1.8l2.2 5.8z" fill="#fff"/><path data-name="Path 560" d="M62.8 34.3h-.1l-.1-.1a27 27 0 1 0 0 47.1h.2a27 27 0 0 0 0-47z" fill="#fff"/><path data-name="Path 561" d="M59.4 64c.3.6.5 1.2 1.2 1.5a3.1 3.1 0 0 0 2-.3h.2c2.7-1 5-3.3 3.8-6.4a4.7 4.7 0 0 0-3.8-2.9h-.2a5.6 5.6 0 0 0-1 0l-4.1 2.8z" fill="#fff"/><g data-name="Group 96" fill="#1c3687"><path data-name="Path 562" d="M88.3 98.5c0-.7-.4-1.1-1.3-1.1h-1.6v4h.6v-1.8h.7l1 1.7h.7l-1.1-1.7a1 1 0 0 0 1-1zm-1.6.6H86V98h.9c.4 0 .8 0 .8.6s-.5.6-1 .6z"/><path data-name="Path 563" d="M86.7 96a3.4 3.4 0 1 0 3.4 3.3 3.3 3.3 0 0 0-3.4-3.3zm0 6.2a2.9 2.9 0 1 1 2.8-2.9 2.8 2.8 0 0 1-2.8 3z"/></g><path data-name="Path 564" d="M21.4 49.5a1.2 1.2 0 0 0 0-.2 4.7 4.7 0 0 0 2-2.6c.2-.5.4-1.4-.2-1.6-.4-.1-.7.2-.9.6l-.2 1.1a2.5 2.5 0 0 1-.4.8 3.8 3.8 0 0 0-2.5-4c-2.3-.6-4.3 1.2-5 3.7s-.2 5.2 2.1 5.9 4.3-1.2 5-3.7zm-4.2.8c-1.8-.5-2.6-1.4-2.2-2.7s1.6-1.7 3.3-1.1c1.4.4 2.2 1 2.3 1.9a1.4 1.4 0 0 1-1 0c-.3-.1-.6-.2-.7.3s.1.7.5.8a2.6 2.6 0 0 0 1 .1c-.5 1-1.6 1.2-3.2.7zM18.6 38l1.6-2c.3-.5.5-.5.8-.3.3.2-.3.6.1 1 .2 0 1.6 1.5 2.3 2 .8.6 2 1.3 2.9 0 .8-1 .5-1.8-.6-2.6l-2.5-1.8c-.5-.4-.9.4-1.3 0-.2 0-.2-.3.1-.7l1-1.2c.3-.4.5-.5.7-.3.4.3-.2.7.2 1l2.5 1.9c1.3 1 2.3 2.2.1 4.9-1.6 2-3 2.5-5 1l-2.2-2c-.4-.3-.6.3-1 0-.2-.1-.1-.4.3-1zM30.2 34c0 .2-.4.6-.3.9.2.2.4.2.7 0l1.2-.7c.4-.3.5-.5.3-.7-.2-.4-.6 0-.8-.2a4.5 4.5 0 0 1-.3-1.2l2.5-1.6a10.8 10.8 0 0 1 1.1 1s-.3.3-.1.6c.1.2.4.1.9-.1l2-1.3c.4-.3.6-.5.4-.7-.2-.4-.5 0-.8-.3L32 26.6c-.7-.4-.8-.4-1.7.2a1.4 1.4 0 0 0-.8 1.5c0 1.1.6 5.2.8 5.8zm2.4-4.1L30.8 31l-.3-2.5zm5.2-6.6c0-.3 0-.4.7-.6l2.5-.6c.6-.1.8 0 .8.3.1.5-.5.4-.4.9l1 4.4c.1.6.3.6 1.1.4 1.4-.4 1-1.4 1.8-1.6a.5.5 0 0 1 .6.3 4.1 4.1 0 0 1 0 1.4c-.2.2-.3.3-.8.4l-5 1.2c-.6.1-.8 0-.8-.2-.1-.5.5-.5.4-1l-1-4.7c-.2-.5-.8-.1-.9-.6zm10.3-2.2h2.6c.6-.1.7 0 .7.3 0 .5-.6.3-.6.8v4.8c.1.6.7.3.7.8 0 .3-.1.4-.7.4h-2.6c-.6 0-.8 0-.8-.3 0-.5.7-.3.6-.8v-4.8c0-.6-.7-.3-.7-.8 0-.3.2-.4.8-.4zm6.5 1.3a3.5 3.5 0 0 1 .6-1h.7l6 1.6.6.3a3.5 3.5 0 0 1 0 1.2.5.5 0 0 1-.7.3c-.7-.1-.3-1-1.3-1.2-.3-.1-.5 0-.6.3l-1.2 4.5c-.1.5.6.5.4 1 0 .2-.2.3-.8.1l-2.5-.6c-.6-.2-.7-.4-.6-.6 0-.5.6-.1.8-.6l1.2-4.6c0-.3 0-.4-.3-.5-1-.3-1.2.6-1.8.4a.5.5 0 0 1-.5-.7zM66.7 25l2.6 1.6c.5.4.5.6.3.8-.1.2-.6 0-.7.2-.3.4 0 2.6 0 2.9a7.9 7.9 0 0 0 2.8-1.1c0-.2-.3-.5-.2-.8.2-.2.4-.2.9 0l.9.6c.5.3.6.5.4.8-.1.3-.5.1-1 .3L69 31.6 68 33c-.3.4.4.6 0 1 0 .2-.3.2-.8 0l-2.1-1.5c-.5-.3-.6-.5-.5-.7.3-.5.7 0 1-.4l1-1.4a28 28 0 0 1-.4-3.7c0-.8-.6-1-.3-1.4.1-.2.4-.2.8 0zM28 77.7c.2-.8.2-.8-.4-1.7a1.4 1.4 0 0 0-1.7-.6L20.2 77c-.3 0-.7-.3-1-.1-.2.2-.1.4.1.7l.8 1c.4.4.6.5.8.3.3-.3-.2-.6.1-.9a4.3 4.3 0 0 1 1.2-.4l1.9 2.3a11.2 11.2 0 0 1-.8 1.2c-.2 0-.5-.2-.7 0-.2 0-.1.4.2.8l1.6 2c.2.3.5.4.7.2.3-.2 0-.5.2-.8l2.6-5.5zm-3.3 1.1l-1.4-1.6 2.5-.6zm10.6 4l-3.3-2.2c-.6-.3-.8-.3-.9 0-.3.4.4.5 0 1l-2.5 4c-.3.5-.7 0-1 .3-.1.3 0 .5.4.8l2.3 1.5c.5.3.7.2.8 0 .3-.4-.4-.6-.1-1l.8-1.3c2.6 1.5 4.6 1.9 5.4.6.8-1.3-.1-2.5-2-3.7zm-.6 2c-.5.8-1.5.7-2.4.3l1.2-1.9c.2-.2.4-.3.8-.1a1.2 1.2 0 0 1 .4 1.7zm9.3 1.3l-3.9-.9c-.6-.1-.8 0-.8.2-.1.5.5.4.4 1l-1 4.7c-.2.5-.8.1-.9.6 0 .2 0 .4.7.6l2.6.6c.6.1.8 0 .8-.3.1-.5-.6-.4-.5-.9l.3-1.5c3 .5 5 .2 5.3-1.3.3-1.5-1-2.3-3-2.8zm.1 2c-.2 1-1.2 1.3-2.2 1.2l.6-2.2c0-.3.2-.5.6-.4a1.2 1.2 0 0 1 1 1.5zm13.4 4a6.2 6.2 0 0 0-1.7-2.1 2.3 2.3 0 0 0 1.5-2c-.2-1.4-1.6-1.7-3-1.5l-5 .5c-.6 0-.8.2-.7.5 0 .5.6.2.7.7l.5 4.8c0 .5-.6.4-.6.9 0 .2.2.3.8.3l2.6-.3c.6 0 .7-.2.7-.5 0-.5-.6-.2-.7-.7l-.2-1.7.7-.2a5 5 0 0 1 1.4 2c0 .2-.4.3-.3.6 0 .3.2.3.8.3l2.6-.3c.7 0 .8-.2.8-.4 0-.4-.4-.2-.9-1zm-5-2h-.2l-.2-1.8c0-.6.3-.8.9-.9a1.2 1.2 0 0 1 1.4 1c0 .9-.8 1.5-1.8 1.6zm10.7-6.8H63c-2.3 1.3-3.8 3.6-2.7 5.7 1.2 2.1 4 2.2 6.2 1l.2-.1h.1l.1-.1c2-1.3 3.3-3.5 2.2-5.5-1-2-3.7-2.2-6-1zm3.2 5.8h-.1l-.1.1c-1.2.7-2.3 0-3.1-1.6-.9-1.5-.8-2.7.2-3.3v-.1c0-.1.1 0 .2 0 1.2-.7 2.3-.1 3.1 1.5.8 1.6.8 2.7-.2 3.4zm11-8.7c.1.5 0 .6-.5 1.3a1.4 1.4 0 0 1-1.6.6 19.8 19.8 0 0 1-5.4-1.5c-.7-.3-.9 0-1.2-.2-.1-.1-.1-.4.2-.7l1.7-2c.4-.4.6-.5.8-.3.4.3-.2.7.2 1 .5.4 1.6.6 4.7 1.3-1.2-3.2-1.7-3.7-2.1-4s-1 .3-1.3 0c-.3-.2-.2-.5.4-1l.5-.7c.5-.6.8-.8 1-.5.4.2 0 .6.2.9.9 1.7 2.5 4.7 2.5 5.8zm-2.2-8.7l2.2-5.3c.2-.7.5-.9.9-.7l.4.2a.6.6 0 0 1 .4.7c-.4.9-.8-.1-1.6 2-.4.8-.4 1 .3 1.2l1 .5.6-1.4c.4-.8 0-.8.1-1.3.1-.3.3-.4 1-.1s.8.5.7.8c-.2.4-.5.1-.9 1l-.5 1.3 1.4.6c.8.3 1 .2 1.4-.8.8-2-.2-1.8 0-2.6a.5.5 0 0 1 .8-.4 3.1 3.1 0 0 1 .9.6c.1.2 0 .5-.1 1l-2.3 5.4c-.2.6-.4.7-.6.6-.5-.2 0-.7-.5-.9l-4.5-1.8c-.5-.2-.5.5-1 .3-.2-.1-.3-.3 0-.9zm3.5-7.8c.6 0 .3-.6.9-.6h4.8c.5 0 .3.7.8.7.2 0 .4-.2.4-.8v-4.1c.1-2.6-1-4.7-3.5-4.8s-3.6 2-3.7 4.7V63c0 .6 0 .8.3.8zm3.4-6.6a2.6 2.6 0 0 1 2.7 2.6c0 .5-.2.6-.8.6h-4c-.5 0-.7-.2-.7-.7a2.6 2.6 0 0 1 2.8-2.5z" fill="#fff"/><path data-name="Path 565" d="M51.6 64.6c.2 1.4 0 1.6-1.4 2.2l-14.6 5.9c-.7.3-1.6.4-2-.4-.1-.6.1-.9.4-1.3l.3-.3c.5-.6.1-1.2-.2-1.9l-5.7-14.3c-.3-.6-.5-1.4-1.2-1.4h-.4c-.5-.1-1-.2-1.2-.7-.3-.8.4-1.4 1.1-1.6l14-5.7c.5-.2 1.3-.6 1.8-.3a7.4 7.4 0 0 1 1.7 2.6c.2.7.2 1.4-.6 1.8a1.9 1.9 0 0 1-1.7-.4 3.6 3.6 0 0 0-2.4-.4 17 17 0 0 0-3.1 1 10.2 10.2 0 0 0-2.4 1.2 1.1 1.1 0 0 0-.4 1.2l2.3 5.5 4.5-1.8c2.1-.8 1.3-1.8 2.3-2.2 1.1-.5 1.6.9 2 1.6.3.8 1.1 2.5-.1 3-1 .4-1.2-.8-3.2 0l-4.6 1.9L39 65c1.3 3 1.7 3.1 5.8 1.5 1.8-.7 3-1.3 3.7-3.2.2-.8.5-2 1.3-2.3a1.1 1.1 0 0 1 1.5.6 10.3 10.3 0 0 1 .4 3zM47 48.4l11-4.2a10.5 10.5 0 0 1 4.6-1h.2l.2.1a4.9 4.9 0 0 1 4 3c.9 2.5-.7 5.1-2.4 6.7 3.3-.6 6.7.4 8 3.8a6.2 6.2 0 0 1-.5 5.5 9.4 9.4 0 0 1-4.9 3.7l-4.4 1.7h-.2l-7 2.8c-.7.2-1.6.3-2-.5-.2-.5.1-.8.4-1.2l.3-.3c.5-.6.1-1.3-.1-1.9l-5.6-14.4c-.2-.7-.4-1.4-1.2-1.5H47c-.4-.1-.8-.2-1-.7-.4-.8.4-1.4 1-1.6zm14.6 7.5l-4.1 2.8 2 5.2c.2.7.4 1.3 1 1.6a3.1 3.1 0 0 0 2-.3H62.9c2.8-1 5-3.3 3.8-6.4a4.7 4.7 0 0 0-3.8-2.8h-.2a5.6 5.6 0 0 0-1 0zm-7.3-5.4l2.2 5.8c2.4-1.6 5.9-4.7 4.7-7.9-1-2.3-3.4-1.8-5.2-1-.7.2-1.7.6-2 1.3a2.8 2.8 0 0 0 .3 1.8z" fill="#ed2d24"/><path data-name="Path 566" d="M118 7.4h2.6c1.3 0 1.1.6 1.7.6.7 0 .7-1 .7-1.5 0-.4 0-1.2-.7-1.2s-.4.6-1.7.6H118V3c0-.3 0-.9.3-1.1a3.3 3.3 0 0 1 1.5-.3c1.4 0 2.2 0 3.1 1.1a1.1 1.1 0 0 0 .8.5c.6 0 .5-.6.5-1-.1-.5-.1-1.4-.5-1.7a2.7 2.7 0 0 0-1.2-.1h-7.8c-.4 0-.9.1-.9.6 0 .3.2.4.4.6h.2c.4.3.4.7.4 1v8.6c0 .4 0 .8-.4 1l-.2.1c-.2.2-.4.3-.4.6 0 .5.5.6.9.6h3.4c.4 0 .9-.1.9-.6 0-.3-.2-.4-.5-.6h-.2c-.4-.3-.3-.7-.3-1V7.3z" fill="#1c3687"/><path data-name="Path 567" d="M126.5 7.7l2-4.8 2 4.5v.3zm-1.6 5.7c.4 0 1.3.1 1.3-.6s-.9-.4-.9-1.2a13.1 13.1 0 0 1 .7-2.4h5l.1.2a23.7 23.7 0 0 1 .7 2.5c0 .4-.7.4-.7 1s.6.5 1 .5h3c.5 0 1 0 1-.6a.6.6 0 0 0-.3-.5 1 1 0 0 1-.6-.6l-.6-1.9-3.7-8.6c-.4-.9-.6-1-1.6-1-.7 0-1 0-1.3.6l-1.3 2.7a63.1 63.1 0 0 0-2.6 6.2l-.6 2a1 1 0 0 1-.5.6c-.2.1-.4.3-.4.5 0 .7.8.6 1.3.6h1zm15.8-10.3a1.7 1.7 0 0 1 .2-1.2 2.1 2.1 0 0 1 1.4-.4c1.4 0 2.6.7 2.6 2.3 0 2-2.5 2.7-4.2 2.8zm0 4.8l1.8-.3c.7.8 2.2 3.3 2.2 4.2 0 .5-.8.5-.8 1 0 .6.6.6 1 .6h3.6c.3 0 1 0 1-.5 0-.3-.3-.4-.5-.5a1.7 1.7 0 0 1-.9-1.1 13.3 13.3 0 0 0-2.5-4.4c1.5-.7 2.8-1.8 2.8-3.5a3 3 0 0 0-1.7-2.7 6.8 6.8 0 0 0-3-.4h-6.4c-.4 0-.9.1-.9.6 0 .3.2.4.5.6h.2c.4.3.3.7.3 1v8.6c0 .4 0 .8-.3 1l-.2.1c-.3.2-.5.3-.5.6 0 .5.5.6 1 .6h3.4c.4 0 .8-.1.8-.6 0-.3-.2-.4-.4-.6h-.2c-.4-.3-.3-.7-.3-1z" fill="#1c3687" fill-rule="evenodd"/><path data-name="Path 568" d="M157.6 8l-2.5-6.5c-.2-.7-.3-1.2-1.2-1.2h-3.5c-.5 0-1 0-1 .6 0 .4.3.5.7.6a.9.9 0 0 1 .7.7 1 1 0 0 1 0 .4v8.6a2.8 2.8 0 0 1 0 .6c-.2.3-.5.4-.8.5-.3 0-.4.2-.4.6 0 .6.8.5 1.2.5h1.6c.4 0 1.2 0 1.2-.5 0-.4-.2-.5-.5-.6-.2-.1-.5-.2-.6-.5a2.5 2.5 0 0 1-.1-.6V3.5l3.1 7.4c.3.7.6.8 1.4.8.9 0 1-.4 1.3-1.1l2.9-7.3v7.8c0 .4 0 .8-.3 1l-.2.1c-.3.2-.5.3-.5.6 0 .5.5.6 1 .6h3.3c.4 0 .9-.1.9-.6 0-.3-.2-.4-.4-.6h-.2c-.4-.3-.4-.7-.4-1V2.4c0-.5 0-.8.6-1 .3 0 .7-.1.7-.6a.6.6 0 0 0-.6-.6h-3.4c-.8 0-.9.2-1.2.9L157.6 8zm19-.6h2.6c1.2 0 1 .6 1.7.6s.6-1 .6-1.5c0-.4 0-1.2-.6-1.2s-.4.6-1.7.6h-2.6V3c0-.4 0-.9.2-1.1a3.3 3.3 0 0 1 1.6-.3c1.3 0 2.1 0 3 1.1a1 1 0 0 0 .8.5c.6 0 .5-.6.5-1 0-.5 0-1.4-.5-1.7a2.7 2.7 0 0 0-1.2-.1h-7.8c-.4 0-.8.1-.8.6 0 .3.2.4.4.6h.2c.4.3.3.7.3 1v8.6c0 .4 0 .8-.3 1l-.2.1c-.2.2-.4.3-.4.6 0 .5.4.6.8.6h3.4c.4 0 1-.1 1-.6 0-.3-.3-.4-.5-.6h-.2c-.4-.3-.3-.7-.3-1V7.3z" fill="#1c3687"/><path data-name="Path 569" d="M187.7 3a1.8 1.8 0 0 1 .3-1 2.1 2.1 0 0 1 1.3-.5c1.5 0 2.6.7 2.6 2.3 0 2-2.5 2.7-4.2 2.8V3zm0 5l1.8-.4c.7.8 2.3 3.3 2.3 4.2 0 .5-.8.5-.8 1 0 .6.6.6 1 .6h3.6c.3 0 1 0 1-.5 0-.3-.3-.4-.5-.5a1.8 1.8 0 0 1-.9-1.1 13.3 13.3 0 0 0-2.5-4.4c1.5-.7 2.7-1.8 2.7-3.5a3 3 0 0 0-1.6-2.7 6.8 6.8 0 0 0-3-.4h-6.4c-.4 0-.9.1-.9.6 0 .3.2.4.4.6h.2c.4.3.4.7.4 1v8.6c0 .4 0 .8-.4 1l-.2.1c-.2.2-.4.3-.4.6 0 .5.5.6.9.6h3.4c.4 0 1-.1 1-.6 0-.3-.3-.4-.5-.6h-.2c-.4-.3-.4-.7-.4-1V7.8z" fill="#1c3687" fill-rule="evenodd"/><path data-name="Path 570" d="M201 7h2.7c1.3 0 1.1.6 1.7.6.7 0 .6-1 .6-1.5 0-.4 0-1.2-.6-1.2s-.4.7-1.7.7H201V2.2a.6.6 0 0 1 .5-.5 5.7 5.7 0 0 1 1.5-.2 9.5 9.5 0 0 1 1.8.2 2 2 0 0 1 1 .7c.3.3.5.6 1 .6.4 0 .6-.4.6-.8a4.1 4.1 0 0 0-.3-1.7c-.3-.3-.7-.2-1-.2h-8.4c-.4 0-.9 0-.9.6 0 .3.2.4.4.6h.2c.4.3.4.7.4 1v8.6c0 .4 0 .8-.4 1l-.2.1c-.2.2-.4.3-.4.6 0 .5.5.6.9.6h8.8c.8 0 1 0 1.2-.8a5.7 5.7 0 0 0 .4-1.6.6.6 0 0 0-.7-.6c-.5 0-.9.5-1.2.8a2.9 2.9 0 0 1-2.5 1c-2.5-.1-2.7-.2-2.7-2zM214.6 5c-1-.3-2.2-.6-2.2-2 0-1 1.2-1.7 2.2-1.7 3 0 2.8 2.6 3.8 2.6a.6.6 0 0 0 .7-.7 6.8 6.8 0 0 0-.2-1.6 1 1 0 0 0-.4-.6 9 9 0 0 0-4-1 6 6 0 0 0-3.6 1.1 4.1 4.1 0 0 0-1.8 3.2 3.5 3.5 0 0 0 1.6 3 8.3 8.3 0 0 0 3 1 10.9 10.9 0 0 1 2.2.6 1.5 1.5 0 0 1 1 1.4c0 1.4-1.6 2-2.8 2a4.3 4.3 0 0 1-2.3-.6 4.2 4.2 0 0 1-1.3-1.4 1.2 1.2 0 0 0-1-.7 1 1 0 0 0-.8 1c0 1 1.2 2 2.1 2.5a8.3 8.3 0 0 0 3.4.7 6.5 6.5 0 0 0 4-1.2A4.3 4.3 0 0 0 220 9a3.5 3.5 0 0 0-1.3-2.7 7 7 0 0 0-2.6-1zm10.5 2h5.4v4.2c0 .4 0 .8-.3 1l-.2.1c-.3.2-.5.3-.5.6 0 .5.5.6 1 .6h3.3c.4 0 1-.1 1-.6 0-.3-.3-.4-.5-.6h-.2c-.4-.3-.3-.7-.3-1V2.5c0-.4-.1-.8.3-1l.2-.1c.2-.2.4-.3.4-.6 0-.5-.5-.6-.9-.6h-3.4c-.4 0-.9.1-.9.6 0 .3.2.4.5.6h.2c.4.3.3.7.3 1v3.1H225v-3c0-.4 0-.8.4-1l.2-.1c.2-.2.4-.3.4-.6 0-.5-.5-.6-.9-.6h-3.4c-.4 0-.9.1-.9.6 0 .3.2.4.4.6h.2c.4.3.4.7.4 1v8.6c0 .4 0 .8-.4 1l-.2.1c-.2.2-.4.3-.4.6 0 .5.5.6.9.6h3.4c.4 0 .9-.1.9-.6 0-.3-.2-.4-.4-.6h-.2c-.4-.3-.4-.7-.4-1z" fill="#1c3687"/></g></svg>