<svg xmlns="http://www.w3.org/2000/svg" fill="none" viewBox="0 0 264 107" height="107" width="264">
<path fill="#155634" d="M173.973 82.155C174.05 83.967 172.498 85.578 169.434 86.306C167.644 86.8465 165.714 86.683 164.04 85.849L165.264 83.958C165.893 84.2949 166.582 84.5037 167.292 84.5724C168.002 84.641 168.719 84.5682 169.4 84.358C170.847 84.015 171.56 83.565 171.536 82.987C171.512 82.409 170.828 82.395 169.084 82.657C166.567 83.026 164.26 82.989 164.176 81.028C164.097 79.143 166.007 77.647 168.687 77.012C170.23 76.5583 171.879 76.6308 173.376 77.218L172.2 79.113C171.111 78.6614 169.9 78.5996 168.77 78.938C167.781 79.173 166.592 79.62 166.619 80.248C166.645 80.839 167.625 80.681 169.139 80.448C171.911 80.029 173.891 80.13 173.976 82.148M175.425 75.701L175.8 84.501L178.258 83.916L177.885 75.116L175.425 75.701ZM187.762 72.771L187.99 78.15L182.755 73.96L180.148 74.578L180.523 83.378L182.9 82.814L182.654 77.036L188.354 81.52L190.514 81.007L190.141 72.207L187.762 72.771ZM197.623 77.5C195.886 77.913 194.689 77.27 194.617 75.586C194.593 74.7908 194.865 74.0149 195.379 73.4078C195.893 72.8007 196.614 72.4054 197.402 72.298C197.858 72.1345 198.353 72.1169 198.819 72.2475C199.284 72.3781 199.698 72.6506 200.002 73.027L202.076 71.391C201.262 70.316 199.53 69.685 197.346 70.203C194.065 70.982 191.991 73.212 192.116 76.179C192.241 79.146 194.465 80.358 197.649 79.602C198.628 79.4002 199.553 78.9889 200.358 78.3963C201.163 77.8037 201.831 77.0439 202.315 76.169L200.157 75.543C199.913 76.0424 199.557 76.4789 199.117 76.8186C198.677 77.1584 198.165 77.3922 197.62 77.502M206.26 75.286L206.194 73.728L211.514 72.465L211.435 70.591L206.113 71.854L206.051 70.408L212.507 68.876L212.424 66.917L203.545 69.025L203.918 77.825L212.931 75.685L212.848 73.726L206.26 75.286ZM219.606 65.212C218.777 66.1949 217.73 66.9697 216.547 67.474L216.633 69.509C217.544 69.1626 218.385 68.6545 219.115 68.009L219.376 74.152L221.839 73.567L221.464 64.767L219.606 65.212ZM233.3 66.409C233.423 69.299 231.5 71.572 228.263 72.34C227.525 72.5811 226.745 72.6672 225.973 72.5928C225.2 72.5185 224.451 72.2854 223.772 71.908L225.04 70.197C225.471 70.447 225.949 70.6076 226.443 70.6693C226.938 70.731 227.44 70.6925 227.919 70.556C229.548 70.169 230.752 69.285 230.819 67.367C229.917 68.2893 228.768 68.9322 227.51 69.219C225.736 69.64 223.436 69.426 223.344 67.264C223.267 65.427 224.872 63.675 227.866 62.964C231.098 62.196 233.179 63.518 233.302 66.408M230.636 65.9C230.23 64.7 229.223 64.508 227.945 64.812C226.645 65.122 225.779 65.745 225.818 66.65C225.857 67.555 226.75 67.685 227.956 67.398C228.969 67.1504 229.895 66.6319 230.636 65.898M234.066 61.783L234.152 63.794L240.115 62.379L236 70.211L238.774 69.552L243.053 61.226L242.985 59.668L234.066 61.783ZM251.111 62.013C251.65 61.846 252.123 61.5143 252.464 61.0644C252.805 60.6146 252.996 60.0692 253.011 59.505C252.939 57.797 250.796 57.543 248.553 58.076C246.744 58.4631 245.161 59.5502 244.15 61.1L245.792 61.9C246.426 60.9283 247.417 60.2456 248.551 60C249.468 59.783 250.49 59.743 250.52 60.434C250.549 61.102 249.59 61.542 248.59 61.78L247.25 62.097L247.322 63.807L248.662 63.49C249.846 63.21 250.875 63.103 250.91 63.932C250.945 64.761 249.87 65.27 248.833 65.515C248.33 65.6801 247.793 65.7139 247.273 65.6131C246.753 65.5123 246.267 65.2803 245.862 64.939L244.232 66.482C244.887 67.0256 245.668 67.3941 246.504 67.5529C247.34 67.7117 248.202 67.6557 249.01 67.39C251.593 66.777 253.591 65.34 253.51 63.579C253.455 62.286 252.31 61.934 251.104 62.017M257.5 47.96C256.32 49.1159 254.793 49.853 253.154 50.0581C251.514 50.2633 249.853 49.9254 248.424 49.096C247.102 48.3174 246.131 47.0576 245.716 45.58C245.463 46.18 245.194 46.805 244.891 47.462C241.635 54.515 236.076 54.205 236.076 54.205C234.065 54.069 229.958 54.051 229.168 46.483C228.324 47.5325 227.278 48.4033 226.094 49.0448C224.909 49.6862 223.609 50.0854 222.268 50.219C218.904 59.293 212.348 60.193 209.792 59.928C207.436 59.684 203.519 58.169 202.051 51.967C201.201 53.2599 200.077 54.3494 198.758 55.1576C197.438 55.9659 195.957 56.4731 194.419 56.643C191.052 65.689 184.507 66.587 181.955 66.323C179.124 66.03 174.035 63.907 173.655 54.01C173.275 44.113 181.69 36.81 181.69 36.81C183.756 34.769 188.005 33.053 191.225 34.62C194.319 36.126 197.971 40.894 195.702 52.009C197.841 51.562 200.288 50.037 201.525 45.745C202.161 36.814 209.525 30.415 209.525 30.415C211.591 28.374 215.84 26.658 219.06 28.225C222.152 29.73 225.8 34.492 223.542 45.586C225.627 45.153 228.008 43.701 229.275 39.658C230.675 28.628 238.224 22.106 242.489 21.249C245.789 20.586 247.4 23.071 248.035 24.473L251.491 1.49004L257.239 4.17548e-05L251.746 37.1C251.746 37.1 250.571 43.721 253.482 44.318C255.506 44.733 257.554 43.272 259.21 40.312C259.281 40.186 261.489 44.402 257.496 47.958M190.118 56.223C187.756 55.4576 185.669 54.0178 184.115 52.081C182.561 50.1442 181.608 47.7951 181.372 45.323C181.367 45.216 177.286 53.497 181.733 59.761C184.163 63.183 188.758 59.418 190.118 56.227M192.234 42C191.418 36.436 188.007 37.572 186.687 39.361C185.867 40.472 184.131 44.661 186.349 47.892C187.631 49.7967 189.54 51.1911 191.744 51.832C192.567 48.6214 192.734 45.2766 192.234 42ZM217.956 49.827C215.594 49.0616 213.507 47.6218 211.953 45.685C210.399 43.7482 209.446 41.3991 209.21 38.927C209.205 38.819 205.124 47.101 209.571 53.365C212 56.787 216.596 53.022 217.956 49.83M220.072 35.608C219.256 30.043 215.845 31.18 214.525 32.969C213.705 34.08 211.969 38.269 214.187 41.5C215.469 43.4047 217.378 44.7991 219.582 45.44C220.405 42.2294 220.572 38.8846 220.072 35.608ZM244.487 25.285C241.855 25.196 238.35 30.559 236.895 34.341C235.544 37.854 233.402 50.641 239.35 47.595C246.012 44.182 246.775 32.342 246.775 32.342L246.828 32.477L246.928 31.797C247.056 30.566 247.42 25.384 244.484 25.284M176.511 38.842L177.511 33.688L166.977 36.513L169.19 21.986L169.616 21.967C177.716 22.3 184.034 23.735 189.054 22.635C195.809 21.155 198.08 16.103 197.845 11.528C197.728 9.24104 196.812 8.32804 196.798 8.35204C192.271 17.31 176.051 15.504 162.314 16.399C145.93 17.47 138.629 21.354 136.052 28.974C134.245 34.319 136.818 38.549 141.279 39.023C142.234 39.1153 143.198 38.9791 144.09 38.6258C144.982 38.2725 145.777 37.7122 146.41 36.991C141.494 36.642 139.596 32.529 141.279 29.145C143.663 24.354 152.722 22.461 162.206 22.158L159.6 38.491L155.966 39.466L154.966 44.62L158.787 43.595L154.955 67.621C154.955 67.621 153.365 78.483 148.576 80.514C147.911 80.8047 147.167 80.8563 146.468 80.6602C145.77 80.4641 145.16 80.0322 144.744 79.438C144.881 79.665 145.186 84.798 149.977 85.172C158.265 85.819 161.202 74.41 162.777 64.054L166.197 41.606L176.511 38.842ZM144.745 79.442C144.745 79.442 144.745 79.435 144.745 79.434C144.745 79.433 144.745 79.434 144.745 79.442ZM141.288 74.442C140.106 73.7633 139.207 72.6828 138.754 71.397C138.563 71.848 138.361 72.309 138.14 72.788C134.884 79.84 128.94 79.549 128.94 79.549C127.302 79.438 124.272 79.405 122.778 75.306C120.103 80.1868 116.602 84.5667 112.43 88.251C111.516 92.703 109.881 98.751 107.264 102.335C103.598 107.176 99.3721 105.957 97.7641 105C96.1561 104.043 93.4301 101.586 95.3701 96.052C97.0251 91.332 102.283 91.384 107.623 87.946C108.104 85.658 108.34 83.961 108.34 83.961L108.995 79.429C105.705 85.671 100.569 85.388 100.569 85.388C98.7011 85.261 95.0231 85.236 93.8771 79.163C92.1944 82.1498 90.0411 84.8458 87.5001 87.147C84.8331 89.58 76.4531 93.903 71.4001 86.98C65.7181 78.571 69.1001 68.79 73.8071 63.046C78.5141 57.302 86.5481 56.875 88.4071 60.92C90.2661 64.965 89.5261 69.551 85.0151 73.632C81.4701 76.841 76.4751 78.5 74.5001 79.062C75.0251 82.581 76.8001 85.981 82.1431 84.372C88.8181 82.362 92.2291 75.818 93.6201 72.296C94.5091 60.385 102.528 53.325 106.977 52.43C110.151 51.792 111.766 54.074 112.449 55.496L112.955 51.996L118 50.674L113.379 82.639L113.362 82.778C116.984 78.8741 119.875 74.3521 121.9 69.427C121.892 68.702 121.906 67.927 121.949 67.094C122.59 54.794 130.823 47.494 135.349 46.586C138.524 45.948 140.138 48.23 140.821 49.652L141.327 46.152L146.693 44.683L144.224 62.461C144.224 62.461 144.115 63.288 144.083 64.404H144.076C144.076 64.404 143.301 72.904 149.785 73.871C149.822 73.876 149.856 73.871 149.892 73.88C149.568 74.112 149.243 74.313 148.919 74.5C147.751 75.1557 146.432 75.4948 145.093 75.4838C143.753 75.4727 142.44 75.1119 141.283 74.437M74.3051 76C83.9111 72.709 84.5771 67.411 84.6391 65.932C84.7031 64.412 84.5481 62.342 81.0071 63.618C77.4661 64.894 74.6881 69.318 74.4561 73.047C74.4281 73.498 74.3131 74.621 74.3051 76ZM106.665 91.856C99.3111 95.695 99.0001 96.48 98.9271 98.2C98.8631 99.761 100.057 100.591 102.149 99.808C104.149 99.059 105.649 95.439 106.666 91.848M108.983 56.464C106.351 56.375 102.846 61.738 101.391 65.52C100.04 69.033 97.8981 81.82 103.846 78.774C108.338 76.474 110.146 70.343 110.846 66.593L111.237 63.893C111.259 63.659 111.268 63.524 111.268 63.524L111.284 63.565L111.484 62.165C111.584 60.276 111.464 56.546 108.978 56.465M137.35 50.621C134.718 50.532 131.213 55.895 129.758 59.677C128.407 63.19 126.265 75.977 132.213 72.93C136.705 70.63 138.513 64.499 139.213 60.748L139.603 58.048C139.626 57.814 139.635 57.678 139.635 57.678L139.651 57.719L139.851 56.324C139.951 54.435 139.831 50.705 137.345 50.624M63.8351 89.65C63.9251 82.982 67.6911 66.95 67.9291 59.03C68.1671 51.11 66.5671 43.511 60.5081 44.4C53.0531 45.492 50.1591 53.359 46.3081 64.376C48.3431 47.391 44.4941 45.476 39.8241 46.606C34.8241 47.813 32.7431 50.493 27.4681 61.249C25.9573 64.1895 24.6495 67.2299 23.5541 70.349C24.7131 64.465 27.0381 48.904 20.3931 44.031C12.1381 37.974 1.34815 50.641 0.245145 57.467C-1.68685 69.424 8.43515 70.526 8.43515 70.526C8.43515 70.526 2.50015 66.158 6.95215 55.928C10.4611 47.877 18.6871 42.31 18.2741 52.044C17.7001 65.488 9.96014 107 9.96014 107L17.5261 105.162C17.5261 105.162 20.0001 95.482 23.5711 83.022C27.1421 70.562 35.6221 53.738 38.6001 52.509C39.1691 52.275 40.5801 52.172 40.6071 55.183C40.7131 66.898 33.7491 101.232 33.7491 101.232L41.1801 99.423C41.1801 99.423 45.0001 80.31 47.5441 72.481C50.0881 64.652 56.2271 51.025 58.7271 50.733C63.4051 50.186 59.0341 63.71 57.8111 75.446C56.7251 85.864 55.5001 94.638 58.9941 97.591C60.28 98.6682 61.8957 99.273 63.5728 99.3048C65.2499 99.3367 66.8874 98.7936 68.2131 97.766C66.0631 96.621 63.7461 96.318 63.8351 89.65ZM264 2.70904C264.001 3.24599 263.843 3.77116 263.545 4.21812C263.248 4.66507 262.824 5.0137 262.328 5.21992C261.833 5.42613 261.287 5.48065 260.76 5.37657C260.233 5.2725 259.749 5.01451 259.369 4.63525C258.989 4.25599 258.73 3.77251 258.625 3.24597C258.52 2.71944 258.573 2.17352 258.778 1.67729C258.983 1.18106 259.331 0.756829 259.777 0.458269C260.223 0.159709 260.748 0.00024051 261.285 4.17548e-05C261.642 -0.00194132 261.995 0.0667313 262.325 0.202095C262.655 0.337458 262.955 0.53683 263.207 0.788701C263.46 1.04057 263.66 1.33995 263.796 1.66955C263.932 1.99915 264.001 2.35245 264 2.70904ZM263.219 2.70904C263.225 2.45209 263.179 2.19656 263.085 1.95747C262.991 1.71837 262.85 1.50053 262.67 1.31673C262.49 1.13294 262.276 0.986897 262.039 0.887191C261.802 0.787486 261.548 0.736124 261.291 0.736124C261.034 0.736124 260.779 0.787486 260.542 0.887191C260.305 0.986897 260.091 1.13294 259.911 1.31673C259.732 1.50053 259.59 1.71837 259.496 1.95747C259.402 2.19656 259.356 2.45209 259.362 2.70904C259.356 2.96599 259.402 3.22152 259.496 3.46062C259.59 3.69971 259.732 3.91756 259.911 4.10135C260.091 4.28515 260.305 4.43119 260.542 4.53089C260.779 4.6306 261.034 4.68196 261.291 4.68196C261.548 4.68196 261.802 4.6306 262.039 4.53089C262.276 4.43119 262.49 4.28515 262.67 4.10135C262.85 3.91756 262.991 3.69971 263.085 3.46062C263.179 3.22152 263.225 2.96599 263.219 2.70904ZM262.543 3.81804C262.581 3.86504 262.562 3.91204 262.505 3.91204H261.905C261.887 3.91372 261.868 3.91117 261.851 3.90459C261.833 3.898 261.818 3.88756 261.805 3.87404L261.205 3.18304H260.938V3.83604C260.939 3.84549 260.938 3.85507 260.936 3.86414C260.933 3.87322 260.928 3.88158 260.922 3.88868C260.915 3.89578 260.907 3.90144 260.899 3.9053C260.89 3.90915 260.881 3.91111 260.871 3.91104H260.348C260.338 3.9121 260.328 3.9109 260.318 3.90753C260.308 3.90417 260.299 3.89871 260.292 3.89156C260.285 3.8844 260.279 3.87572 260.275 3.86613C260.272 3.85654 260.27 3.84627 260.271 3.83604V1.56304C260.27 1.55278 260.272 1.54247 260.275 1.53284C260.279 1.5232 260.285 1.51447 260.292 1.50724C260.299 1.50001 260.308 1.49446 260.318 1.49097C260.328 1.48748 260.338 1.48614 260.348 1.48704H261.481C262.081 1.48704 262.547 1.71504 262.547 2.33104C262.557 2.51703 262.5 2.70042 262.387 2.84807C262.273 2.99571 262.11 3.09786 261.928 3.13604L262.543 3.81804ZM261.857 2.33104C261.857 2.14104 261.714 2.03104 261.495 2.03104H260.943V2.64704H261.495C261.714 2.64704 261.857 2.53304 261.857 2.33404"></path>
</svg>
