<?xml version="1.0" encoding="utf-8"?>
<!-- Generator: Adobe Illustrator 25.4.1, SVG Export Plug-In . SVG Version: 6.00 Build 0)  -->
<svg version="1.1" id="Layer_1" xmlns="http://www.w3.org/2000/svg" xmlns:xlink="http://www.w3.org/1999/xlink" x="0px" y="0px"
	 viewBox="0 0 1434 455.8" style="enable-background:new 0 0 1434 455.8;" xml:space="preserve">
<style type="text/css">
	.st0{fill:#458500;}
	.st1{fill:#458501;}
	.st2{fill:#458400;}
</style>
<path class="st0" d="M498.4,227.1c0,53.5,0,107,0,160.4c0,16.1-1.4,31.9-11.6,45.4c-14.2,18.8-33.6,23.6-55.4,19.2
	c-22.5-4.5-38.3-23.4-39.8-50.7c-1.8-32.6-0.9-65.4-1-98.1c-0.1-39.2,0-39.2-38.2-39.2c-32.7,0-65.5,0.6-98.2-0.3
	c-13.8-0.4-17.6,4-17.3,17.5c0.8,37.5,0.4,75,0.2,112.5c-0.1,23.1-8,42.5-29.2,53.8c-30.7,16.3-67.4,0-75.5-33.7
	c-2.6-10.7-3-22.1-3-33.2c-0.2-102.2-0.1-204.3-0.1-306.5c0-7.2,0.2-14.4,1.2-21.5c4.3-34,23.1-50.8,55.2-49.9
	c30.1,0.9,50.1,21.6,51.4,54.6c0.9,24.7,0.2,49.5,0.2,74.2c0,38.9,0,38.9,38.1,38.9c32.7,0,65.5-0.6,98.2,0.3
	c13.4,0.4,17.8-3.4,17.4-17.1c-1-31.1-1.1-62.3,0-93.4c1.2-35.7,20.6-56.6,51-57.5c35-1,55.6,19.8,56.5,59
	c0.8,38.3,0.2,76.6,0.2,114.9C498.4,193.6,498.4,210.3,498.4,227.1z"/>
<path class="st0" d="M639.7,316.7c21.5,0.7,43.1,0.2,68.4,0.2c24.1-0.8,52.1,2.2,79.8-2.4c30.8-5.1,44.8-20.5,45.8-51.5
	c1.3-38.3-10.6-72.4-37.3-100.2c-48.1-50.2-108.2-55.4-170.3-38.2c-58.3,16-90.6,58.9-102.1,117.8c-15.8,80.7,9.7,152,67.4,187.6
	c39.3,24.3,83,27.5,127,21.4c44.2-6.1,82.8-24.3,104.7-66.4c11.2-21.5,7.6-42.8-7.4-54.2c-15.8-12-38.6-9.5-56.5,6.5
	C745.6,349.5,733,363,716.1,371c-37,17.5-76.7,0.3-88.9-37.4C623,320.5,626.2,316.3,639.7,316.7z M635.4,219.5
	c2.8-4.5,9.1-14.4,22-20.4c9-4.2,19.4-5.4,30.9-3.6c21.7,3.4,34.9,17.3,42,37.6c3.9,11.1,1.4,16-11.4,15.2
	c-14.3-0.8-28.6-0.2-42.9-0.2c-3.7,0-6.8,0-11.3,0c-7,0-8.9-0.1-14.9-0.1c-18.7-0.2-19.8,0.3-21.1-1.1
	C622.7,240.5,634.7,220.7,635.4,219.5z"/>
<path class="st0" d="M948.7,141.6c34.6-36.8,85.1-26.9,114.4-9.5c23.2,13.8,31.5,36.6,22.3,59c-9.3,22.5-30.7,31.1-57.5,23.2
	c-45.8-13.6-60.1-4.1-67.9,43.7c-6.5,40.5-3.2,81.1-4.1,121.7c-0.2,9.6,0.4,19.3-1,28.6c-4.5,29.1-24.4,45.8-52.4,44.9
	c-26.2-0.8-44.7-18.5-46.9-47.7c-1.7-22.2-1.1-44.6-1.1-66.9c0-54.2-0.1-108.4,0.5-162.7c0.2-24.2,5.7-46.5,31.4-56.5
	C908.4,111.1,928.1,118.5,948.7,141.6z"/>
<path class="st0" d="M2.3,285c0-37.5-0.2-75,0.1-112.5c0.3-34.6,18.6-55,48.9-55.4c31.2-0.4,51.3,20.7,51.5,55.9
	c0.4,74.2,0.5,148.3,0,222.5c-0.2,37.3-19.8,58.2-52.1,57.8C20,452.9,2.5,431.9,2.3,395C2.2,358.4,2.3,321.7,2.3,285z"/>
<path class="st1" d="M51.9,6.9c29.6-0.4,50.3,19,51,47.6c0.7,30.2-19.8,51.3-49.9,51.5C22.9,106.3,2.8,87.4,2.3,58.4
	C1.7,27.8,21.6,7.3,51.9,6.9z"/>
<path class="st2" d="M1427.9,244c-9.6-69.7-47.1-112.1-105.5-123.9c-40.6-8.2-79.3-2.5-117.4,26.7c0-35.7,0.9-66.7-0.4-97.6
	c-1-27.9-19.1-45.3-44.9-46.2c-28-1-46.5,14.7-50.2,43.2c-1.1,8.7-1.1,17.5-1.1,26.3c-0.1,104.6-0.1,209.2,0.1,313.8
	c0,11,0.7,22.4,3.1,33.1c4.1,17.9,16.2,29.5,34.1,33c19.3,3.8,38.9-0.1,48.4-17.8c8.9-16.6,14.7-9.4,24.3-2.9
	c52.1,35.2,123.2,28.2,166.3-17.5C1430.4,365.9,1436.4,305.7,1427.9,244z M1323.8,324.6c-8.7,28.8-28.9,43.9-55.6,43.3
	c-26.6-0.6-46.2-16.4-54.2-45.3c-3.2-11.3-4-23.4-5-29.3c0.3-30.4,3.8-53.8,20-73.3c27.1-32.6,72.4-27.3,89.9,11.2
	C1332.6,261.3,1333.4,293.1,1323.8,324.6z"/>
</svg>
