<?xml version="1.0" encoding="utf-8"?>
<!-- Generator: Adobe Illustrator 25.4.1, SVG Export Plug-In . SVG Version: 6.00 Build 0)  -->
<svg version="1.1" id="Layer_1" xmlns="http://www.w3.org/2000/svg" xmlns:xlink="http://www.w3.org/1999/xlink" x="0px" y="0px"
	 viewBox="0 0 772.7 435.7" style="enable-background:new 0 0 772.7 435.7;" xml:space="preserve">
<style type="text/css">
	.st0{fill:#FFFFFF;}
	.st1{fill:#EBBD00;}
	.st2{fill:#E2001A;}
	.st3{fill:#FFF4BF;}
	.st4{fill:#DFDFDE;}
	.st5{fill:#FFDF00;}
</style>
<path class="st0" d="M482.5,9.5c-1.4,1.2-2.4,3-2.9,5.5c-0.3,1.5-0.5,3.2-0.5,5c0,1.8,0.2,3.6,0.5,5.3c0.6,2.9,1.8,7.1,3.9,12
	C436.3,21.8,390.4,18.3,376,18.3c-9.4,0-56.6,1-105.1,18.4c1.9-4.6,3-8.5,3.6-11.2c0.3-1.7,0.5-3.5,0.5-5.3c0-1.8-0.2-3.5-0.5-5
	c-0.5-2.4-1.5-4.2-3-5.5c-3.3-2.9-7.6-1.9-10,0.6c-5,5.2-12.4,9.4-22,14.3l-4.9,2.4l-8.6,4.4c-5.1,2.7-9.1,5-12.4,7.3
	c0-0.2,0-0.4-0.1-0.6c-0.2-1.3-0.8-3.7-2.4-5.7c-1.5-1.8-3.6-2.8-5.7-2.8h0c-2.1,0-4.1,1-5.6,2.8c-2.1,2.5-4.7,5-8.2,7.9l-8.1,6.3
	l-2.4,1.8c-7.6,5.8-15.6,12.2-22.4,21c-0.8,1-1.5,2.1-2.3,3.2c-0.4-1.7-0.8-3.3-1.5-4.4c-0.6-1-2.4-3.2-5.4-4
	c-3.6-0.9-7.2,0.9-8.8,4.4c-0.7,1.6-3,4.1-5.3,6.5l-1.6,1.7l-8.7,9.7c-10.1,12.4-16,24.8-18.3,39.1c0,0-0.2,1-0.2,1l-0.7,5.6
	c0,0.5-0.1,1.2-0.1,2c0,1.6,0.2,3.7,0.5,5.9H15.5c-14,0-15.5,8.3-15.5,11.9c0,3.2,1.6,7.2,4,10.6c0.9,13.8,1.5,27.7,1.7,41.5
	c0,4.9,0.1,10,0.1,15.2c0,15.6-0.2,32.9-0.7,51.7l-0.1,2.8c0,0.2,0,0.5,0,0.7c0,5.2,1.6,9.5,4.7,12.6c5,4.9,12,4.7,12.3,4.7
	c0,0,38.3,0,38.4,0c0,0,1.2,0,1.2,0c6,0.2,21.8,0.6,35.9,8.2c0,0,3.8,2.3,3.8,2.3c5.1,3,12.9,10.3,23.7,20.4l2.8,2.6
	c0,0,5.4,5,5.4,5c4,3.6,7.7,6.5,11.3,9c-2.5,0.8-4.4,1.5-5.3,2c-3.9,1.8-6.4,4.3-7.4,7.3c-0.3,0.9-0.5,1.9-0.5,2.8
	c0,3.9,2.7,7.4,7.4,9.1c5.9,2.2,11.9,5.1,18.2,8.2l6.5,3.1c8.8,4.2,19.7,9,33.5,13.1c2.9,0.8,5.9,1.5,9,2.1
	c-0.8,0.9-1.3,1.6-1.5,1.9c-1.2,1.6-1.8,3.4-1.8,5.2c0,0.4,0,0.8,0.1,1.2c0.6,3.6,3.5,5.7,4.5,6.4c3.2,2.3,7.4,3,9.1,3.2
	c6.2,0.7,9,1.3,11.4,2.1l6.6,2.3l6.6,2.3c9.9,3.2,22.7,6.3,42.5,4.7c3.5-0.3,9.3-1.3,15.4-2.9c-0.2,0.3-0.3,0.5-0.5,0.7
	c-0.5,1-1.6,3.5-1.6,6.4c0,1.6,0.3,3.4,1.3,5.1c1.9,3.4,5.7,5.4,11.3,5.9c2.6,0.2,25.6,3,28.8,3.5c5.3,0.8,14.1,2,20.5-9.6
	c4.7-8.4,10.5-14.7,14.5-18.7c0,0,3.7-3.6,3.9-3.8c0.5,0.5,4.2,4.2,4.2,4.2c4.4,4.5,10.1,10.7,14.3,18.3
	c6.4,11.6,15.2,10.3,20.5,9.6c3.4-0.5,27.2-3.4,28.7-3.5c6.6-0.4,9.6-3.3,11-5.7c1-1.8,1.4-3.7,1.4-5.6c0-2.3-0.6-4.5-1.4-6.1
	c-0.1-0.3-0.3-0.5-0.5-0.8c6.2,1.6,11.9,2.6,15.4,2.9c19.9,1.5,32.6-1.5,42.5-4.7c0,0,6.6-2.3,6.6-2.3l6.6-2.3c4.4-1.4,7.7-2,11.1-2
	c3-0.1,6.7-1.3,9.4-3.2c3.6-2.5,4.3-5.4,4.3-7.5v0c0-2.8-1.5-5.4-3.2-7.5c3-0.6,6.1-1,9.2-1.9c13.7-4,24.6-8.9,33.5-13.1l6.5-3.1
	c6.3-3.1,12.3-6,18.2-8.2c4.7-1.7,7.4-5.1,7.4-9c0-0.9-0.1-1.8-0.4-2.8c-1.6-5.2-7.9-7.8-12.7-9.3c3.6-2.5,7.3-5.4,11.3-9l11.1-10.6
	l1.3-1.2l7.6-7.2l-0.3,0.2l1.7-1.5c3.9-3.5,7.9-6.4,12.1-8.8c3-1.7,6.2-3.5,9.6-4.6c8-3,17.8-4.7,29-5H731c8.4,0,17.3-1.2,17.3-15.5
	c0-0.4-1.4-27.6-1.4-53.1c0,0,0.4-34.8,0.5-41.4c0.2,0.1,0.3,0.1,0.5,0.1c2.4,1,4.4,2.7,6.3,4.4c3.4,2.9,8,7,14.1,3.4
	c3.3-1.9,4.3-6.4,4.3-12.6c0-4.5-0.6-9.8-1.3-15.7l-0.4-3.8c-0.6-4.1-1.7-6.5-2.2-7.3c-0.7-1.6-5.2-10-21.4-10h-99.7
	c0.3-2.2,0.5-4.3,0.5-6c0-0.8,0-1.5-0.1-2.1c0,0-0.7-5.6-0.7-5.6l-0.2-1c-2.4-14.3-8.2-26.7-18.3-39.1l-8.8-9.9l-1.5-1.6
	c-2.8-3.1-4.5-5.1-5.4-6.7c-1.9-3.5-5.3-5.1-8.7-4.2c-2.3,0.5-4.2,2-5.4,4.1c-0.6,1-1,2.5-1.4,4.3c-0.8-1.1-1.5-2.2-2.3-3.2
	c-6.8-8.7-14.8-15.1-22.4-21l-2.2-1.7l-8.2-6.4c-3.5-2.9-6.1-5.4-8.2-7.9c-1.5-1.8-3.5-2.8-5.7-2.8c-2.2,0-4.2,1-5.7,2.8
	c-1.7,2.1-2.3,4.7-2.4,5.7c0,0.1-0.1,0.4-0.1,0.5c-3.3-2.3-7.2-4.6-12.4-7.3l-8.6-4.3l-4.9-2.4c-9.6-4.9-17-9.2-22-14.3
	C490.1,7.6,485.9,6.5,482.5,9.5"/>
<path class="st1" d="M211.8,144.7c-2.1,0.5-1.8,2.4,0,2.5c13.9,1,28.3,0,39.7-3.2c11.1-3.2,12.3-6.6,7.1-18.5
	C239.9,135.8,231.2,139.8,211.8,144.7"/>
<path class="st1" d="M23.1,160.3c-1.3-1.5-0.2-2.4,1.9-2.1c3.7,0.5,10,0.9,21.2,0.9c5.9,0,11.5-0.2,21.8-0.5
	c18.8-0.5,34.1,7.3,34.1,29.8c0,23.7-20.1,36.6-32.6,36.6c-10.4,0-14.3-0.7-14.3-1.6c0-0.9,0.8-0.9,2.6-1.3
	c4.6-1.2,20.3-8.6,20.3-30.5c0-21.9-11-26.1-18.2-26.1c-6.3,0-7.7,1.1-7.9,7.7c-0.2,7.5-0.6,45.4-0.6,45.4c0,8.1,0,23.7,0.3,36.8
	c0.3,13.1,1.5,21.1,2.5,23.4c0.6,1.3,0.2,2.2-1.7,2.2H27.9c-1.6,0-2.8,0.2-2.8-3.2c0-3.3,0.8-34.8,0.8-61.5
	C25.9,189.8,25,162.5,23.1,160.3"/>
<path class="st1" d="M155.6,223c15.8-0.3,32.1-13.6,32.1-34.9c0-22.5-15.4-30.3-34-29.6c-13.2,0.5-15.7,0.5-19.6,0.5
	c-11.1,0-18.9-0.4-22.9-0.8c-2.1-0.2-3.2,0.6-1.9,2.1c2,2.2,2.8,29.5,2.8,56.2c0,26.7-0.5,57.5-1.9,61.5c-1,2.9,1.2,3.2,2.8,3.2
	h23.2c1.4,0,2-0.4,2-3.1c0-2.8-0.7-45.4-0.7-59.4c0,0,0.3-38.1,0.3-45.4c0-6.5,1.9-7.8,8.2-7.8c7.2,0,17.6,3.9,17.6,25.8
	c0,21.9-15.8,28.5-22.4,29c-1.8,0.2-3,0.2-3,1.1c0,1.3,1.6,1.1,2.7,2.5c2.2,2.6,4.5,5.8,10.7,20.6c6.4,15.5,9.1,31,21.8,47.2
	c12.8,16.1,33.9,20.2,49.2,19.2c1.9-0.2,2.7-2,1.3-2.6c-5.5-2.5-11.1-6.2-19.7-17.5c-11.8-15.4-19.2-35.3-25.1-45.3
	C172.4,234.3,164.1,224.2,155.6,223"/>
<path class="st1" d="M232.6,281.1h-24.1c-1.6,0-2.8,0.2-2.8-3.2c0-3.3,0.4-34.8,0.4-61.5c0-26.7-0.9-54-2.8-56.2
	c-1.3-1.5,0.5-2.3,1.9-2.1c18.6,2.6,50.6-0.2,57.4-0.3c2.2,0,3.8,0.2,4.3,3.2c0.5,3.7,0.6,11,0.8,14.2c0.1,3.2-1.3,2.1-1.9,0.7
	c-5.4-8.6-15.9-9-27.1-8.4c-6.1,0.3-6.3,0.4-6.3,7.7c0,5.3-0.3,24.5-0.5,35.9c1.5-1.3,4-2.3,7.1-2.3c2.7,0,16.5,0.2,19.1-0.7
	c1.8-0.6,2.5-0.2,2.1,0.8c-1.3,3-0.9,10.6-8,10.5c-5.8-0.1-14.4,0-15.8,0c-2.8,0-4.6,0.8-4.6,2.8c0,11.8-0.3,35.5,0.9,44.4
	c0.7,4.7,2.2,5.5,8.4,5.3c6.8-0.2,22.9-1,27.7-9.8c0.7-1.7,2-2.1,1.9,0.9c-0.1,4.2-1.2,10.7-2.2,14.8c-0.7,3-1.8,3.5-4.5,3.4
	C258.4,281.3,237.5,281.1,232.6,281.1"/>
<path class="st1" d="M437,224.4c0,9.6,0.9,33.3,1.3,42.6c0.4,8.3,2.2,7.8,5.2,7.8c13.1,0,30.9-9.7,30.9-54.6
	c0-43-17.8-54.4-29.7-54.4c-5.9,0-6.8,1.3-7.3,15.4C437.2,189.4,437,214.8,437,224.4 M409.7,162c-1.3-2.4-1.6-4.3,1.6-3.7
	c4.5,0.9,17.5,2,34.6,0.3c21.5-2.1,56.5,6.2,56.5,57.3c0,46.1-30.1,67.1-52.6,66.3c-14.6-0.5-22.4-0.7-33.9,0
	c-3.2,0.2-4.7,0.2-4.6-3.4c0.2-4.6,0.6-37.5,0.6-54.4C411.9,207.4,411.1,164.8,409.7,162"/>
<path class="st1" d="M590.3,162.2c-1.2-0.4-1.6-2.2,0.2-2.3c6.6-0.3,17.4-0.9,23.1-1.2c4.7-0.3,7.7,2.7,10.3,8.4
	c2.6,5.7,34.7,83.7,34.7,83.7s-1-81.2-1-84.1c0-2.9-0.3-7.2,3.8-7.2c4.1,0,9.2-0.1,9.6-0.1c0.9-0.1,1.1,1.2,0.1,1.8
	c-1.1,0.6-2.4,2.2-2.4,4.7v102.6c0,2.6-0.2,5.7-0.1,8.2c0,2.3,1.9,5-2,5h-11.5c-9.5,0-13.6-4.9-16.7-12.2
	c-3.1-7.3-32.4-77.4-32.4-77.4s0,75.7,0,78.5c0,2.8,0.3,8.6,2.2,9c1.3,0.3,1.4,2,0,2h-11c-0.9,0-2.2,0.4-2.2-2.1
	c0-2.5,1.4-110.1,1.4-110.1C594.2,164.9,592.3,162.8,590.3,162.2"/>
<path class="st1" d="M707.6,169.2c0.3,14,0.5,33.8,0.5,52.7c0,26.9-0.3,51.8-0.3,54.4c0,4.3-0.6,5.9,2.6,5.7c4-0.3,20.1-0.2,23,0.3
	c2.1,0.3,2.6-0.5,2.1-3.2c-0.3-1.8-0.6-3.5-0.8-9.8c-0.2-6.3-1-45.1-1-61c0-15.8,0-39.2,0-39.2c8.4,0,21.7,0.7,26.1,9.3
	c0.8,1.5,1.7,1.7,1.6-0.6c-0.2-2.7-0.7-11.3-1.4-15.4c-0.5-3.2-1.3-3.7-4.1-3.7c-2.7,0-27.4,1-35.4,1h0h-0.1h-0.1
	c-8,0-31.7-1.1-34.5-1.1c-2.8,0-3.6,0.1-4.1,2.9c-0.6,3.2-1.2,13.4-1.4,16.1c-0.1,2.3,0.8,2.1,1.5,0.6
	C686.2,169.9,699.2,169.3,707.6,169.2"/>
<path class="st1" d="M362.1,165.3c-0.2-3.5-0.6-3.7-1.4-4.9c-1-1.6,0.1-2.4,1.7-2.3c3.3,0.2,17.9,1,21.8,0.8
	c3.9-0.2,4.8-0.3,4.8,3.4c0,3.7-0.7,29.4-1,43.6c-0.3,14.1,0.4,55.9,0.8,61.3c0.4,5.4,0.7,9.9,1.6,11.7c0.8,1.8,1.6,3.6-0.7,3.1
	c-2.3-0.5-22.1-0.8-25.1-0.4c-1.3,0.2-1.9-0.7-1.7-2c0.1-1.3,0.6-55,0.6-64.1C363.4,208.1,362.9,177.3,362.1,165.3"/>
<path class="st1" d="M280.3,258.5c0.1-1.8,0.9-2.5,1.8-0.9c6,10.6,14.4,16,24.6,16c11.8,0,19.3-5.2,19.3-15.5
	c0-27.1-43.1-39.4-43.1-69c0-23.5,18.6-32.5,35.3-32.5c6.3,0,14.1,0.4,20.8,2.2c1.7,0.4,3.1,1.2,3.4,3.6c0.5,3.6,0.5,12.2,0.5,14.5
	c0,2.3-0.8,1.8-2.3,0c-5.4-6.9-13.3-11.3-21.8-11.3c-7.8,0-13,3.5-13,10.8c0,22.9,43.1,32.4,43.1,69.1c0,27-20.9,38-38.8,38
	c-8.8,0-16.6-1-22.5-2.8c-5.3-1.6-5.8-2.4-6.6-8.8C280.4,266.6,280.2,260.3,280.3,258.5"/>
<path class="st1" d="M542.9,281.1h-24.2c-1.6,0-2.8,0.2-2.8-3.2c0-3.3,0.4-34.8,0.4-61.5c0-26.7-0.9-54-2.9-56.2
	c-1.3-1.5,0.5-2.3,1.9-2.1c18.6,2.6,50.6-0.2,57.4-0.3c2.2,0,3.8,0.2,4.3,3.2c0.6,3.7,0.7,11,0.8,14.2c0.1,3.2-1.3,2.1-1.9,0.7
	c-5.4-8.6-15.8-9-27.1-8.4c-6.1,0.3-6.3,0.4-6.3,7.7c0,5.3-0.3,24.5-0.5,35.9c1.5-1.3,4-2.3,7.1-2.3c2.7,0,16.5,0.2,19.1-0.7
	c1.8-0.6,2.5-0.2,2.1,0.8c-1.3,3-0.9,10.6-8,10.5c-5.8-0.1-14.4,0-15.8,0c-2.8,0-4.6,0.8-4.6,2.8c0,11.8-0.3,35.5,0.9,44.4
	c0.6,4.7,2.1,5.5,8.4,5.3c6.8-0.2,22.9-1,27.7-9.8c0.7-1.7,2-2.1,1.9,0.9c-0.1,4.2-1.2,10.7-2.2,14.8c-0.8,3-1.8,3.5-4.4,3.4
	C568.7,281.3,547.8,281.1,542.9,281.1"/>
<path class="st2" d="M207.8,141.2c-2.1,0.5-1.8,2.4,0,2.5c13.9,1,28.4,0,39.7-3.2c11.1-3.2,12.3-6.6,7.1-18.5
	C235.8,132.3,227.2,136.3,207.8,141.2"/>
<path class="st2" d="M17.2,154.6c-1.3-1.5-0.2-2.4,1.9-2.1c3.7,0.5,10,0.9,21.2,0.9c5.9,0,11.5-0.2,21.8-0.5
	c18.8-0.5,34.1,7.3,34.1,29.8c0,23.7-20.1,36.6-32.6,36.6c-10.4,0-14.3-0.7-14.3-1.6c0-0.9,0.8-0.9,2.6-1.3
	c4.6-1.2,20.3-8.6,20.3-30.5c0-21.9-11-26.1-18.2-26.1c-6.2,0-7.7,1.1-7.9,7.7c-0.2,7.5-0.6,45.4-0.6,45.4c0,8.1,0.1,23.7,0.4,36.8
	c0.3,13.1,1.5,21.1,2.5,23.4c0.6,1.4,0.2,2.3-1.8,2.3H22c-1.6,0-2.8,0.2-2.8-3.2c0-3.3,0.8-34.8,0.8-61.4
	C20,184.2,19.1,156.9,17.2,154.6"/>
<path class="st2" d="M149.7,217.4c15.8-0.3,32.1-13.6,32.1-34.9c0-22.5-15.4-30.3-34-29.6c-13.3,0.5-15.7,0.5-19.6,0.5
	c-11.1,0-18.9-0.4-22.9-0.8c-2.1-0.2-3.2,0.5-1.9,2.1c1.9,2.2,2.9,29.6,2.9,56.2c0,26.7-0.5,57.5-1.9,61.5c-1,2.9,1.2,3.2,2.8,3.2
	h23.2c1.4,0,2.1-0.4,2-3.1c0-2.8-0.7-45.4-0.7-59.4c0,0,0.3-38.1,0.3-45.4c0-6.5,1.9-7.7,8.2-7.7c7.2,0,17.6,3.9,17.6,25.8
	c0,21.9-15.8,28.5-22.4,29c-1.8,0.2-3,0.2-3,1.1c0,1.3,1.5,1.1,2.7,2.5c2.2,2.5,4.5,5.8,10.7,20.6c6.4,15.5,9.1,31,21.9,47.2
	c12.8,16.1,33.9,20.2,49.2,19.2c1.9-0.2,2.7-2,1.3-2.6c-5.4-2.5-11.1-6.2-19.7-17.5c-11.8-15.4-19.2-35.3-25.1-45.3
	C166.5,228.6,158.2,218.6,149.7,217.4"/>
<path class="st2" d="M226.7,275.5h-24.1c-1.6,0-2.8,0.2-2.8-3.2c0-3.3,0.4-34.8,0.4-61.4c0-26.7-0.9-54-2.9-56.2
	c-1.3-1.5,0.6-2.3,1.9-2.1c18.6,2.6,50.6-0.2,57.4-0.3c2.2,0,3.8,0.2,4.3,3.2c0.5,3.7,0.6,11,0.7,14.2c0.1,3.2-1.3,2.1-1.9,0.7
	c-5.4-8.6-15.9-9-27.1-8.4c-6.1,0.3-6.3,0.4-6.3,7.7c0,5.3-0.3,24.5-0.5,35.9c1.5-1.3,4.1-2.3,7.1-2.3c2.7,0,16.5,0.2,19.1-0.7
	c1.8-0.6,2.5-0.2,2.1,0.8c-1.3,3-0.9,10.6-8,10.5c-5.8-0.1-14.4,0-15.8,0c-2.8,0-4.6,0.8-4.6,2.8c0,11.8-0.3,35.5,0.9,44.4
	c0.6,4.7,2.1,5.5,8.4,5.3c6.8-0.2,22.9-1,27.7-9.8c0.7-1.7,2-2.1,1.9,0.9c-0.1,4.2-1.2,10.8-2.2,14.8c-0.8,3-1.8,3.5-4.5,3.4
	C252.4,275.7,231.6,275.5,226.7,275.5"/>
<path class="st2" d="M431.1,218.8c0,9.6,0.9,33.3,1.3,42.6c0.4,8.3,2.2,7.8,5.2,7.8c13.1,0,30.9-9.7,30.9-54.5
	c0-43-17.8-54.4-29.7-54.4c-5.9,0-6.8,1.3-7.3,15.4C431.3,183.8,431.1,209.2,431.1,218.8 M403.8,156.4c-1.3-2.4-1.6-4.3,1.6-3.7
	c4.5,0.9,17.5,2,34.6,0.3c21.5-2.1,56.5,6.2,56.5,57.2c0,46.1-30.1,67-52.5,66.3c-14.6-0.5-22.4-0.7-33.9,0
	c-3.2,0.2-4.7,0.2-4.5-3.5c0.2-4.5,0.6-37.5,0.6-54.4C406,201.8,405.2,159.2,403.8,156.4"/>
<path class="st2" d="M584.3,156.5c-1.2-0.4-1.6-2.2,0.2-2.3c6.6-0.3,17.4-0.9,23.1-1.2c4.8-0.3,7.7,2.7,10.3,8.4
	c2.6,5.7,34.8,83.7,34.8,83.7s-1-81.2-1-84.1c0-2.9-0.3-7.1,3.8-7.1c4.1,0,9.2-0.1,9.6-0.1c0.9-0.1,1.1,1.2,0.1,1.8
	c-1.1,0.6-2.4,2.3-2.4,4.7v102.6c0,2.6-0.2,5.7-0.1,8.2c0,2.3,1.9,5-2,5h-11.5c-9.5,0-13.6-4.9-16.8-12.2
	c-3.1-7.2-32.3-77.4-32.3-77.4s0,75.7,0,78.5c0,2.8,0.3,8.6,2.2,9c1.3,0.3,1.4,2,0,2h-11c-0.9,0-2.2,0.5-2.2-2.1
	c0-2.5,1.4-110.1,1.4-110.1C588.3,159.3,586.4,157.2,584.3,156.5"/>
<path class="st2" d="M701.7,163.6c0.3,14,0.5,33.8,0.5,52.7c0,26.9-0.3,51.9-0.3,54.4c0,4.4-0.6,5.9,2.7,5.6c4-0.3,20.1-0.2,23,0.3
	c2.1,0.3,2.6-0.5,2.1-3.2c-0.3-1.9-0.6-3.5-0.8-9.8c-0.2-6.3-1-45.1-1-61c0-15.8,0-39.2,0-39.2c8.4,0,21.6,0.7,26.1,9.2
	c0.7,1.5,1.7,1.7,1.6-0.6c-0.2-2.7-0.7-12-1.4-16.1c-0.5-3.2-1.3-3.7-4.1-3.7c-2.7,0-21,0.6-34.5,0.6c-13.9,0-32.8-0.6-35.6-0.6
	c-2.7,0-3.6,0.1-4.1,2.9c-0.6,3.2-1.2,14.1-1.4,16.8c-0.1,2.3,0.8,2,1.6,0.6C680.3,164.2,693.3,163.7,701.7,163.6"/>
<path class="st2" d="M356.2,159.7c-0.2-3.5-0.6-3.7-1.4-4.9c-1-1.6,0.1-2.4,1.7-2.3c3.3,0.2,17.9,1,21.8,0.8
	c3.9-0.2,4.8-0.3,4.8,3.4c0,3.7-0.7,29.4-1,43.6c-0.3,14.1,0.4,55.9,0.8,61.3c0.4,5.4,0.7,9.9,1.6,11.7c0.8,1.8,1.6,3.6-0.7,3.1
	c-2.3-0.5-22.1-0.8-25.1-0.4c-1.3,0.2-1.8-0.7-1.7-2c0.1-1.3,0.6-55,0.6-64.1C357.5,202.5,357,171.7,356.2,159.7"/>
<path class="st2" d="M274.4,252.9c0.1-1.8,0.9-2.5,1.8-0.9c6,10.6,14.4,15.9,24.6,15.9c11.8,0,19.3-5.2,19.3-15.5
	c0-27.1-43.1-39.4-43.1-69c0-23.5,18.6-32.5,35.3-32.5c6.3,0,14.1,0.5,20.8,2.2c1.7,0.4,3.1,1.2,3.4,3.6c0.5,3.6,0.5,12.2,0.5,14.5
	c0,2.3-0.8,1.9-2.3,0c-5.4-6.9-13.3-11.3-21.8-11.3c-7.9,0-13,3.5-13,10.8c0,22.9,43.1,32.4,43.1,69.1c0,26.9-20.9,38-38.8,38
	c-8.8,0-16.6-1-22.5-2.8c-5.3-1.6-5.8-2.5-6.5-8.8C274.4,260.9,274.3,254.7,274.4,252.9"/>
<path class="st2" d="M537,275.5h-24.2c-1.6,0-2.8,0.2-2.8-3.2c0-3.3,0.4-34.8,0.4-61.4c0-26.7-0.9-54-2.8-56.2
	c-1.3-1.5,0.6-2.3,1.9-2.1c18.7,2.6,50.6-0.2,57.4-0.3c2.2,0,3.8,0.2,4.3,3.2c0.6,3.7,0.6,11,0.8,14.2c0.1,3.2-1.3,2.1-1.9,0.7
	c-5.4-8.6-15.9-9-27.1-8.4c-6.2,0.3-6.3,0.4-6.3,7.7c0,5.3-0.3,24.5-0.5,35.9c1.5-1.3,4.1-2.3,7.1-2.3c2.7,0,16.5,0.2,19.1-0.7
	c1.8-0.6,2.5-0.2,2.1,0.8c-1.3,3-0.9,10.6-8,10.5c-5.8-0.1-14.4,0-15.8,0c-2.8,0-4.6,0.8-4.6,2.8c0,11.8-0.3,35.5,0.9,44.4
	c0.6,4.7,2.1,5.5,8.4,5.3c6.8-0.2,22.9-1,27.7-9.8c0.7-1.7,2-2.1,1.9,0.9c-0.1,4.2-1.2,10.8-2.2,14.8c-0.7,3-1.8,3.5-4.5,3.4
	C562.8,275.7,541.9,275.5,537,275.5"/>
<path class="st3" d="M586.7,342.9c6.4-0.8,12.1-3.4,17-6.5c18.6-11.8,33.2-33.2,48.2-40.1c3.1-1.5-0.9-5.6-8-6.5
	c-9.8-1.3-49.9-2.9-92.4,41.9c7.3-10.3,5.4-18.2,4.8-19.6c-0.5-1-3.7-3.9-6-1.4c-2.7,2.8-6.6,6.7-11.5,9.3
	c-22.2,11.7-61,18.4-72.1,58c-22.7-0.1-43.4,9.5-32.3,20c7.4,6.9,28.1,11.9,36.8,12.6c36.8,2.9,48.2-11,66.3-11.3
	c3.7-0.1,9.1-2.6,7.2-6.4c-0.9-1.8-4.8-8.7-21.2-10.8c-2.9-0.3,11,3.5,32.1-2.7c26-7.6,41.6-18.2,57.8-24.3c6-2.2,2.7-6.5-0.4-7.7
	C610.8,346.5,603.8,342.6,586.7,342.9"/>
<path class="st1" d="M564.9,343.1c-1.2,0.2,7-8.5,15-14.3c19.2-13.9,34.8-20,35.5-20.3c2.2-0.9,3-2.6,0.1-1.8
	c-2.5,0.6-18.3,6.5-34.7,17.6c-8,5.4-16,13-22,20c-13,2.8-20.4,7.8-19.4,6.7c44.6-52.5,91.5-58.9,103.4-56.9
	c1.2,0.2,1.6,0.8,1.6,1.1c-0.1,0.3,0,0.9-1.9,1.8c-15.5,7.6-36.1,39.1-69.5,44.7C570.3,341.8,565.7,343,564.9,343.1"/>
<path class="st1" d="M517.2,373.6c10.7-0.5,17.7-1.7,25-3.3c12.9-2.8,23.1-6.4,28.8-8.7c1.4-0.6,2.5-1.1,3.1-1.4
	c2.5-1.5,1-2.3-0.8-1.7c-0.5,0.2-1.2,0.4-1.6,0.6c-1.6,0.6-8.8,3.4-25.4,7.3c-9,2.1-16.1,2.7-21.2,3.1c-2.8,0.2-6.5,0.2-3.2-2
	c15.3-10.3,19.9-12.7,31.2-16.5c25.1-8.6,54-1,56.9,0.6c-6.4,1.6-28.2,13.7-47.8,20.4c-20,6.8-42.8,6.3-46.5,6.2
	C508.6,377.7,511.7,373.9,517.2,373.6"/>
<path class="st1" d="M484.6,373.2c27.6-15.8,46.4-32.1,50.2-35.9c2.7-2.7,1.6-3,0.8-2.5c-0.6,0.3-1.1,0.7-1.5,1
	c-26.6,21.3-49.4,33.3-59.6,38.8c-6.2,3.3-1.8-2.8-0.5-4.7c7.8-10.6,16.9-19.5,25.9-25.5c21-14.1,32.3-14.2,42.1-20.3
	c2.3-1.5,5.1-3.3,7.2-4.7c1.6-1.1,3.1,0,1.9,2.7c-0.4,1-10.9,26.6-34.5,42c-19.7,12.9-30.4,11.2-33,11.5
	C480.7,376,483,374.1,484.6,373.2"/>
<path class="st1" d="M454.9,396.9c6.3,0.1,12.9-0.3,19.7-0.5c17.7-0.6,29.3-2.4,33.9-3.2c5.4-1,4.1-1.6,0.1-1.3
	c-2.4,0.2-20.5,1.6-33.7,1.8c-5.5,0.1-6,0.2-14.1,0c2.6-2.4,15.7-10.6,25.8-11.2c23-3.6,43.8,5.6,51.6,10.1c3.9,2.2,1.6,2.8,0.1,2.8
	c-28,0.9-32.2,11.8-65.1,9.9c-7.5-0.4-24.5-3.8-26.9-6.8C445.6,397.7,451.9,396.8,454.9,396.9"/>
<path class="st3" d="M379.2,391.8c11.3-10.6,16-20.2,41.4-25.3c20.6-4.1,29.6,2.4,61.6-2.6c14.7-2.3,10.2,4.5,6,10.1
	c-1.4,1.9-19.6,14.2-24.2,16.3c-9.3,4.2-21.4,8.8-38.7,10c-0.9,0.1-1.9,0.1-2.8,0.1c12.1,4.6,20.4,9.7,23.9,12.3
	c0.7,0.5,1.3,1.1,1.8,1.6c0.5,0.5,1.4,1.4,2,2.7c1.3,3,2,8.2-5.9,8.7c-1.7,0.1-25.9,3-29.2,3.5c-5.3,0.7-10,1.2-14.3-6.5
	c-9-16.3-23.8-26.4-23.8-29.3C377,393.5,378.1,392.9,379.2,391.8"/>
<path class="st1" d="M391.2,386.1c1.1-0.5,7.8-10,31.2-14.4c21-3.9,39.7,1.9,60.5-3.3c1-0.2,2.7,0.1,1.1,2.2
	c-1.2,1.6-2.9,3.5-4.6,4.9c-5.5,4.3-22,17.5-54.6,19.9c-5.8,0.4-15.4,0.2-26.2-2.1c-3.9-0.8-3.3-1.8-0.4-2.1
	c2.7-0.2,28.9-1.7,58.2-11.3c3.1-1,3-3.3-0.4-2.1c-5.3,1.8-42.1,10.3-63.7,11.5C390.7,389.2,388.6,388.2,391.2,386.1"/>
<path class="st1" d="M386.3,398.5c8.3,5.8,15.1,16,18.5,21.5c3.2,5.2,5.4,5,9.9,4.3c3.2-0.4,7.2-0.9,8.4-1.2c5-1.2-1.3-4.7-2.2-5.3
	c-7.2-5.3-13.9-9.6-17.7-11.5c-4-2.1-2.4-2.3-0.2-1.4c7.5,2.9,18.7,9.8,21.7,12.1c3.3,2.4,6.7,4.8,9.6,4.7c2.2,0,8.3-0.7,9.9-0.8
	c3.7-0.2,1.7-2.1-0.5-3.7c-5.9-4.5-25.3-17.5-57.4-20.7C385.6,396.3,384.9,397.5,386.3,398.5"/>
<path class="st3" d="M167.4,342.9c-6.4-0.8-12.1-3.4-17-6.5c-18.6-11.8-33.2-33.2-48.2-40.1c-3.1-1.5,0.9-5.6,8-6.5
	c9.8-1.3,49.9-2.9,92.4,41.9c-7.3-10.3-5.4-18.2-4.8-19.6c0.5-1,3.6-3.9,6-1.4c2.7,2.8,6.5,6.7,11.6,9.3c22.2,11.7,61,18.4,72,58
	c22.7-0.1,43.4,9.5,32.3,20c-7.4,6.9-28.1,11.9-36.8,12.6c-36.8,2.9-48.2-11-66.3-11.3c-3.7-0.1-9.4-3-7.1-6.2
	c1.6-2.2,5.1-7.8,21.1-10.9c2.9-0.3-11,3.5-32.1-2.7c-25.9-7.6-41.6-18.2-57.8-24.3c-6-2.2-2.7-6.5,0.4-7.7
	C143.3,346.5,150.2,342.6,167.4,342.9"/>
<path class="st1" d="M189.1,343.1c1.2,0.2-7-8.5-15-14.3c-19.2-13.9-34.8-20-35.5-20.3c-2.2-0.9-3-2.6-0.1-1.8
	c2.5,0.6,18.3,6.5,34.7,17.6c8,5.4,16,13,22,20c13,2.8,20.4,7.8,19.4,6.7c-44.7-52.5-91.5-58.9-103.4-56.9c-1.3,0.2-1.6,0.8-1.6,1.1
	c0,0.3,0,0.9,1.9,1.8c15.5,7.6,36,39.1,69.5,44.7C183.7,341.8,188.3,343,189.1,343.1"/>
<path class="st1" d="M236.9,373.6c-10.7-0.5-17.7-1.7-25-3.3c-12.9-2.8-23.1-6.4-28.9-8.7c-1.4-0.6-2.4-1.1-3.1-1.4
	c-2.5-1.5-1-2.3,0.8-1.7c0.5,0.2,1.2,0.4,1.5,0.6c1.6,0.6,8.8,3.4,25.4,7.3c9,2.1,16.1,2.7,21.2,3.1c2.8,0.2,6.5,0.2,3.2-2
	c-15.3-10.3-19.9-12.7-31.2-16.5c-25.1-8.6-54-1-56.8,0.6c6.4,1.6,28.2,13.7,47.7,20.4c20,6.8,42.9,6.3,46.5,6.2
	C245.5,377.7,242.4,373.9,236.9,373.6"/>
<path class="st1" d="M269.5,373.2c-27.6-15.8-46.4-32.1-50.2-35.9c-2.7-2.7-1.6-3-0.8-2.5c0.5,0.3,1.1,0.7,1.5,1
	c26.6,21.3,49.4,33.3,59.6,38.8c6.2,3.3,1.9-2.8,0.5-4.7c-7.8-10.6-16.9-19.5-25.9-25.5c-21-14.1-32.3-14.2-42.1-20.3
	c-2.3-1.5-5.1-3.3-7.2-4.7c-1.6-1.1-3.1,0-2,2.7c0.4,1,10.9,26.6,34.5,42c19.7,12.9,30.4,11.2,33,11.5
	C273.3,376,271,374.1,269.5,373.2"/>
<path class="st1" d="M299.1,396.9c-6.3,0.1-12.9-0.3-19.7-0.5c-17.7-0.6-29.3-2.4-33.9-3.2c-5.4-1-4.1-1.6-0.1-1.3
	c2.5,0.2,20.6,1.6,33.7,1.8c5.5,0.1,6,0.2,14.1,0c-2.6-2.4-15.7-10.6-25.8-11.2c-23-3.6-43.8,5.6-51.6,10.1
	c-3.9,2.2-1.6,2.8-0.1,2.8c28,0.9,32.2,11.8,65.1,9.9c7.5-0.4,24.5-3.8,26.9-6.8C308.4,397.7,302.2,396.8,299.1,396.9"/>
<path class="st3" d="M374.8,391.8c-11.3-10.6-16-20.2-41.4-25.3c-20.6-4.1-29.6,2.4-61.6-2.6c-14.7-2.3-10.2,4.5-6,10.1
	c1.4,1.9,19.6,14.2,24.2,16.3c9.3,4.2,21.5,8.8,38.7,10c0.9,0.1,1.9,0.1,2.8,0.1c-12.1,4.6-20.4,9.7-23.9,12.3
	c-0.7,0.5-1.3,1.1-1.8,1.6c-0.5,0.5-1.4,1.4-2,2.7c-1.3,3-2,8.2,5.9,8.7c1.6,0.1,25.9,3,29.2,3.5c5.3,0.7,10.1,1.2,14.3-6.5
	c9.7-17.6,23.8-26.4,23.8-29.3C377,393.5,375.9,392.9,374.8,391.8"/>
<path class="st1" d="M362.9,386.1c-1.2-0.5-7.8-10-31.3-14.4c-21-3.9-39.7,1.9-60.5-3.3c-1-0.2-2.7,0.1-1.1,2.2
	c1.2,1.6,2.9,3.5,4.6,4.9c5.5,4.3,22,17.5,54.6,19.9c5.8,0.4,15.4,0.2,26.2-2.1c3.9-0.8,3.3-1.8,0.4-2.1
	c-2.7-0.2-28.9-1.7-58.2-11.3c-3.1-1-3-3.3,0.4-2.1c5.3,1.8,42.1,10.3,63.7,11.5C363.3,389.2,365.4,388.2,362.9,386.1"/>
<path class="st1" d="M367.7,398.5c-8.3,5.8-15.1,16-18.5,21.5c-3.2,5.2-5.5,5-9.9,4.3c-3.2-0.4-7.2-0.9-8.4-1.2
	c-5-1.2,1.3-4.7,2.2-5.3c7.2-5.3,13.9-9.6,17.6-11.5c4-2.1,2.4-2.3,0.2-1.4c-7.5,2.9-18.7,9.8-21.7,12.1c-3.2,2.4-6.7,4.8-9.6,4.7
	c-2.3,0-8.3-0.7-9.9-0.8c-3.7-0.2-1.7-2.1,0.5-3.7c5.9-4.5,25.3-17.5,57.3-20.7C368.4,396.3,369.1,397.5,367.7,398.5"/>
<path class="st3" d="M547.9,54.3c-2.3-3.8-6.2-7.4-10.7-10.6c-14.2-10-37.2-17.1-49.1-29.4c-2.5-2.6-3.6,4.6-2.6,9.6
	c2.1,10.1,12.9,43.8,64.2,64.5c-16.1-3.4-20.1,1.8-21.2,2.8c-0.8,0.7-1.9,4.2,1,5.4c18.5,7.7,40.4,42.3,88.2,41.9
	c9.3,9.5,21.7,12.7,23.6,3.2c1.4-7.2,0.4-11.7-0.2-14.9c-5.3-31.9-29-46.2-33.4-55.5c-1-2.1-2.8-1-3.6,0.3
	c-1.4,2.2-2.7,16.4,0.9,31.4c0.7,2.7-3.8-15.9-14.6-29.8c-12.7-16.3-30.6-24.5-40.9-36.9c-1.5-1.8-2.8,0.8-3.1,2.8
	C546.2,41.1,545.7,46.9,547.9,54.3"/>
<path class="st1" d="M554.6,72.1c0.6,1-9.9-3.3-17.7-8.4c-18.6-12.2-29.2-23.8-29.7-24.3c-1.5-1.6-3.3-1.8-1.7,0.5
	c1.3,1.9,11.7,13.9,27,24.5c7.4,5.2,16.8,9.7,25.1,12.6c6.7,10.5,13.6,15.3,12.2,14.8c-61.7-21.6-79.4-57.3-80.7-68.6
	c-0.1-1.3,0.2-1.8,0.5-1.9c0.3-0.1,0.9-0.3,2.4,1.2c12.6,12.4,43.1,15.6,58.8,43C551.7,67.9,554.1,71.5,554.6,72.1"/>
<path class="st1" d="M597.4,104c-3.7-7.6-6.8-12.3-10.3-17c-6.2-8.4-12.3-14.6-15.9-18c-0.9-0.8-1.6-1.4-2.1-1.8
	c-1.9-1.3-2.2,0.1-1.1,1.2c0.3,0.3,0.7,0.7,0.9,0.9c1,0.9,5.4,5.2,13.7,15.9c4.5,5.8,7.2,10.8,9,14.4c1,2,2.1,4.8-0.6,3
	c-12.3-8-14.8-10.2-21.4-17.1c-14.6-15.3-19-38.8-18.6-41.4c3.3,4.1,19.7,15.8,31.1,27.7c11.6,12.2,18.3,29,19.3,31.6
	C603.3,108.8,599.3,107.9,597.4,104"/>
<path class="st1" d="M608.1,124.5c-24.4-15.9-46.5-23.5-51.3-25c-3.4-1.1-3.3-0.1-2.5,0.4c0.5,0.3,1,0.6,1.5,0.8
	c29,12.8,48.7,25.4,57.4,31.4c5.3,3.7-1.8,2.7-3.9,2.3c-12.3-2-23.7-5.6-32.4-10.5c-20.5-11.2-25.3-19.4-34.5-24.9
	c-2.2-1.3-4.9-2.7-6.9-3.9c-1.5-0.8-1.1-2.5,1.7-2.7c1-0.1,27.8-1.6,50.3,11.2c18.9,10.7,21.9,18.6,23.2,20.6
	C612,126.5,609.5,125.4,608.1,124.5"/>
<path class="st1" d="M633.9,142.4c-1.4-6.6-3.3-10.2-5.9-16.8c-5.3-13-10-21-11.9-24.1c-2.3-3.7-2.5-2.5-1.1,0.4
	c0.8,1.7,7,14.7,10.7,24.4c2.1,5.7,3.1,8.7,5.1,14.7c1.2,4.5-7.1-0.9-10.3-6.1c-13.3-23.4-12.9-38.5-13.6-53.5
	c-0.2-3.6,1.3-3.2,1.8-2.1c0.6,1.1,17,18.5,20.3,26.3c4.1,9.4,8.2,17.3,8.7,30.2C637.8,139.5,637,142.4,633.9,142.4"/>
<path class="st0" d="M405.3,21.9l-11,54.6c0,0-2.1,11.3,4.9,20.4c6.5,7.7,6.3,6.6,12.7,12.9c2.7,2.7,6.9,6.8,8.6,9.6
	c0.9,1.7,5.4,7.8,5.4,7.8s5.8-2.7,8.6-3.7c4.4-1.5,8.7-2,12.1-3c13.4-3.3,25.8-5.9,29.6-23.2c2-9,8-32.7,11.6-46.6
	c1.5-5.8,4-7.3,4-7.3s-13.4-12.9-41.7-20C424.1,16.9,405.3,21.9,405.3,21.9"/>
<path class="st4" d="M413.2,24.3l-10.9,51.4c0,0-6.7,11.9,1.1,18.4c7.8,6.5,12.3,12,15.8,16.7c6.6,8.9,7.8,12.4,7.8,12.4
	s5.6-3.3,15.5-5.8c10.9-2.8,22.7-3.9,26.6-19.6c2.7-10.9,12.5-49.2,13.7-54.6c0.2-0.6,0-0.8-0.4-1c-2.1-1.2-10.5-6.5-32-12.1
	C427.4,24,413.2,24.3,413.2,24.3"/>
<path class="st0" d="M379.2,2.3c27,0.4,48.2,8.4,48.2,8.4l-2.3,3.8v57.8c0,10.2-3.7,15.8-10,20.5c-5,5.3-28.4,12.5-35.6,20.3
	c-1.4,1.6-3.9-3.1-4.2-3.4c-0.6-0.7-7.6-5.9-10.8-7.9c-3.6-2.3-6.3-4.2-9.4-5.8c-3.2-1.7-5.8-4.4-9.7-7.7
	c-4.9-4.2-9.3-6.9-10.6-11.3c-1.4-4.4-1.6-10.9-1.6-10.9l0-56.7C333.3,9.4,352.4,1.9,379.2,2.3"/>
<path class="st2" d="M338.3,13.4l0,52.8c0,0,0.6,14,9.2,21.3c7.4,6.3,9.2,4.5,16.7,8.9c10,5.9,15.4,13.1,15.4,13.1
	c0,0.3,3.6-4.5,13.6-9.5c12.4-6.2,25.8-9.6,25.8-26.5V13.2c0-0.3-0.2-0.6-0.6-0.7c-2.9-0.7-15.1-3.9-38.9-3.9
	c-22.8,0-37.2,3.1-40.4,3.9C338.3,12.6,338.3,13.4,338.3,13.4"/>
<path class="st1" d="M333.3,9.4c0,0,18.3-9.4,45.9-9.4c26.9,0,46.3,10,46.3,10s-22.1-5.4-46-5.4C354.6,4.6,333.3,9.4,333.3,9.4
	 M427.4,10.7l-0.1,60.5c0,29.3-26.4,26.3-47.8,42.1c11.2-15.3,42.8-15.2,42.8-38.6V14.5C422.4,10.7,427.4,10.7,427.4,10.7
	 M359.1,100.5c5.4,2.7,14.8,8.7,20.5,12.9c-3.7-5.1-12.6-12-18.4-15.4L359.1,100.5z M491.9,43.4l-13.2,53.3
	c-6.6,28.5-27.7,21.7-52.8,30.6c12.4-10.5,41.9-5.6,47.2-28.4c1.2-5,12.7-52.2,12.7-52.2C487,41.1,491.9,43.4,491.9,43.4
	 M402.8,103.5c5.8,4.6,15.8,16.1,23,23.9c-3.5-7.6-11.5-19.1-19.5-25.6L402.8,103.5z"/>
<path class="st1" d="M462.3,24.7c21.5,6.7,26.9,16.6,26.9,16.6s-11-7.9-31.2-13.7c-9.9-2.9-28-5.5-28-5.5S442.5,18.5,462.3,24.7"/>
<path class="st0" d="M417.1,42c-6.5-0.8-7.8-7.3-6.5-7.9c1.3-0.6,6.2-2.3,6.2-5.9c0-3.5-6.3-4.9-16.8-4.7
	c-12.3,0.3-17.1-0.9-17.1-4.2c0-2.6,3.8-2.8,8.7-1.5c1.7,5.9,10.4,4.3,13.7-0.3c0.6-0.8,0.5-1.3-0.2-1c-2,0.7-4.6,0.7-7,0.5
	c-3.8-0.2-8.6-2.1-12.7-2.2c-3.7-0.1-4.9,1.6-4.7,4.8c0.2,4.5,6.3,5.7,13.5,5.7c11.7,0,18.9,0.3,19.3,3.1c0.2,1.7-2.7,4.1-10.9,4.1
	c-8.2,0-14.7-6.6-23-6.6c-5.6,0-10.8,3.1-15.7,8.1c-4.3-3.9-11.2-8.1-14-7.8c-4.3,0.5-5.2,3.6-4.3,6.2c1.9-1.4,4-1.4,5.2-1.4
	c1.2,0.1,3.6,0.5,5.3,2c1.6,1.4,2.3,4.9,2.7,6c0.4,1,2.3,3.4,6,3.7c-3,1.6-5.6,1.9-7.7,1.4c-1.6-0.4-1.9-1.4-5.6-1.4
	c-3.7,0-6,2.6-3.9,5.6c3.5-1.9,4.3-0.9,6.4,0.5c5.8-1.5,10.5-0.3,15.3,1.8c0.4,0.2,0.7-0.3,0.6-0.7c-1.7-8.9,9.7-9.3,10.2-15.4
	c0.1-0.5,0.6-0.8,0.6-0.2c0.6,6.7-3.2,5.8-5.3,8.7c8.8,1.8,13.2-9.7,25-5.3c1.3,4.3,3,4.4,8.4,5.5c1.1,0.2,1.5,0.1,1.5,0.6
	c0.3,2.7-1.7,4.1-6,3.3c-2.5-0.4-4,2.4-2.5,5.1c4-0.8,6.8,0.1,10.6,0.8c0.3-3.7,3-6.1,5.5-7C417.6,44.7,417.1,43.8,417.1,42
	 M353.8,22.6c0-1.5,1.6-2.5,3.2-3.4c-2.1-1.1-1.7-3.4-0.6-4.6c0.3-0.4,0.4-0.5,0.7-0.2c0.8,1,1.8,1.9,3,2.2c2-1.2,5.7-1.4,8.4,0.1
	c1.2-0.2,2-0.6,3.5-1.9c0.5-0.5,0.8-0.3,1.1,0.2c0.8,1.5,0.2,3.9-1.9,4.7c0.9,0.6,1.8,1.6,1.8,3.1c0,1.8-0.5,3.5-3,4.2l-3.4,2.4
	c-0.7,0.7-2.9,1.9-3.7,1.9c-0.9,0-1.6-0.3-2.5-1.3c-1-1.2-1.3-1.8-2.1-3.4C356.3,26.6,353.8,24.6,353.8,22.6"/>
<path class="st0" d="M413.8,80.7c-6.3-1.6-7.1-6.9-5.9-7.5c1.2-0.6,5.7-2.2,5.7-5.6c0-3.3-5.8-4.7-15.5-4.4
	c-11.3,0.2-15.7-0.9-15.7-4c0-2.5,3.5-2.6,8-1.4c1.6,5.6,9.6,4,12.6-0.3c0.5-0.8,0.5-1.2-0.2-0.9c-1.8,0.7-4.3,0.6-6.4,0.5
	c-3.5-0.2-7.4-1.9-11.1-2c-3.4-0.1-5,1.5-4.9,4.5c0.2,4.2,5.8,5.4,12.4,5.4c10.7-0.1,17.4,0.3,17.7,3c0.2,1.6-2.5,3.9-10,3.9
	c-7.5,0-13.5-6.2-21.1-6.2c-5.1,0-9.9,3-14.5,7.7c-3.9-3.7-10.2-7.7-12.9-7.4c-3.9,0.5-4.8,3.4-3.9,5.8c1.7-1.3,3.9-2,5-2
	c1.1,0.1,2.2,0.2,4.6,2.3c2.6,2.2,2.7,4.7,3.1,5.7c0.3,1,0.7,3.3,4.1,3.5c-2.8,1.5-4.3,2-6.3,1.6c-1.5-0.3-1.7-1.3-5.2-1.3
	c-3.4,0-5.5,2.5-3.6,5.3c3.2-1.8,4-0.9,5.9,0.5c5.3-1.4,9.7-0.7,14,1.2c0.3,0.2,0.6-0.3,0.6-0.7c-1.5-8.4,9-8.4,9.4-14.1
	c0.1-0.5,0.5-0.7,0.6-0.2c0.6,6.3-2.9,5.5-4.8,8.3c8.1,1.7,12.1-9.2,22.9-5c1.2,4.1,2.8,5.1,7.8,5.7c1,0.1,1.2-0.3,1.3,0.1
	c0.2,2.6-1.5,3.8-5.6,3.1c-2.2-0.4-3.7,2.3-2.3,4.8c3.5-0.6,6.4-0.1,9.9,0.6c0.2-3.5,2.8-5.6,5.1-6.5
	C414.2,83.5,413.8,82.5,413.8,80.7 M356.9,62.8c0-1.4,0.3-2.6,1.8-3.5c-2-1-1.6-3.2-0.6-4.4c0.3-0.4,0.4-0.5,0.6-0.1
	c0.8,0.9,1.6,1.8,2.8,2.1c1.8-1.1,5.3-1.3,7.7,0.1c1.1-0.2,1.8-0.5,3.2-1.8c0.5-0.5,0.8-0.4,1,0.1c0.7,1.4,0.2,3.7-1.7,4.5
	c0.8,0.6,1.6,1.5,1.6,3c0,1.7-1,3.3-3.3,4l-2.5,2.3c-0.6,0.6-2.8,2.8-3.6,2.8c-0.8,0-1.4-1.6-2.2-2.2l-1.9-3.2
	C357.9,65.6,356.9,64.6,356.9,62.8"/>
<path class="st1" d="M415,40.3c-6.8-1.7-7.3-7.4-6-8c1.3-0.6,6.2-2.3,6.2-5.9c0-3.5-6.3-4.9-16.9-4.7c-12.3,0.3-17.1-0.9-17.1-4.2
	c0-2.6,3.9-2.8,8.7-1.5c1.7,5.9,10.4,4.3,13.7-0.3c0.6-0.8,0.5-1.3-0.2-1c-2,0.7-4.6,0.7-7,0.5c-3.8-0.3-6.9-1.9-10.9-1.9
	c-3.7-0.1-6.6,1.4-6.4,4.5c0.2,4.5,6.3,5.7,13.5,5.7c11.7,0,18.9,0.3,19.3,3.1c0.2,1.7-2.7,4.1-10.9,4.1c-8.2,0-14.7-6.6-23-6.6
	c-5.6,0-10.8,3.1-15.7,8.1c-4.3-3.9-11.2-8.1-14-7.8c-4.3,0.5-5.2,3.6-4.3,6.2c1.9-1.4,4.2-2.1,5.5-2.1c1.3,0.1,2.4,0.2,5.1,2.4
	c2.8,2.3,3,5,3.3,6c0.4,1.1,1.7,3.7,5.3,4c-3,1.6-5.6,1.9-7.7,1.4c-1.6-0.4-1.9-1.4-5.6-1.4c-3.8,0-6,2.6-3.9,5.6
	c3.5-1.9,4.3-0.9,6.4,0.5c5.8-1.5,10.5-0.8,15.3,1.3c0.4,0.2,0.7-0.3,0.6-0.7c-1.7-8.9,9.8-8.8,10.2-14.9c0.1-0.5,0.6-0.8,0.6-0.2
	c0.6,6.7-3.2,5.8-5.3,8.7c8.8,1.8,13.2-9.7,25-5.3c1.3,4.3,3,4.4,8.4,5.5c1.1,0.2,1.4,0.1,1.5,0.6c0.3,2.7-1.7,4-6,3.3
	c-2.4-0.4-4,2.4-2.5,5.1c4.6-0.9,6.7-0.5,10.4,0.2c0.3-3.7,2.7-5.4,5.2-6.4C415.4,43.1,415,42.1,415,40.3 M364.5,24.3
	c-0.7-0.3-1.2-0.8-1.7-1.4c-0.3-0.4-0.9-0.4-1.1-0.1c-0.6,0.5-1.3,1.3-1.9,1.6c0.1,0-0.3,0.4,0.5,0.4c0.9,0,2.6,0,3.9,0
	C364.6,24.6,364.5,24.3,364.5,24.3 M357.6,18.1c1.9-0.2,3.9,1.1,2.6,4.1c-0.5-0.5-1.1-0.8-1-1.5C358,20.7,357.5,20,357.6,18.1
	 M366.7,18.4c0,1.9-0.6,2.4-1.8,2.4c0,0.7-0.5,1.1-1.1,1.6C362.8,19.3,364.8,18.1,366.7,18.4 M353.4,21.2c0-1.5,0.3-2.8,1.9-3.7
	c-2.1-1.1-1.7-3.4-0.7-4.6c0.3-0.4,0.4-0.5,0.7-0.1c0.8,1,1.8,1.9,3,2.2c2-1.2,5.7-1.4,8.4,0.1c1.2-0.2,2-0.5,3.5-1.9
	c0.5-0.5,0.7-0.4,1,0.1c0.8,1.5,0.2,4-1.9,4.8c0.8,0.6,1.9,1.6,1.9,3.1c0,1.8-1.1,3-3.6,3.7l-2.8,2.9c-0.7,0.7-2,1.4-2.9,1.4
	c-0.9,0-2-0.6-2.8-1.4l-2.6-2.9C354.6,24.1,353.4,23.1,353.4,21.2"/>
<path class="st1" d="M412.2,79.2c-6.3-1.6-6.7-7-5.5-7.5c1.2-0.6,5.7-2.2,5.7-5.6c0-3.3-5.8-4.7-15.5-4.4c-11.3,0.2-15.7-0.8-15.7-4
	c0-2.5,3.5-2.6,8-1.4c1.6,5.6,9.6,4,12.6-0.2c0.5-0.8,0.5-1.2-0.2-0.9c-1.8,0.6-4.3,0.6-6.4,0.5c-3.5-0.2-6.3-1.8-10-1.8
	c-3.4-0.1-6.1,1.3-5.9,4.3c0.2,4.3,5.8,5.4,12.4,5.4c10.7,0,17.4,0.3,17.7,3c0.2,1.6-2.5,3.9-10,3.9c-7.5,0-13.5-6.2-21.1-6.2
	c-5.1,0-9.9,3-14.4,7.7C360,68,353.6,64,351,64.4c-3.9,0.5-4.8,3.4-3.9,5.8c1.7-1.3,3.9-1.9,5-1.9c1.1,0.1,2.2,0.2,4.6,2.2
	c2.6,2.2,2.7,4.7,3.1,5.7c0.3,1,0.7,3.3,4.1,3.5c-2.8,1.5-4.3,2-6.3,1.6c-1.5-0.3-1.7-1.3-5.1-1.3c-3.4,0-5.5,2.5-3.6,5.3
	c3.2-1.8,4-0.9,5.9,0.5c5.3-1.4,9.7-0.7,14,1.2c0.3,0.2,0.6-0.3,0.6-0.7c-1.5-8.4,9-8.3,9.4-14.1c0.1-0.5,0.5-0.7,0.6-0.2
	c0.6,6.3-2.9,5.5-4.8,8.2c8.1,1.7,12.1-9.2,23-5c1.2,4.1,2.7,4.2,7.7,5.2c1,0.2,1.3,0.1,1.4,0.5c0.2,2.6-1.5,3.8-5.5,3.1
	c-2.2-0.4-3.7,2.3-2.3,4.8c4.2-0.9,6.1-0.5,9.5,0.2c0.2-3.5,2.4-5.1,4.7-6C412.6,81.8,412.2,81,412.2,79.2 M365.7,64.1
	c-0.7-0.3-1.1-0.8-1.6-1.4c-0.3-0.4-0.8-0.4-1-0.1c-0.5,0.5-1.1,1.3-1.8,1.5c0.1,0-0.2,0.4,0.5,0.4c0.8,0,2.4,0,3.6,0
	C365.9,64.4,365.7,64.1,365.7,64.1 M359.5,58.3c1.8-0.2,3.5,1.1,2.4,3.9c-0.5-0.4-1-0.8-1-1.4C359.8,60.7,359.3,60.1,359.5,58.3
	 M367.8,58.6c0,1.8-0.5,2.3-1.6,2.2c0,0.6-0.5,1.1-1,1.5C364.2,59.5,366.1,58.3,367.8,58.6 M355.6,61.2c0-1.4,0.3-2.6,1.8-3.5
	c-2-1-1.6-3.2-0.6-4.4c0.3-0.3,0.4-0.5,0.7-0.1c0.8,0.9,1.6,1.8,2.8,2.1c1.8-1.1,5.3-1.3,7.7,0.1c1.1-0.2,1.9-0.5,3.2-1.8
	c0.5-0.5,0.7-0.4,0.9,0.1c0.7,1.4,0.2,3.8-1.7,4.5c0.8,0.6,1.8,1.5,1.8,3c0,1.7-1,2.8-3.3,3.5l-2.6,2.7c-0.6,0.6-1.9,1.3-2.6,1.3
	c-0.8,0-1.9-0.6-2.6-1.3l-2.4-2.7C356.7,64,355.6,63,355.6,61.2"/>
<path class="st0" d="M263.4,43.6l3.7,2.9L283,100c0,0,2.1,9,12.6,13.6c9.1,4,10.6,2.8,19.6,4.8c6.1,1.5,9.7,2.2,12.5,3.9
	c1.2,0.5,2,0.6,4.4,1.8c0.7-1.5,2.4-3,3.9-5.4c1.4-2.3,4.6-4.6,6.7-6.7c8.8-8.7,25.5-16.9,18.7-39.7c-4.2-12.6-12.3-52.7-12.3-52.7
	s-16.5-3.7-44.8,3.9C278.4,30.3,263.4,43.6,263.4,43.6"/>
<path class="st1" d="M265.2,42.2c0,0,11.4-12.9,36.8-20.3c22.7-6.6,43.5-2.9,43.5-2.9s-21,0.1-41,6.5
	C280.5,33.1,265.2,42.2,265.2,42.2 M349.1,19.5l14.5,54.1c7.6,28.3-14.9,28.4-31.6,50.6c5.6-16.4,33.8-23.3,27.7-45.9
	c-1.3-5-14.3-53.3-14.3-53.3C343.9,19.4,349.1,19.5,349.1,19.5 M263.5,43.6l15.6,51.9c8.5,28,27.1,18.6,53,28.5
	c-13.4-10.9-40-2.8-47.5-26.4c-1.5-4.9-14.2-50.6-14.2-50.6C268.7,41.6,263.5,43.6,263.5,43.6"/>
<path class="st5" d="M273.5,44.4c0.1,0.6,14.2,51.3,14.2,51.3c4.9,16.6,22.8,17.4,30.4,19.6c7.4,2.1,13.4,5.5,13.2,5.6
	c-0.2,0.1,2.4-5.3,7.5-10.7c6.8-7.2,21.6-15.3,17.2-30.8c-3-10.5-12.8-48.7-14.6-55.5c-0.2-0.8-0.7-1.2-1.5-1.3
	c-3.2-0.1-13.4,0.3-33.4,6.1c-19.8,5.8-29.4,11.9-32.4,14C273.5,43.3,273.3,44,273.5,44.4"/>
<path class="st2" d="M366.7,18.4c0,1.9-0.6,2.4-1.8,2.4c0,0.7-0.5,1.1-1.1,1.6C362.8,19.3,364.8,18.1,366.7,18.4"/>
<path class="st2" d="M357.6,18.1c1.9-0.2,3.9,1.1,2.6,4.1c-0.5-0.5-1.1-0.8-1-1.5C358,20.7,357.5,20,357.6,18.1"/>
<path class="st2" d="M364.5,24.3c-0.7-0.3-1.2-0.8-1.7-1.4c-0.3-0.4-0.9-0.4-1.1-0.1c-0.6,0.5-1.3,1.3-1.9,1.6
	c0.1,0-0.3,0.4,0.5,0.4c0.9,0,2.6,0,3.9,0C364.6,24.6,364.5,24.3,364.5,24.3"/>
<path class="st2" d="M367.8,58.6c0,1.8-0.5,2.3-1.6,2.2c0,0.6-0.5,1.1-1,1.5C364.2,59.5,366.1,58.3,367.8,58.6"/>
<path class="st2" d="M359.5,58.3c1.8-0.2,3.5,1.1,2.4,3.9c-0.5-0.4-1-0.8-1-1.4C359.8,60.7,359.4,60.1,359.5,58.3"/>
<path class="st2" d="M365.7,64.1c-0.7-0.3-1.1-0.8-1.6-1.4c-0.3-0.4-0.8-0.4-1-0.1c-0.5,0.5-1.1,1.3-1.8,1.5c0.1,0-0.2,0.4,0.5,0.4
	c0.8,0,2.4,0,3.6,0C365.9,64.4,365.7,64.1,365.7,64.1"/>
<path class="st0" d="M445.9,46l-1-1.1c-0.9,1.9-1.9,8-4.4,13.4c-3.5,7.8-4.9,9.3-4.9,9.3s1.6,0.7,3.3,4C441.1,70,445,70,445,70
	s-0.9-6-0.6-10.8C444.8,54.4,445.9,46,445.9,46"/>
<path class="st0" d="M434.1,43.9c0.6-2.3,3.1-3.8,5.6-3.3c2.5,0.5,4,2.9,3.5,5.2c-0.6,2.4-3.1,3.8-5.6,3.3
	C435.1,48.6,433.5,46.3,434.1,43.9"/>
<path class="st0" d="M447.8,46.5c0.6-2.3,3.1-3.8,5.6-3.3c2.5,0.5,4,2.9,3.5,5.2c-0.6,2.3-3.1,3.8-5.6,3.3
	C448.8,51.2,447.2,48.8,447.8,46.5"/>
<path class="st0" d="M442.6,37.8c0.6-2.3,3.1-3.8,5.6-3.3c2.5,0.5,4,2.9,3.5,5.2c-0.6,2.3-3.1,3.8-5.5,3.3
	C443.6,42.5,442,40.1,442.6,37.8"/>
<path d="M444.9,44.7c0,0-2.2,4.8-5.8,12.5c-3.5,7.7-4.9,9.6-4.9,9.6s1.9,0.9,3.3,3.8c2.8-1.7,6.1-1.7,6.1-1.7s-0.9-6-0.6-10.8
	C443.4,53.3,444.9,44.7,444.9,44.7"/>
<path d="M432.8,42.8c0.6-2.4,3-3.8,5.5-3.3c2.5,0.5,4.1,2.9,3.5,5.2c-0.6,2.4-3.1,3.8-5.5,3.3C433.8,47.5,432.2,45.1,432.8,42.8"/>
<path d="M446.5,45.4c0.6-2.4,3.1-3.8,5.6-3.3c2.5,0.6,4,2.9,3.5,5.2c-0.6,2.3-3.1,3.8-5.6,3.3C447.5,50,445.9,47.7,446.5,45.4"/>
<path d="M441.2,36.7c0.6-2.3,3.1-3.8,5.6-3.3c2.5,0.5,4,2.9,3.5,5.2c-0.6,2.3-3.1,3.8-5.6,3.3C442.2,41.4,440.7,39,441.2,36.7"/>
<path class="st0" d="M463.5,68.7l-1-1.1c-0.9,1.9-1.9,8-4.4,13.4c-3.5,7.7-5.4,8.5-5.4,8.5s2.2,1.5,3.8,4.9c3.3-1.6,6.1-1.8,6.1-1.8
	s-0.9-6-0.6-10.8C462.3,77.1,463.5,68.7,463.5,68.7"/>
<path class="st0" d="M451.7,66.6c0.6-2.4,3.1-3.8,5.6-3.3c2.5,0.5,4,2.9,3.5,5.2c-0.6,2.3-3.1,3.8-5.6,3.3
	C452.7,71.3,451.1,69,451.7,66.6"/>
<path class="st0" d="M465.4,69.2c0.6-2.3,3.1-3.8,5.6-3.3c2.5,0.5,4.1,2.9,3.5,5.2c-0.6,2.4-3.1,3.8-5.6,3.3
	C466.4,73.9,464.8,71.5,465.4,69.2"/>
<path class="st0" d="M460.2,60.5c0.6-2.3,3.1-3.8,5.6-3.3c2.5,0.5,4.1,2.9,3.5,5.2c-0.6,2.3-3.1,3.8-5.6,3.3
	C461.1,65.2,459.6,62.8,460.2,60.5"/>
<path d="M462.5,67.4c0,0-2.2,4.8-5.8,12.5c-3.5,7.7-4.9,9.6-4.9,9.6s2.4,1.1,3.3,3.8c3-1.8,6.1-1.8,6.1-1.8s-0.9-6-0.6-10.8
	C461,76,462.5,67.4,462.5,67.4"/>
<path d="M450.4,65.5c0.6-2.3,3.1-3.8,5.6-3.3c2.5,0.5,4.1,2.9,3.5,5.2c-0.6,2.3-3.1,3.8-5.6,3.3C451.3,70.2,449.8,67.8,450.4,65.5"
	/>
<path d="M464.1,68.1c0.6-2.3,3.1-3.8,5.6-3.3c2.5,0.5,4,2.9,3.5,5.2c-0.6,2.3-3.1,3.8-5.6,3.3C465,72.8,463.5,70.4,464.1,68.1"/>
<path d="M458.8,59.4c0.6-2.3,3.1-3.8,5.6-3.3c2.5,0.5,4.1,2.9,3.5,5.2c-0.6,2.3-3.1,3.8-5.6,3.3C459.8,64,458.2,61.7,458.8,59.4"/>
<path class="st0" d="M437.8,89.9l-1-1.1c-0.9,1.9-1.9,8-4.4,13.4c-3.5,7.8-5,9.3-5,9.3s2.1,1.5,3.5,4.1c2.7-1.7,6.3-1.7,6.3-1.7
	s-1.2-6.1-0.8-10.8C436.6,98.4,437.8,89.9,437.8,89.9"/>
<path class="st0" d="M426,87.9c0.6-2.3,3.1-3.8,5.6-3.3c2.5,0.5,4,2.9,3.5,5.2c-0.6,2.3-3.1,3.8-5.6,3.3
	C426.9,92.6,425.4,90.2,426,87.9"/>
<path class="st0" d="M439.7,90.4c0.6-2.4,3.1-3.8,5.6-3.3c2.5,0.5,4.1,2.9,3.5,5.2c-0.6,2.4-3.1,3.8-5.6,3.3
	C440.7,95.1,439.1,92.8,439.7,90.4"/>
<path class="st0" d="M434.4,81.7c0.6-2.3,3.1-3.8,5.6-3.3c2.5,0.5,4.1,2.9,3.5,5.2c-0.6,2.4-3.1,3.8-5.5,3.3
	C435.4,86.4,433.8,84.1,434.4,81.7"/>
<path d="M436.8,88.7c0,0-2.2,4.8-5.8,12.5c-3.5,7.7-4.9,9.6-4.9,9.6s2,1.3,3.3,3.8c2.8-1.5,6.1-1.8,6.1-1.8s-0.9-6-0.6-10.8
	C435.3,97.2,436.8,88.7,436.8,88.7"/>
<path d="M424.6,86.8c0.6-2.4,3.1-3.8,5.6-3.3c2.5,0.5,4.1,2.9,3.5,5.2c-0.6,2.3-3.1,3.8-5.6,3.3C425.6,91.4,424.1,89.1,424.6,86.8"
	/>
<path d="M438.3,89.3c0.6-2.3,3.1-3.8,5.6-3.3c2.5,0.5,4,2.9,3.5,5.2c-0.6,2.4-3.1,3.8-5.6,3.3C439.3,94,437.8,91.6,438.3,89.3"/>
<path d="M433.1,80.6c0.6-2.3,3-3.8,5.6-3.3c2.5,0.6,4.1,2.9,3.5,5.2c-0.6,2.3-3.1,3.8-5.6,3.3C434.1,85.3,432.5,83,433.1,80.6"/>
<path class="st0" d="M302.3,39.7c0,1.8-0.5,2.3-1.6,2.2c0,0.6-0.5,1.1-1,1.5C298.7,40.6,300.5,39.4,302.3,39.7"/>
<path class="st0" d="M339.4,74.8c0.5,3-1.3,5.1-1.8,6.1c1.4,5.5,8.6,4.5,10.7,5c0.6,0.1,1.2,0.6,0.8,2.7c-1.6,4.3-1.6,8.3-1.4,10.2
	c0.1,0.5-0.6,1.6-0.9,1.8c-4.3,0.9-6.6,1.8-10.3,3.3l-0.7-0.7c-0.8-1-0.3-2.7,0.8-3.3c-0.5-0.5-0.1-1.3,0.3-1.7c2-1.3,4-0.6,6-0.9
	c1-2.1,1.8-4.7,0.5-6.8c-0.3-0.5-1.4-0.6-2-0.6c-4.1-0.1-7.9,1-12,1.5c-1.9,0.3-8.2,1-10.3-2.6c-1.3-2.2-0.7-5.8-0.2-6.5
	c0.1-0.2-0.1-0.3-0.2-0.2c-1.1,0.6-2.7,2.6-2.6,5.4c0.3,7.3,6.8,7.4,8.1,7.6c0.3,0,1.1,0.5,0.8,1.6c-1.4,3.5-1.8,6.6-2.3,10
	c-4.2,1.3-8.9,2.6-13.5,4c-0.9-0.8-1.1-2.1,0.2-2.9c0.2-0.2,0-1.3,0.7-1.9c1.9-1.6,5.3-1.7,7.2-1.6c0.3-0.2,1.2-1.6,1.3-3.8
	c0.1-1.1-0.4-3.3-0.6-3.5c-4.7-0.9-7.3-0.2-11.7-3.4c-1.6-0.9-4.6-5.4-2.8-9.1c0.3-1.1,2.4-4.4,6.7-6.5c2.3-1.1,6.3-2.3,8.7-2.4
	c-2.7-0.9-9.1,0-13-5c-1.2,0.6-2.8,1.2-5.2,0.9c-2.5-0.5-5.3-1.9-6.6-2.7c-0.7-0.5-2.2-2.3-3.9-1.6c-0.4,0.2-1.3,0.6-1.3,0.6
	c-0.9-4-3.7-4.8-3.8-4.8c0.4-0.8,0.7-1.1,1.4-1.6c1.1-0.7,1.3-2.3,3.4-1.1c2.5,1.4,4.7,5.3,8.6,5.8c1.7,0.2,3.2,0,4.4-0.4
	c0-0.3,0.2-1.5-0.5-1.2c-0.7,0.2-6.1-1.5-8.3-6.5c-1.4-3.1-3.2-4.6-4.8-5.2c-1.6-0.7-4.2,0.4-4.6,0.7c0.3-2-1.6-4.5-1.9-4.8
	c-0.1-0.4-1.6-0.2-1.3-0.4c1.1-1.9,4.7-1.9,4.9-1.9c2.4,0.2,4.5,1,6.5,3.1c1.7,1.8,2,3.2,3.7,5.8c1.1,1.6,1.3,2.4,2.8,3.1
	c1.6,0.8,3.2,0.6,3.2,0.6s2.1-1.4,3.5-4.5l-1.2-1.4c-2.4,1.1-3.5,0.9-4.4-0.6c-0.9-1.5-0.2-2.6,0.3-1.6c0.2,0.4,0.5,0.5,1.4,0.3
	c1.3-0.3,2.6-1.5,2.1-3.4c-0.5-1.9-2.4-2.2-4-1.8c-1.3,0.4-1.8,1-1.5,2.5c0.1,0.4-0.3,0.6-0.5,0.5c-1.4-1.6-1.8-3.4-1-4.5
	c-0.8-0.6-1.1-1.1-1.1-1.1c0.9-1.2,4.3-2.1,5.3-2.2c1-0.1,0.9,0.4,0.4,0.5c-1.1,0.3-3,1.2-1.8,1.2c1.2,0,1.5,1.1,2.4-0.3
	c0.9-1.3,3.2-2,1.9-2c-1.3,0-1.6-1.1-3.2-0.8c-0.5,0.1-0.3-0.7-0.3-0.7c1.1-0.5,2.1-1.4,2.7-2.5c0.6-1.1,1,0.2,0.6,1.3l0.8,0.1
	c2-5.7,7-2.5,9.7-4.9c0.4-0.4,0.8-0.4,0.6,0.2c-0.3,0.8-0.3,1.7,0,2.5c0.3,0,0.5,0,0.8,0c4.8,0.5,10.4,4,11.3,11
	c0.6,5.1,1.8,7.2,4.9,10c-5.7,0-8.8-3.8-8.8-3.8c2.1,6.8,4.9,7.5,7.2,8.9c-4.8,0.1-8.5-2.3-8.5-2.3s1.2,4.5,7.7,7.2
	c2.5,1,6.5,0.9,8.2,4.5l0.2,0c2.9-0.7,5-2.2,4.3-5.7c-1.2-6.4-12-10.7-13.4-18c-0.9-4.8,1.3-7.2,4.4-7.7c3.7-0.6,5.7,1.1,6.2,4.1
	c0.6,3.1,1.4,6.7,4.7,6.9c1,0.1,1.7,0.6-0.1,1.1c-7,2.1-8.8-1.6-8.8-7.1c0-1.5-0.3-3.1-2.6-2.6c-1.3,0.3-2.3,2.3-1.9,4.7
	c1.3,6.8,13.8,10.8,15.4,18.7c0.8,4.2-2.8,7.8-6.7,8.7C339.4,74.5,339.3,74.7,339.4,74.8L339.4,74.8"/>
<path class="st1" d="M337.4,72.8c0.5,3-1.3,5.1-1.8,6.1c1.4,5.5,8.6,4.5,10.7,5c0.6,0.2,1.3,0.5,0.8,2.7c-1.6,4.3-1.6,8.3-1.4,10.2
	c0,0.5-0.6,1.6-0.9,1.7c-4.3,0.9-6.7,1.8-10.3,3.3l-0.7-0.7c-0.8-0.9-0.3-2.7,0.8-3.3c-0.5-0.5-0.1-1.3,0.2-1.7c2-1.3,4-0.6,6-0.9
	c1-2.1,1.8-4.7,0.5-6.8c-0.3-0.5-1.4-0.6-2-0.6c-4.2-0.1-7.9,1-12,1.5c-1.9,0.3-8.3,1-10.4-2.6c-1.3-2.2-0.7-5.8-0.2-6.5
	c0.1-0.2-0.1-0.3-0.2-0.2c-1.1,0.6-2.7,2.6-2.6,5.4c0.3,7.3,6.7,7.4,8.1,7.6c0.3,0,1.1,0.5,0.8,1.6c-1.4,3.5-1.8,6.6-2.3,10
	c-4.2,1.3-8.9,2.6-13.5,4c-0.9-0.8-1.1-2.1,0.2-2.9c0.3-0.2,0-1.3,0.7-1.9c1.9-1.6,5.4-1.7,7.2-1.5c0.3-0.2,1.1-1.6,1.3-3.8
	c0.1-1.1-0.4-3.3-0.6-3.5c-4.7-1-7.3-0.2-11.7-3.4c-1.6-0.9-4.6-5.4-2.8-9.1c0.3-1.1,2.4-4.4,6.7-6.5c2.3-1.1,6.3-2.3,8.8-2.4
	c-2.7-0.9-9.1,0-13-5c-1.2,0.6-2.8,1.2-5.2,0.9c-2.5-0.6-5.3-1.9-6.6-2.7c-0.7-0.5-2.2-2.3-3.9-1.6c-0.4,0.2-1.3,0.6-1.3,0.6
	c-0.9-3.9-3.7-4.8-3.8-4.8c0.4-0.9,0.7-1.1,1.4-1.6c1.1-0.7,1.3-2.3,3.4-1.1c2.5,1.4,4.7,5.3,8.6,5.8c1.7,0.2,3.2,0,4.4-0.4
	c0-0.3,0.2-1.5-0.5-1.3c-0.7,0.2-6.1-1.4-8.3-6.5c-1.4-3.1-3.2-4.6-4.8-5.2c-1.6-0.7-4.2,0.4-4.6,0.7c0.3-2-1.6-4.5-1.8-4.8
	c-0.1-0.4-1.6-0.2-1.3-0.5c1.1-1.9,4.7-1.9,4.9-1.9c2.4,0.2,4.5,1,6.5,3.1c1.7,1.8,2,3.2,3.7,5.8c1.1,1.6,1.3,2.3,2.8,3.1
	c1.6,0.8,3.2,0.6,3.2,0.6s2.1-1.4,3.5-4.5l-1.2-1.4c-2.4,1.2-3.5,0.9-4.4-0.6c-0.9-1.5-0.2-2.5,0.3-1.6c0.2,0.4,0.5,0.5,1.4,0.3
	c1.3-0.3,2.6-1.5,2.1-3.4c-0.5-1.9-2.4-2.2-4-1.8c-1.3,0.3-1.8,1-1.5,2.5c0.1,0.4-0.3,0.6-0.5,0.5c-1.4-1.6-1.8-3.4-1-4.5
	c-0.8-0.6-1.1-1.1-1.1-1.1c0.9-1.2,4.3-2.1,5.3-2.2c1-0.1,0.9,0.4,0.4,0.5c-1.1,0.3-3,1.2-1.8,1.2c1.2,0,1.5,1.1,2.4-0.3
	c0.9-1.3,3.2-2,1.9-2c-1.4,0.1-1.6-1.1-3.3-0.8c-0.5,0.1-0.3-0.7-0.3-0.7c1.1-0.5,2.1-1.4,2.7-2.5c0.6-1.1,1,0.2,0.6,1.3l0.8,0.1
	c2-5.7,7-2.5,9.7-4.9c0.4-0.4,0.8-0.4,0.6,0.2c-0.3,0.8-0.3,1.7,0,2.5c0.3,0,0.5,0,0.7,0c4.8,0.5,10.4,4,11.3,11
	c0.6,5.1,1.8,7.2,4.9,10c-5.7,0-8.8-3.8-8.8-3.8c2.1,6.8,5,7.5,7.2,8.9c-4.8,0.1-8.5-2.3-8.5-2.3s1.2,4.5,7.7,7.2
	c2.5,1,6.5,0.8,8.2,4.5l0.2-0.1c2.9-0.7,5-2.1,4.3-5.7c-1.2-6.3-12-10.7-13.4-18c-0.9-4.8,1.3-7.2,4.4-7.7c3.7-0.6,5.7,1.1,6.2,4.1
	c0.6,3.2,1.4,6.7,4.7,6.9c1,0.1,1.7,0.6-0.1,1.1c-7.1,2-8.8-1.6-8.8-7.1c0-1.5-0.3-3.1-2.6-2.7c-1.3,0.3-2.3,2.3-1.9,4.7
	c1.3,6.8,13.8,10.8,15.4,18.7c0.8,4.2-2.8,7.8-6.7,8.7C337.4,72.5,337.3,72.7,337.4,72.8L337.4,72.8"/>
<path class="st3" d="M206.2,54.5c2.3-3.8,6.2-7.4,10.7-10.6c14.2-10,37.2-17.2,49-29.4c2.5-2.6,3.6,4.6,2.6,9.7
	c-2.1,10.1-12.9,43.8-64.2,64.5c16.1-3.5,20.1,1.8,21.2,2.7c0.8,0.8,1.9,4.2-1,5.5c-18.5,7.7-40.4,42.3-88.2,41.9
	c-9.3,9.5-21.7,12.7-23.6,3.2c-1.4-7.2-0.4-11.7,0.2-14.9c5.3-31.9,29-46.2,33.4-55.5c1-2.1,2.8-1,3.6,0.2
	c1.4,2.2,2.7,16.4-0.9,31.4c-0.7,2.7,3.8-15.9,14.6-29.8c12.7-16.3,30.5-24.5,40.9-36.9c1.5-1.8,2.8,0.8,3.1,2.8
	C207.9,41.3,208.4,47.1,206.2,54.5"/>
<path class="st1" d="M199.5,72.4c-0.6,1,9.9-3.3,17.7-8.4c18.6-12.2,29.2-23.8,29.7-24.3c1.5-1.6,3.3-1.8,1.7,0.5
	c-1.3,2-11.7,13.9-27,24.5c-7.4,5.2-16.8,9.7-25.1,12.6c-6.7,10.5-13.6,15.3-12.2,14.8c61.8-21.6,79.4-57.3,80.7-68.6
	c0.1-1.3-0.2-1.8-0.5-1.9c-0.3-0.1-0.9-0.3-2.4,1.2c-12.6,12.4-43.1,15.6-58.8,43C202.4,68.1,199.9,71.7,199.5,72.4"/>
<path class="st1" d="M156.7,104.2c3.7-7.6,6.8-12.3,10.3-17c6.2-8.4,12.3-14.6,15.9-18c0.9-0.8,1.6-1.4,2.1-1.8
	c1.9-1.3,2.2,0.1,1.1,1.2c-0.3,0.3-0.7,0.7-0.9,0.9c-1,0.9-5.4,5.2-13.7,15.9c-4.5,5.8-7.2,10.8-9,14.3c-1,2-2.1,4.8,0.7,3
	c12.3-8.1,14.8-10.2,21.4-17.1c14.6-15.3,19-38.8,18.5-41.4c-3.3,4.1-19.7,15.8-31.1,27.7c-11.6,12.2-18.3,29-19.3,31.7
	C150.8,109,154.8,108.1,156.7,104.2"/>
<path class="st1" d="M146,124.7c24.4-15.9,46.5-23.5,51.3-25c3.4-1.1,3.3,0,2.5,0.4c-0.5,0.3-1,0.6-1.4,0.8
	c-29,12.8-48.7,25.4-57.5,31.4c-5.3,3.7,1.8,2.7,3.9,2.3c12.3-2,23.6-5.6,32.4-10.5c20.5-11.2,25.3-19.4,34.5-24.9
	c2.2-1.3,4.9-2.7,6.9-3.9c1.5-0.8,1.1-2.5-1.7-2.7c-1-0.1-27.8-1.7-50.3,11.1c-18.9,10.7-21.9,18.6-23.2,20.6
	C142.1,126.7,144.6,125.7,146,124.7"/>
<path class="st1" d="M120.2,142.6c1.4-6.6,3.2-10.2,5.9-16.8c5.3-13,10-21,11.9-24.1c2.3-3.7,2.5-2.5,1.1,0.4
	c-0.8,1.8-7,14.7-10.7,24.4c-2.2,5.7-3.1,8.7-5.1,14.8c-1.1,4.5,7.1-0.9,10.3-6.1c13.3-23.4,12.9-38.5,13.6-53.5
	c0.2-3.6-1.2-3.2-1.8-2.1c-0.6,1.1-17,18.5-20.4,26.3c-4.1,9.4-8.2,17.3-8.7,30.2C116.3,139.7,117.1,142.6,120.2,142.6"/>
</svg>
