<?xml version="1.0" encoding="utf-8"?>
<!-- Generator: Adobe Illustrator 25.4.1, SVG Export Plug-In . SVG Version: 6.00 Build 0)  -->
<svg version="1.1" id="Layer_1" xmlns="http://www.w3.org/2000/svg" xmlns:xlink="http://www.w3.org/1999/xlink" x="0px" y="0px"
	 viewBox="0 0 118.9 60.5" style="enable-background:new 0 0 118.9 60.5;" xml:space="preserve">
<style type="text/css">
	.st0{fill-rule:evenodd;clip-rule:evenodd;}
</style>
<path d="M40.8,20.8c6.1,1.1,12.3,1.6,18.7,1.6c6.4,0,12.6-0.6,18.7-1.6l0.1,0.5c-6,1.3-12.3,2-18.8,2c-6.4,0-12.7-0.7-18.7-2
	L40.8,20.8"/>
<path d="M86,23.7c-8.6,1.8-17.5,2.8-26.6,2.8c-9.1,0-18-1-26.6-2.8l0.1-0.5c8.6,1.6,17.4,2.4,26.5,2.4c9,0,17.9-0.8,26.5-2.4
	L86,23.7"/>
<path d="M70.6,18.9C67,19.6,63.3,20,59.4,20c-3.8,0-7.6-0.4-11.2-1.1l0.1-0.5c3.6,0.5,7.4,0.7,11.1,0.7c3.8,0,7.5-0.2,11.1-0.7
	L70.6,18.9"/>
<path d="M54.4,6.7c0-2.8,1.8-4.5,4-4.5c2.2,0,3.9,1.7,3.9,4h-0.2c0-1.9-1.4-3.3-3.2-3.3c-1.8,0-3.3,1.4-3.3,3.8v9.5h-1.2V6.7"/>
<path d="M54.5,3.6c0.8-1.3,2.3-2.2,4-2.2c2.6,0,4.7,1.9,4.7,5.3v9.6h1.2V6.6c0-3.8-2.5-6-5.4-6c-2,0-3.8,1.2-4.7,2.8L54.5,3.6"/>
<path class="st0" d="M59.3,58.4h2.4v1.5h0.9v-1.5h0.9v-0.5h-0.9v-3.3H62L59.3,58V58.4 M59.7,57.8l1.9-2.5v2.5H59.7z"/>
<path class="st0" d="M68.5,56.8c0.5-0.2,1.2-0.6,1.2-1.2c0-0.8-0.9-1.1-1.6-1.1c-0.9,0-1.9,0.4-1.9,1.3c0,0.7,0.5,1,1.1,1.3
	c-0.6,0.3-1.2,0.7-1.2,1.4c0,0.9,0.9,1.3,1.7,1.3c1.2,0,2.1-0.5,2.1-1.5C69.9,57.6,69.3,57.2,68.5,56.8 M67.5,57.2
	c0.7,0.3,1.6,0.5,1.6,1.4c0,0.6-0.5,1.1-1.2,1.1c-0.7,0-1.1-0.4-1.1-1.1C66.7,58,66.9,57.6,67.5,57.2z M68.3,56.8
	c-0.5-0.3-1.4-0.5-1.4-1.1c0-0.6,0.5-0.9,1.1-0.9c0.6,0,1,0.3,1,0.9C69.1,56.2,68.8,56.5,68.3,56.8z"/>
<path d="M50.9,59.9v-0.2c-0.5,0-0.6,0-0.6-0.4v-4.8h-0.1c-0.2,0.2-0.7,0.7-1.6,0.8v0.2c0.5,0,0.7,0,0.8,0.2c0.1,0.1,0.1,0.2,0.1,0.5
	v3.1c0,0.3-0.2,0.4-0.6,0.4v0.2H50.9"/>
<path d="M57.1,54.6h-1.9c-0.2,0-0.4,0-0.7,0c-0.2,0-0.2,0-0.2-0.2h-0.1l-0.5,1.5h0.2l0.1-0.2c0.1-0.2,0.2-0.3,0.3-0.3h2.3l-1.7,3.4
	c-0.3,0.6-0.5,1.1-0.5,1.1c0,0.2,0.2,0.1,0.4,0.1c0.3,0,0.5-0.1,0.6-0.4l1.9-4.8V54.6"/>
<rect x="1.9" y="49.1" width="50.7" height="0.5"/>
<rect x="58.1" y="49.1" width="60.1" height="0.5"/>
<path class="st0" d="M50.4,42.5c0,1.9-0.8,3.4-2.3,3.4c-1.5,0-2.3-1.5-2.3-3.4c0-1.9,0.8-3.4,2.3-3.4C49.8,39.1,50.4,40.6,50.4,42.5
	 M52.1,42.5c0-2.3-1.6-3.8-3.9-3.8c-2.3,0-3.9,1.6-3.9,3.8c0,2.2,1.6,3.8,3.9,3.8C50.4,46.2,52.1,44.6,52.1,42.5z"/>
<path class="st0" d="M79.4,46.1c1.4,0,2.8,0.1,4.3,0.1c1.2,0,2.7-0.1,3.7-0.6c1.3-0.7,1.7-1.6,1.7-2.6c0-1.7-1.2-2.8-3-3
	c1.4-0.4,2.2-1.3,2.2-2.6c0-0.9-0.5-1.8-1.4-2.2c-1.1-0.5-2.2-0.5-3.5-0.5c-1.4,0-2.7,0-4,0v0.3c0.7,0.1,1.4,0,1.4,0.8V45
	c0,0.7-0.7,0.7-1.4,0.7V46.1 M82.6,35c0.2,0,0.4,0,0.6,0c2.7,0,3.3,1.1,3.3,2.4c0,1.8-1.4,2.5-3.1,2.5h-0.9V35z M82.6,40.4h0.8
	c2,0,3.8,0.2,3.8,2.6c0,1.7-1,2.7-3.1,2.7c-0.9,0-1.5-0.1-1.5-1V40.4z"/>
<path class="st0" d="M97.4,42.5c0,1.9-0.8,3.4-2.3,3.4c-1.5,0-2.3-1.5-2.3-3.4c0-1.9,0.8-3.4,2.3-3.4C96.8,39.1,97.4,40.6,97.4,42.5
	 M99.1,42.5c0-2.3-1.6-3.8-3.9-3.8c-2.3,0-3.9,1.6-3.9,3.8c0,2.2,1.6,3.8,3.9,3.8C97.3,46.2,99.1,44.6,99.1,42.5z"/>
<path d="M0.7,34.9c0.3,0,0.8,0.1,1.2,0.4c0.3,0.3,0.6,0.9,0.9,1.9l3.7,9.1h0.6l3.6-9.2c0.4-1.1,0.8-2.1,2.1-2.1v-0.3H8.9v0.3
	c0.4,0,1,0,1.3,0.5c0.2,0.3,0.1,0.9-0.3,2.1l-2.3,6.3h0l-2.9-7.2c0-0.1-0.2-0.7-0.2-1c0.1-0.5,0.7-0.7,1.4-0.7v-0.3H0.7V34.9"/>
<path d="M20.8,34.4C20,34.6,19,35,18.2,35.2v0.2c0.4,0,0.6,0.1,0.8,0.2c0.3,0.2,0.3,0.6,0.3,1v8.1c0,0.9-0.2,0.9-1.1,0.9v0.3h3.7
	v-0.3c-0.8,0-1,0-1-0.9V34.4"/>
<path d="M26.1,34.4c-0.8,0.2-1.8,0.6-2.7,0.8v0.2c0.4,0,0.6,0.1,0.8,0.2c0.3,0.2,0.3,0.6,0.3,1v8.1c0,0.9-0.2,0.9-1.1,0.9v0.3h3.7
	v-0.3c-0.8,0-1,0-1-0.9V34.4"/>
<path d="M41.3,46.1v-0.3c-0.9,0-1.2,0-1.2-0.9v-3.2c0-1.4,0.7-2.1,1.2-2.1c0.5,0,0.7,0.7,1.2,0.7c0.4,0,0.8-0.3,0.8-0.8
	c0-0.5-0.6-0.9-1.1-0.9c-1.1,0-1.9,1-2.1,1.5v-1.4c-0.8,0.3-1.6,0.6-2.4,0.8v0.2c0.6,0.3,0.8,0.3,0.8,1v4.2c0,0.9-0.2,0.9-1,0.9v0.3
	H41.3"/>
<path d="M107.7,44c-0.5,0.8-1.3,1.6-2.3,1.6c-2,0-2.5-1.7-2.5-3.3c0-1.3,0.4-3.3,2.1-3.3c0.7,0,1.4,0.5,1.4,1.2
	c0,0.4,0.3,0.8,0.7,0.8c0.4,0,0.7-0.3,0.7-0.7c0-1.1-1.4-1.7-2.8-1.7c-2.3,0-3.8,1.6-3.8,3.9c0,2,1.4,3.7,3.6,3.7
	c1.5,0,2.6-0.8,3.2-2.1L107.7,44"/>
<path d="M112.9,46.1v-0.3c-0.8,0-1,0-1-0.9v-4.4c0.4-0.5,0.9-1,1.9-1c1,0,1.6,0.8,1.6,1.9v3.5c0,0.9-0.2,0.9-1,0.9v0.3h3.7v-0.3
	c-0.8,0-1,0-1-0.9v-3.3c0-2.4-1.7-2.8-2.6-2.8c-1.1,0-1.8,0.5-2.5,1.2v-5.4c-0.8,0.3-1.8,0.5-2.6,0.8v0.1c0.5,0.1,0.9,0.2,0.9,0.8
	v8.7c0,0.9-0.2,0.9-1.1,0.9v0.3H112.9"/>
<path d="M16.4,46.1v-0.3c-0.8,0-1,0-1-0.9v-6.2c-0.8,0.3-1.9,0.6-2.6,0.9v0.2c0.3,0,0.4,0.1,0.7,0.2c0.3,0.2,0.3,0.7,0.3,1v4
	c0,0.9-0.2,0.9-1.1,0.9v0.3H16.4"/>
<path d="M13.5,36.4c0-0.5,0.4-0.9,0.9-0.9c0.5,0,0.9,0.4,0.9,0.9s-0.4,0.9-0.9,0.9C13.9,37.4,13.5,36.9,13.5,36.4"/>
<path d="M30.7,41.5c0,0.3-0.1,0.6-0.1,0.9c0,1.7,0.6,3.3,2.6,3.3c0.8,0,1.9-0.6,2.4-1.6l0.3,0.1c-0.4,0.9-1.4,2.1-3.2,2.1
	c-2.2,0-3.8-1.5-3.8-3.7c0-2.1,1.5-3.9,3.8-3.9c1.7,0,3.1,1,3.2,2.8H30.7 M30.8,41h3.4c0-1.3-0.8-1.9-1.5-1.9
	C31.8,39.1,31.1,39.8,30.8,41z"/>
<path d="M56.5,47.6l0.6-1.3L54.2,40c-0.2-0.5-0.5-0.9-1.1-0.9v-0.3h3.8v0.3c-0.4,0-0.8,0-0.9,0.3c0,0.1-0.1,0.4,0.1,0.6l1.8,4.2
	l1.7-3.8c0.2-0.4,0.3-0.8,0.1-1c-0.2-0.3-0.7-0.3-1-0.3v-0.3h3v0.3c-0.9,0-1.1,0.5-1.4,1L57,47.9c-0.3,0.8-0.8,1.7-1.8,1.7
	c-0.4,0-0.8-0.3-0.8-0.7c0-0.4,0.3-0.7,0.7-0.7c0.2,0,0.4,0.1,0.6,0.1C56.1,48.4,56.4,47.9,56.5,47.6"/>
<path d="M72.1,43.7c0,0.1-0.1,0.2-0.2,0.3c0.1,0.1,0.2,0.2,0.2,0.3c0.5,0.6,1.1,1,2,1c0.4,0,0.9-0.1,1.2-0.7l0.2,0.2
	c-0.4,0.6-1.2,1.4-2,1.4c-1,0-1.7-0.4-2.3-1l-0.1-0.1c-0.6,0.7-1.5,1.2-2.5,1.2c-2,0-2.7-1.4-2.7-2.4c0-1.4,1.3-2.3,2.3-3
	c-0.2-0.3-0.4-0.6-0.4-0.8c-0.2-0.4-0.5-1.1-0.5-1.5c0-1.1,0.8-2,2.1-2c1.3,0,2,0.7,2,1.7c-0.1,0.9-1,1.5-1.8,2.1
	c0.6,1,1.4,2.3,2.1,3.3c0-0.1,0.1-0.1,0.1-0.2c0.3-0.6,0.8-1.4,0.8-2.2c0-0.5-0.3-0.7-0.8-0.7v-0.3h2.8v0.3c-0.9,0-1.3,0.8-1.6,1.6
	C72.7,42.6,72.4,43.3,72.1,43.7 M70.8,44.7c-0.8-1-1.7-2.4-2.4-3.4c-0.7,0.6-1.1,1.4-1.1,2.3c0,1.2,0.9,1.9,1.8,1.9
	C69.8,45.4,70.4,45.1,70.8,44.7z M69.3,39.9c0.8-0.7,1-1.2,1.1-1.8c0.1-0.9-0.4-1.2-0.9-1.2c-0.6,0-0.9,0.6-0.9,0.9
	c0,0.5,0.2,0.9,0.5,1.5C69.1,39.5,69.2,39.7,69.3,39.9z"/>
</svg>
