<?xml version="1.0" encoding="UTF-8"?>
<!DOCTYPE svg PUBLIC "-//W3C//DTD SVG 1.1//EN" "http://www.w3.org/Graphics/SVG/1.1/DTD/svg11.dtd">
<!-- Creator: CorelDRAW 2019 (64-Bit) -->
<svg xmlns="http://www.w3.org/2000/svg" xml:space="preserve" width="158.83mm" height="74.1068mm" version="1.1" style="shape-rendering:geometricPrecision; text-rendering:geometricPrecision; image-rendering:optimizeQuality; fill-rule:evenodd; clip-rule:evenodd"
viewBox="0 0 158.5577 73.9798"
 xmlns:xlink="http://www.w3.org/1999/xlink"
 xmlns:xodm="http://www.corel.com/coreldraw/odm/2003">
 <defs>
  <style type="text/css">
   <![CDATA[
    .fil2 {fill:#FEE211}
    .fil1 {fill:#E73E40}
    .fil0 {fill:#5E2B1B}
   ]]>
  </style>
 </defs>
 <g id="Layer_x0020_1">
  <metadata id="CorelCorpID_0Corel-Layer"/>
  <g id="_1012546560">
   <path class="fil0" d="M144.663 19.4396c6.1811,6.3131 12.1779,18.0928 12.1779,30.903 0,8.004 -2.5892,19.0435 -3.2756,20.6822 -0.7923,1.9009 -2.5893,2.2711 -5.4946,1.1347 -0.0784,-0.0262 -1.3208,-0.5543 -2.087,-0.9506 0.9243,0.4763 3.1435,1.5587 4.438,2.1391 2.8533,1.2426 4.2784,0.5021 4.8865,-0.9244 0.6081,-1.425 3.2494,-12.3602 3.2494,-20.4962 -0.0279,-18.8313 -8.1359,-26.4389 -13.8946,-32.4878z"/>
   <path class="fil0" d="M54.5689 28.7641c0,-0.2902 0.1059,-1.3467 0.1321,-1.6387 -1.7952,-1.8211 -4.5424,-4.7004 -6.3914,-6.5233 2.3233,2.2973 4.9385,5.7049 6.2594,8.162z"/>
   <path class="fil0" d="M40.3597 7.5799c0,2.8272 -1.1364,5.9968 -3.3017,9.3245 0.9246,-0.7125 1.8751,-1.1364 2.7995,-1.1364 0.1322,0 0.2642,0 0.3963,0.0278 1.1347,-2.245 1.769,-4.4641 1.795,-6.631 0.0538,-2.7456 -1.7429,-4.8586 -4.0141,-6.9456 1.1624,1.2407 2.325,3.3277 2.325,5.3608z"/>
   <path class="fil0" d="M25.7006 45.4563c0,-0.052 0.052,-0.7384 0.052,-0.7923 -2.5891,-3.0895 -5.0184,-5.995 -6.8153,-8.8222 3.3557,-1.9531 7.0272,-4.5162 10.513,-7.4739 0.7403,-1.6907 1.717,-3.6978 2.8533,-5.6266 -4.0678,4.2521 -9.4824,8.5061 -14.9511,11.7278 1.6389,2.8253 5.4425,7.7118 8.3481,10.9872z"/>
   <path class="fil0" d="M69.8362 26.2549c0.106,-0.6864 0.2382,-1.3467 0.4483,-1.981 -0.238,-0.9244 -1.9548,-2.4831 -3.0634,-3.6718 1.6646,1.875 2.3511,4.1462 2.6151,5.6528z"/>
   <path class="fil0" d="M128.4469 26.3609c0.3163,-0.5283 0.6604,-1.0566 0.9766,-1.5327 -0.2119,-1.5848 -2.113,-3.2756 -3.4337,-4.7804 1.4789,1.795 2.245,4.1721 2.4571,6.3131z"/>
   <path class="fil0" d="M98.8104 24.6701c0,2.139 -0.9766,5.5206 -2.0331,9.1125 -0.5543,1.9271 -1.1364,3.908 -1.5586,5.7308 0.6341,-0.2641 1.4267,-0.5542 2.245,-0.7384 0.5804,-2.0869 1.2407,-4.2538 1.7967,-6.2869 0,-0.5022 -0.0277,-1.0304 -0.0277,-1.5587 0,-2.7195 0.3439,-4.8864 0.8722,-6.5772 -0.264,-1.2407 -2.1652,-3.0375 -3.1173,-4.014 1.2945,1.3467 1.8228,3.1173 1.8228,4.3321z"/>
   <path class="fil0" d="M124.9332 14.475l0 0.0521c0,0.9766 0,2.5353 -1.0825,3.9359 0.6343,0.264 1.2407,0.6863 1.795,1.2407 0.9784,-1.2667 0.9784,-2.7194 0.9784,-3.6439 0,-1.9289 -1.6648,-3.3555 -3.1696,-4.9403 1.0565,1.1105 1.4787,2.6414 1.4787,3.3555z"/>
   <path class="fil0" d="M82.0122 19.5978c1.0043,0.7664 1.769,2.0349 2.007,2.537 0.08,-0.106 0.3702,-0.5282 0.4502,-0.6342 -0.292,-0.212 -1.5327,-1.1887 -2.4572,-1.9028z"/>
   <path class="fil0" d="M82.4344 46.5389c-0.1841,0.8463 -0.3423,1.6126 -0.3423,1.6126 -0.2641,1.0826 -0.9243,3.67 -3.7515,3.67 -0.1581,0 -0.9507,0.0279 -1.8751,-0.4483 1.4006,0.7125 2.7993,1.5327 4.0678,1.5327 2.0593,0 2.7734,-1.5848 3.0897,-2.6953 -0.6343,-1.0825 -0.9506,-2.3511 -1.1887,-3.6717z"/>
   <path class="fil0" d="M121.4735 48.8379c-1.7429,1.4267 -4.8344,3.1956 -8.4001,3.1956 -1.2945,0 -3.3277,-0.1842 -5.3086,-1.2146 2.5614,1.2406 4.2521,2.2971 7.5015,2.2971 2.4554,0 4.5962,-0.8444 6.181,-1.7949 0.0262,-0.8463 0,-1.7447 0.0262,-2.4831z"/>
   <path class="fil0" d="M104.7012 48.5477c-0.6603,0.7923 -1.8229,1.769 -3.3276,2.4292 -2.009,0.8724 -6.8952,2.0871 -11.4898,2.0871 -0.6341,0 -2.4309,-0.0262 -3.9357,-0.7404 2.0869,1.0045 3.4337,1.8229 6.1271,1.8229 4.6222,0 9.4565,-1.2407 11.3055,-2.0609 1.3988,-0.6064 2.4032,-1.4527 2.9836,-2.1131 -0.7125,-0.5004 -1.2667,-1.0026 -1.663,-1.4249z"/>
   <path class="fil0" d="M139.012 52.4557c0,-1.6629 -0.7142,-3.4598 -0.5283,-5.0705l2.4293 -0.5822c0,-0.5283 0,-1.0565 0,-1.5569l-4.1199 0.9765c-0.0261,0.7125 0.1058,1.5048 0.2639,2.2973 0.1322,0.7663 0.2903,1.5848 0.2903,2.3771 0,1.9289 -0.7663,3.1435 -2.7213,4.3061l-5.5987 3.0114c-0.7125,0.3162 -3.0637,1.8749 -5.2305,0.8444 1.8228,0.8725 2.5892,1.4268 3.6718,1.4268 1.4267,0 2.1928,-0.5022 3.6717,-1.2145l5.4146 -2.9316c1.901,-1.1364 2.4571,-2.219 2.4571,-3.8838z"/>
   <path class="fil0" d="M18.3829 6.9195c0,1.0044 -0.264,3.0114 -0.5802,5.3105 -0.264,1.9271 -0.5543,4.0661 -0.7143,5.995 0.7662,-0.8185 1.4805,-1.7169 2.1669,-2.6413 0.3963,-3.0376 0.8185,-5.863 0.8185,-7.1055 0,-2.1391 -1.3728,-3.8298 -2.9576,-5.3608 1.0288,1.0027 1.2667,2.6935 1.2667,3.8021z"/>
   <path class="fil0" d="M44.3478 49.0759c0,-1.1364 -0.3963,-2.4571 -0.5821,-3.4075l1.7167 -0.4501c0,-0.5283 -0.026,-1.0565 -0.052,-1.6109l-3.2494 0.8725c0.1858,0.8444 0.502,2.165 0.502,3.0375 0,4.094 -5.1765,4.9923 -9.4547,6.313 2.0851,2.6135 5.5988,7.2897 5.5988,11.2517 0,4.3042 -3.9359,7.1054 -6.6832,7.1054 -0.8704,0 -2.6135,-0.106 -4.172,-0.9245 2.7471,1.3728 3.5916,2.0072 6.3651,2.0072 3.2755,0 6.181,-3.6197 6.181,-6.6033 0,-3.9881 -3.6197,-8.9285 -5.6267,-11.6217 5.0186,-1.6648 9.4567,-2.2712 9.4567,-5.9691z"/>
   <path class="fil0" d="M16.296 57.7923c-0.6603,-1.0304 -1.2147,-1.981 -1.6628,-2.7212 -0.1061,4.8064 0.0781,9.1125 0.0781,9.1646 -0.0262,1.6126 0.2381,6.5771 -4.4623,6.5771 -0.4762,0 -1.2685,-0.1321 -1.9289,-0.4743 1.823,0.9244 3.1436,1.5309 4.12,1.5309 1.6109,0 4.2,-0.6342 3.962,-6.0489 -0.026,0 -0.1841,-3.6438 -0.106,-8.0281z"/>
   <path class="fil0" d="M70.9709 38.907l-2.007 0.5543c-0.3423,1.6629 -1.2409,5.5206 -2.087,8.3982 -0.6864,2.3511 -1.6891,4.8864 -4.7004,4.8864 -0.1322,0 -1.0826,0 -1.849,-0.3962 0.0262,0.0279 0.0783,0.0279 0.106,0.054 -0.5022,-0.2121 -0.8984,-0.5283 -1.2164,-0.8985 -0.3163,4.6223 -1.6108,9.5608 -2.6934,13.0745 -0.9766,3.1696 -3.2757,3.3276 -3.7499,3.3276 -0.7925,0 -1.3745,-0.052 -2.2191,-0.4482l1.6368 0.7924c0.6864,0.3422 1.0827,0.7384 2.7734,0.7384 0.8185,0 2.4831,-0.5004 3.2494,-2.9836 0.7126,-2.3251 2.3773,-8.0299 2.6936,-13.3385 1.0304,0.5282 2.325,1.1624 3.4335,1.1624 2.4832,0 3.4338,-1.9028 4.2001,-4.518 0.8723,-3.0096 1.849,-7.1836 2.139,-8.6623l0.6084 -0.1581c-0.0801,-0.5561 -0.2121,-1.0843 -0.3181,-1.5848z"/>
   <path class="fil1" d="M42.4727 32.3299c-0.2119,-0.0261 -0.4239,-0.0539 -0.6081,-0.08 0,-0.2641 0.0261,-0.5804 0.0261,-0.8984 0.2119,0.2919 0.4221,0.6603 0.582,0.9783z"/>
   <path class="fil0" d="M138.456 31.4836c0.2642,0.7142 0.556,1.5587 0.7402,2.219 -0.4482,-0.0782 -0.9504,-0.1581 -1.3726,-0.2102 0.1842,-0.6603 0.3962,-1.3206 0.6324,-2.0088z"/>
   <path class="fil0" d="M114.342 35.0772c0,-0.556 0.2382,-1.9289 0.3701,-3.1974 -0.1319,-1.795 -0.2639,-3.4059 -0.2639,-5.4407 0,-0.6065 0.1581,-2.0071 0.3423,-2.8794l-1.2946 0.2919c0.2119,0.8967 -0.7126,8.1081 -0.7126,12.0961 0,1.6386 0.1061,4.9124 0.9766,4.9124 0.3441,0 0.556,-0.3962 0.7402,-1.1087 -0.1321,-1.7429 -0.1581,-3.8037 -0.1581,-4.6743z"/>
   <path class="fil1" d="M95.2187 39.4873c0.4222,-1.8228 1.0043,-3.8037 1.5586,-5.7308 1.0304,-3.5936 2.0331,-6.9734 2.0331,-9.1125 0,-1.5587 -0.7663,-3.3016 -2.0331,-4.5702 -0.9782,-0.9766 -2.6952,-2.1131 -5.3625,-2.1131 -3.3017,0 -6.1011,2.2191 -7.3957,4.1739 -0.9243,-1.8489 -2.9836,-4.1479 -6.5231,-4.1479 -4.5962,0 -7.0533,3.962 -7.6859,8.268 -0.3181,-1.875 -1.1624,-4.0159 -2.5369,-5.5207 -1.3729,-1.5048 -3.0897,-2.2711 -5.1227,-2.2711 -1.7447,0 -3.4338,0.7384 -4.7283,2.113 -1.2685,1.3468 -2.7212,3.8039 -2.8794,8.188 -2.8796,-5.0723 -9.5347,-12.9962 -14.7392,-12.9962 -0.9244,0 -1.849,0.424 -2.7995,1.1364 2.1669,-3.3277 3.3017,-6.4972 3.3017,-9.3245 0,-2.7195 -2.4293,-7.5799 -7.3957,-7.5799 -5.6248,0 -7.3418,4.0141 -8.3983,6.287 -0.9523,2.0331 -3.8037,8.056 -7.4756,11.9641 0.1842,-1.9271 0.4761,-4.0679 0.7125,-5.995 0.3181,-2.3251 0.5821,-4.3061 0.5821,-5.3087 0,-3.3816 -1.8488,-4.8864 -3.9358,-4.8864 -1.0825,0 -2.5892,0.8706 -3.618,1.4249 -0.9243,0.5022 -6.577,3.6197 -7.1855,3.9898 -1.3205,0.7645 -2.429,1.689 -2.7193,4.8863 -0.4502,4.8587 -0.8723,10.6695 -0.8723,20.1782 0,16.9582 1.5848,27.2853 5.3086,34.6287 1.6108,3.1696 3.7238,3.6438 4.8605,3.6438 4.702,0 4.4641,-4.9645 4.4641,-6.5771 0,-0.0521 -0.186,-4.3581 -0.0802,-9.1646 1.4009,2.4031 4.0942,6.6032 7.0534,10.4331 4.3304,5.5727 7.2096,6.6832 10.4333,6.6832 2.7454,0 6.6814,-2.8012 6.6814,-7.1054 0,-3.962 -3.5119,-8.6382 -5.5989,-11.2517 4.2781,-1.3206 9.4548,-2.219 9.4548,-6.313 0,-0.8725 -0.2902,-2.1931 -0.4744,-3.0375l3.2478 -0.8725c0.2119,3.6979 -0.0523,6.4973 -1.6891,12.8103 -0.2119,0.8463 -0.8463,2.2451 -0.8463,2.9054 0,0.8725 0.1582,2.167 1.6387,3.3278l5.3088 4.386c0.6064,0.3962 1.3206,0.8967 2.9314,0.8967 0.4484,0 2.7474,-0.1582 3.7501,-3.3278 1.0843,-3.5118 2.3771,-8.4522 2.6952,-13.0745 0.6341,0.7143 1.5308,1.2426 2.9575,1.2426 3.0114,0 4.0157,-2.5092 4.7021,-4.8864 0.8445,-2.8793 1.7429,-6.7353 2.087,-8.4001l2.007 -0.5542c0.6604,3.2216 2.3513,8.056 2.9575,9.5347 0.6604,1.6107 2.1671,3.3537 4.412,3.3537 2.8254,0 3.4598,-2.5874 3.75,-3.67 0,0 0.158,-0.7663 0.3441,-1.6126 0.6064,3.4075 1.8211,6.5252 7.4477,6.5252 4.5962,0 9.4826,-1.2147 11.4896,-2.0871 1.5328,-0.6603 2.6673,-1.6107 3.3277,-2.4292 1.2685,1.3206 3.9882,3.4858 8.4002,3.4858 3.5657,0 6.6554,-1.769 8.3983,-3.1956 -0.0783,1.4788 0.0277,3.4857 0.0277,4.5162 0,1.4527 0.1321,3.7777 1.4789,5.1505 0.6064,0.6083 1.3728,0.8986 2.2712,0.8986 1.4787,0 2.6152,-0.6344 3.7499,-1.1887l5.6007 -3.0114c1.9809,-1.1626 2.7195,-2.3772 2.7195,-4.3061 0,-0.7923 -0.1321,-1.5848 -0.2902,-2.3771 -0.1581,-0.8185 -0.2903,-1.5848 -0.2642,-2.2973l4.1201 -0.9765c0.1059,4.0401 -0.2642,8.9265 -3.1417,16.7722 -0.9524,2.6413 -0.5821,4.0941 1.4249,5.3607 1.2945,0.8186 5.8109,3.6197 8.8761,4.8083 2.9056,1.1347 4.7005,0.7646 5.4929,-1.1364 0.6864,-1.637 3.2756,-12.6782 3.2756,-20.6821 0,-12.9145 -6.1549,-24.8282 -12.2298,-30.9292 -2.3773,-2.3771 -4.5684,-3.6978 -6.2071,-3.6978 -2.3233,0 -5.5988,3.4875 -9.983,10.6191 -0.3702,-3.7518 -2.2451,-6.9474 -4.6224,-7.9239 1.0826,-1.4006 1.0826,-2.9333 1.0826,-3.9359l0 -0.0539c0,-0.7645 -0.4224,-2.3232 -1.6109,-3.5119 -0.9782,-0.9783 -2.271,-1.4788 -3.7517,-1.4788 -4.3042,0 -9.1124,4.3843 -11.2776,8.5564 -0.5283,-0.0782 -1.1886,-0.0782 -1.2684,-0.0782 -0.3164,0 -7.738,0.1581 -7.738,12.9424 0,3.1157 0.2101,5.6787 0.6604,7.6057 -1.4006,-0.0782 -3.3277,0.4762 -4.5962,1.0044zm-69.5181 5.969l0 0c-2.9056,-3.2755 -6.7092,-8.1879 -8.3201,-10.9612 5.4408,-3.2217 10.8554,-7.4739 14.9494,-11.7278 -1.5587,2.6152 -2.8535,5.4425 -3.5659,7.3956 -1.7708,4.7543 -2.7995,11.9397 -3.0634,15.2933zm64.1554 6.5773l0 0c-5.5726,0 -6.101,-3.3537 -6.6814,-7.2115 -0.2119,-1.3727 -0.4221,-2.4813 -0.6863,-4.1201 -1.4527,8.2142 -1.6646,10.0909 -4.1477,10.0909 -1.7429,0 -2.9317,-1.4006 -3.4858,-2.7212 -0.6344,-1.5327 -2.5894,-7.1837 -3.0915,-10.4331l-3.6699 1.0044c-0.292,1.4527 -1.2947,5.889 -2.1931,8.9265 -0.7662,2.6413 -1.6107,4.148 -3.7237,4.148 -2.5093,0 -3.2235,-2.5371 -3.8561,-3.7778 0.1842,5.4407 -1.5587,12.494 -2.7473,16.324 -0.7664,2.4813 -2.457,2.6134 -2.7732,2.6134 -1.2947,0 -1.7708,-0.3163 -2.2991,-0.6864l-5.3086 -4.332c-1.1088,-0.8705 -1.2669,-1.795 -1.2669,-2.5354 0,-0.238 0.3423,-1.2145 0.5004,-1.7688 0.8723,-2.7214 2.087,-7.6078 2.087,-11.8339 0,-2.1911 -0.1321,-3.0375 -0.1581,-3.4337l-5.3346 1.4268c0.1581,0.7402 0.6604,2.7212 0.6604,3.7777 0,2.9316 -3.6457,3.9341 -10.169,5.7569 2.007,2.5093 6.3113,7.8979 6.3113,11.8339 0,2.6933 -2.6675,6.075 -5.6788,6.075 -2.9315,0 -5.5988,-1.0305 -9.6406,-6.2871 -5.4928,-7.1575 -7.4999,-11.2515 -8.7424,-13.8928 -0.0783,3.4597 -0.3962,7.7918 -0.052,13.2865 0.1321,2.1911 -0.1582,5.5189 -3.4599,5.5189 -0.8984,0 -2.6152,-0.3962 -3.9619,-3.0897 -3.6197,-7.0793 -5.2045,-17.6168 -5.2045,-34.1526 0,-9.4808 0.3961,-15.2657 0.8462,-20.0999 0.264,-2.9576 1.2667,-3.5397 2.245,-4.1201 0.5805,-0.3441 6.2332,-3.4598 7.1576,-3.9619 0.8705,-0.4762 2.2711,-1.2946 3.1158,-1.2946 2.1408,0 2.9333,1.7707 2.9333,3.8559 0,0.9523 -0.2642,2.9054 -0.5823,5.1784 -0.3161,2.4032 -0.7662,6.3912 -0.9244,8.6884 4.7804,-3.934 8.5583,-11.8579 9.6148,-14.1031 1.0305,-2.1929 2.4832,-5.7066 7.4755,-5.7066 4.6745,0 6.3912,4.8082 6.3912,6.5512 0,9.5347 -13.6825,20.9461 -22.8994,26.3069l-0.4239 0.2381 0.2379 0.4223c1.6109,3.0113 6.3653,9.0863 9.5348,12.4939l0.8723 0.9505 0 -1.2947c0,-2.2971 1.0566,-10.8291 3.0376,-16.2178 2.1131,-5.7569 6.8413,-13.7608 10.1429,-13.7608 5.2566,0 13.1006,10.037 15.794,16.1658 -0.8706,-10.0648 3.1973,-13.4707 6.5251,-13.4707 3.5917,0 7.1053,3.5379 6.7092,9.4808l1.7689 0.1321c0,-7.2896 3.5137,-10.0891 6.8415,-10.0891 4.0678,0 6.0487,3.7239 6.365,5.7049 0.8186,-2.1912 3.1175,-5.731 7.5538,-5.731 2.325,0 3.8039,1.0027 4.6484,1.8229 1.0564,1.0566 1.7445,2.5353 1.7445,3.856 0,2.0071 -0.9782,5.3347 -2.0087,8.8223 -0.6605,2.2973 -1.5848,5.7048 -2.0332,7.8179 4.1201,-2.2712 6.023,-1.7708 7.4478,-1.6387 -0.5282,-1.901 -0.9766,-3.7759 -0.9766,-8.7423 0,-4.6744 1.0565,-8.188 3.0636,-10.1951 1.6907,-1.6907 3.4874,-1.7429 3.6717,-1.7429 0.6863,0 1.3207,0.0522 1.8229,0.2381 1.7429,-3.9358 6.445,-8.7162 10.7234,-8.7162 1.2407,0 2.2449,0.3961 3.0375,1.1886 1.0044,1.0027 1.3205,2.3233 1.3205,2.7994l0 0.0521c0,2.4033 -0.7663,3.2756 -2.1131,4.4903 2.9316,0.1059 6.181,3.3815 5.6789,10.9353 5.6787,-9.5609 8.9282,-13.2326 10.9614,-13.2326 1.3205,0 3.3537,1.2667 5.4945,3.3798 5.943,5.9429 11.9381,17.5924 11.9381,30.2166 0,8.2142 -2.6936,19.0435 -3.1956,20.312 -0.3702,0.8985 -1.1887,1.769 -4.2001,0.5804 -2.9854,-1.1608 -7.4217,-3.908 -8.7163,-4.7266 -1.4267,-0.8983 -1.9009,-1.7169 -1.0303,-4.1739 3.0635,-8.4261 3.4336,-14.1309 3.1696,-18.383l-6.0491 1.4267c-0.2101,1.0565 0.0279,2.3232 0.212,3.3016 0.1321,0.7645 0.2642,1.5048 0.2642,2.1911 0,1.3745 -0.3441,2.3252 -2.2192,3.4337 0.0263,0 -5.5466,2.9855 -5.7047,3.0635 -1.0565,0.5561 -1.9289,1.0045 -3.1175,1.0045 -0.6325,0 -1.1346,-0.212 -1.5569,-0.6083 -1.1104,-1.1086 -1.1885,-3.2476 -1.1885,-4.4363 0,-1.3206 -0.186,-4.9125 0.2102,-7.1855 -0.6605,0.7403 -4.1723,4.8604 -9.6408,4.8604 -5.2027,0 -7.5798,-3.0375 -8.4781,-4.12 -2.1653,4.3581 -10.8555,5.2826 -14.7393,5.2826zm-47.3833 -19.7037l0 0c-0.2119,-0.0261 -0.4239,-0.0539 -0.6081,-0.08 0,-0.2641 0.0261,-0.5804 0.0261,-0.8984 0.2119,0.2919 0.4221,0.6603 0.582,0.9783zm-1.4006 -3.9359l0 0c0.5283,0.4483 2.4294,3.3016 3.0635,5.1506 -1.0825,-0.106 -2.4552,-0.2641 -3.2755,-0.4223 -0.0521,-0.5542 0.0799,-3.7238 0.2119,-4.7283zm71.2351 -5.4407l0 0c1.4006,-0.08 3.4875,-0.6864 4.1739,-0.9506 -0.3962,0.9245 -1.0305,1.8489 -1.0305,4.9906 0,3.1435 0.4762,5.3626 0.4762,8.8763 0,3.5117 -0.6342,5.9949 -2.1669,5.9949 -1.531,0 -2.007,-2.2711 -2.007,-5.5205 0.0261,-6.7353 1.3466,-11.3576 0.5542,-13.3907zm0.4761 12.9684l0 0c0,-3.9881 0.9506,-11.1995 0.7126,-12.0979l1.2946 -0.2901c-0.1842,0.8723 -0.3423,2.2711 -0.3423,2.8794 0,3.5396 0.4744,6.7614 0.4744,9.4287 0,1.6386 -0.2642,4.9922 -1.1626,4.9922 -0.8705,0 -0.9766,-3.2755 -0.9766,-4.9123zm25.6727 -4.4381l0 0c0.2642,0.7142 0.556,1.5587 0.7402,2.219 -0.4482,-0.0782 -0.9504,-0.1581 -1.3726,-0.2102 0.1842,-0.6342 0.3684,-1.3206 0.6324,-2.0088zm-1.8488 2.8272l0 0c0.1059,-1.1887 1.4527,-4.7543 1.7968,-5.4686 0.4483,0.8463 2.0069,4.7822 2.0869,6.075 -0.8185,-0.1042 -3.4875,-0.5542 -3.8837,-0.6064z"/>
   <path class="fil1" d="M126.042 63.9715c0.0278,-1.1347 0.9782,-1.9531 2.0608,-1.927 1.0827,0.026 1.9811,0.8705 1.9549,2.0329 -0.0261,1.1366 -0.9782,1.955 -2.0609,1.929 -1.0825,-0.0261 -1.9809,-0.8985 -1.9548,-2.0349zm1.9809 1.7169l0 0c0.8984,0.0279 1.6125,-0.6603 1.6386,-1.6109 0.0261,-0.9244 -0.6602,-1.6628 -1.5587,-1.6907 -0.8984,-0.0262 -1.6369,0.6604 -1.6646,1.6126 0,0.9506 0.6882,1.6628 1.5848,1.689zm-0.3961 -0.5283l0 0 0.0278 -0.9765 0.3961 0 0.5804 1.0044 0.3963 0 -0.6344 -1.0303c0.3442,-0.0262 0.6084,-0.2122 0.6084,-0.6084 0,-0.4482 -0.2641,-0.6604 -0.7924,-0.6604l-0.8724 -0.026 -0.052 2.2972 0.3423 0zm0.4239 -1.2666l0 0c0.2903,0 0.5543,0 0.5543,-0.3703 0,-0.2901 -0.238,-0.344 -0.5022,-0.344l-0.476 0 -0.0261 0.7143 0.4499 0z"/>
   <path class="fil2" d="M89.856 52.0336c-5.5726,0 -6.101,-3.3537 -6.6814,-7.2115 -0.2119,-1.3727 -0.4221,-2.4813 -0.6863,-4.1201 -1.4527,8.2142 -1.6646,10.0909 -4.1477,10.0909 -1.7429,0 -2.9317,-1.4006 -3.4858,-2.7212 -0.6344,-1.5327 -2.5894,-7.1837 -3.0915,-10.4331l-3.6699 1.0044c-0.292,1.4527 -1.2947,5.889 -2.1931,8.9265 -0.7662,2.6413 -1.6107,4.148 -3.7237,4.148 -2.5093,0 -3.2235,-2.5371 -3.8561,-3.7778 0.1842,5.4407 -1.5587,12.494 -2.7473,16.324 -0.7664,2.4813 -2.457,2.6134 -2.7732,2.6134 -1.2947,0 -1.7708,-0.3163 -2.2991,-0.6864l-5.3086 -4.332c-1.1088,-0.8705 -1.2669,-1.795 -1.2669,-2.5354 0,-0.238 0.3423,-1.2145 0.5004,-1.7688 0.8723,-2.7214 2.087,-7.6078 2.087,-11.8339 0,-2.1911 -0.1321,-3.0375 -0.1581,-3.4337l-5.3346 1.4268c0.1581,0.7402 0.6604,2.7212 0.6604,3.7777 0,2.9316 -3.6457,3.9341 -10.169,5.7569 2.007,2.5093 6.3113,7.8979 6.3113,11.8339 0,2.6933 -2.6675,6.075 -5.6788,6.075 -2.9315,0 -5.5988,-1.0305 -9.6406,-6.2871 -5.4928,-7.1575 -7.4999,-11.2515 -8.7424,-13.8928 -0.0783,3.4597 -0.3962,7.7918 -0.052,13.2865 0.1321,2.1911 -0.1582,5.5189 -3.4599,5.5189 -0.8984,0 -2.6152,-0.3962 -3.9619,-3.0897 -3.6197,-7.0793 -5.2045,-17.6168 -5.2045,-34.1526 0,-9.4808 0.3961,-15.2657 0.8462,-20.0999 0.264,-2.9576 1.2667,-3.5397 2.245,-4.1201 0.5805,-0.3441 6.2332,-3.4598 7.1576,-3.9619 0.8705,-0.4762 2.2711,-1.2946 3.1158,-1.2946 2.1408,0 2.9333,1.7707 2.9333,3.8559 0,0.9523 -0.2642,2.9054 -0.5823,5.1784 -0.3161,2.4032 -0.7662,6.3912 -0.9244,8.6884 4.7804,-3.934 8.5583,-11.8579 9.6148,-14.1031 1.0305,-2.1929 2.4832,-5.7066 7.4755,-5.7066 4.6745,0 6.3912,4.8082 6.3912,6.5512 0,9.5347 -13.6825,20.9461 -22.8994,26.3069l-0.4239 0.2381 0.2379 0.4223c1.6109,3.0113 6.3653,9.0863 9.5348,12.4939l0.8723 0.9505 0 -1.2947c0,-2.2971 1.0566,-10.8291 3.0376,-16.2178 2.1131,-5.7569 6.8413,-13.7608 10.1429,-13.7608 5.2566,0 13.1006,10.037 15.794,16.1658 -0.8706,-10.0648 3.1973,-13.4707 6.5251,-13.4707 3.5917,0 7.1053,3.5379 6.7092,9.4808l1.7689 0.1321c0,-7.2896 3.5137,-10.0891 6.8415,-10.0891 4.0678,0 6.0487,3.7239 6.365,5.7049 0.8186,-2.1912 3.1175,-5.731 7.5538,-5.731 2.325,0 3.8039,1.0027 4.6484,1.8229 1.0564,1.0566 1.7445,2.5353 1.7445,3.856 0,2.0071 -0.9782,5.3347 -2.0087,8.8223 -0.6605,2.2973 -1.5848,5.7048 -2.0332,7.8179 4.1201,-2.2712 6.023,-1.7708 7.4478,-1.6387 -0.5282,-1.901 -0.9766,-3.7759 -0.9766,-8.7423 0,-4.6744 1.0565,-8.188 3.0636,-10.1951 1.6907,-1.6907 3.4874,-1.7429 3.6717,-1.7429 0.6863,0 1.3207,0.0522 1.8229,0.2381 1.7429,-3.9358 6.445,-8.7162 10.7234,-8.7162 1.2407,0 2.2449,0.3961 3.0375,1.1886 1.0044,1.0027 1.3205,2.3233 1.3205,2.7994l0 0.0521c0,2.4033 -0.7663,3.2756 -2.1131,4.4903 2.9316,0.1059 6.181,3.3815 5.6789,10.9353 5.6787,-9.5609 8.9282,-13.2326 10.9614,-13.2326 1.3205,0 3.3537,1.2667 5.4945,3.3798 5.943,5.9429 11.9381,17.5924 11.9381,30.2166 0,8.2142 -2.6936,19.0435 -3.1956,20.312 -0.3702,0.8985 -1.1887,1.769 -4.2001,0.5804 -2.9854,-1.1608 -7.4217,-3.908 -8.7163,-4.7266 -1.4267,-0.8983 -1.9009,-1.7169 -1.0303,-4.1739 3.0635,-8.4261 3.4336,-14.1309 3.1696,-18.383l-6.0491 1.4267c-0.2101,1.0565 0.0279,2.3232 0.212,3.3016 0.1321,0.7645 0.2642,1.5048 0.2642,2.1911 0,1.3745 -0.3441,2.3252 -2.2192,3.4337 0.0263,0 -5.5466,2.9855 -5.7047,3.0635 -1.0565,0.5561 -1.9289,1.0045 -3.1175,1.0045 -0.6325,0 -1.1346,-0.212 -1.5569,-0.6083 -1.1104,-1.1086 -1.1885,-3.2476 -1.1885,-4.4363 0,-1.3206 -0.186,-4.9125 0.2102,-7.1855 -0.6605,0.7403 -4.1723,4.8604 -9.6408,4.8604 -5.2027,0 -7.5798,-3.0375 -8.4781,-4.12 -2.1653,4.3581 -10.8555,5.2826 -14.7393,5.2826zm-48.7839 -23.6396l0 0c-0.1321,1.0045 -0.264,4.174 -0.2119,4.7283 0.8203,0.1581 2.1929,0.3163 3.2755,0.4223 -0.6341,-1.8489 -2.5352,-4.7022 -3.0635,-5.1506zm70.7069 7.9501l0 0c0,3.2494 0.4499,5.5205 2.0087,5.5205 1.557,0 2.1652,-2.5092 2.1652,-5.9949 0,-3.4876 -0.4761,-5.7328 -0.4761,-8.8763 0,-3.1417 0.6342,-4.0661 1.0305,-4.9906 -0.6864,0.2363 -2.7734,0.8706 -4.1722,0.9506 0.7645,2.0331 -0.556,6.6554 -0.556,13.3907zm24.8282 -2.0331l0 0c0.3962,0.0521 3.0652,0.5021 3.8837,0.6064 -0.0801,-1.2928 -1.6386,-5.2286 -2.0869,-6.075 -0.3441,0.7143 -1.6909,4.28 -1.7968,5.4686z"/>
   <path class="fil1" d="M10.3009 66.8769c-0.5542,0 -1.0304,-0.4743 -1.5848,-1.4789 -3.2755,-6.1009 -4.9385,-16.5601 -4.9385,-31.009 0,-14.3951 0.6326,-19.8098 0.8186,-21.5788 0.2101,-2.0609 0.4744,-1.901 1.0565,-2.325 0.4744,-0.3423 7.6859,-4.2783 8.0298,-4.4364 0.2641,-0.132 0.5284,-0.1059 0.7126,0.0262 0.1842,0.132 0.264,0.3701 0.2381,0.6603 -0.1061,0.8445 -2.1391,19.1494 -2.167,19.3076 -0.0522,0.4223 0.264,0.7142 1.0843,0.1581 8.3982,-5.9151 11.938,-13.4168 13.8929,-17.4326 1.5587,-3.2217 2.7193,-5.1506 5.2025,-5.1506 2.2991,0 3.9621,2.0089 3.9621,3.6718 0,3.3555 -2.1913,7.6337 -6.1531,12.0439 -4.3062,4.8082 -10.3291,9.4305 -17.4604,13.3386 -0.6065,0.3441 -0.7647,0.5821 -0.5805,0.9244 2.8256,5.3885 8.9006,12.3879 14.7114,18.8852 2.9053,3.2756 7.9516,8.9023 7.9516,12.4681 0,1.0304 -0.5283,1.7949 -0.9784,2.2451 -0.6862,0.6863 -1.6368,1.1346 -2.429,1.1346 -4.7805,0 -10.9614,-10.5112 -17.5388,-21.6586l-2.5351 -4.2782c-0.8985,7.7397 -0.6604,22.0288 -0.6604,23.6396 0,0.6863 -0.3441,0.8445 -0.6344,0.8445z"/>
   <path class="fil1" d="M53.2481 62.3867c1.2425,-3.3278 2.3773,-10.4852 2.3773,-14.051 0,-13.8667 -6.9457,-22.3189 -9.9571,-25.3043 -2.5091,-2.5092 -4.5962,-3.67 -5.4685,-3.67 -1.1885,0 -3.934,3.1696 -6.2851,8.2662 -2.087,4.5162 -4.5704,11.9396 -4.5441,21.7386 0,1.7428 1.1104,1.2945 1.3745,1.2145 0.184,-0.0521 1.8488,-0.6082 3.5658,-1.1886 1.7428,-0.5804 3.5396,-1.1626 3.8819,-1.2947 0.7402,-0.2901 0.9244,-0.5021 0.6604,-1.5046 -0.1842,-0.6344 -0.4483,-1.7169 -0.4224,-3.8299 0.0261,-1.0305 0.5805,-1.3468 1.1887,-1.5848 1.6907,-0.6343 7.3956,-1.981 8.1879,-2.0611 0.8984,-0.1059 0.9506,-0.026 1.0304,0.4763 0.9246,5.0965 0.2642,11.6737 -1.8228,18.8314 -0.2903,1.0303 -0.1842,1.1364 0.3163,1.5066 0.3702,0.2901 3.8038,3.1157 4.2001,3.4597 0.6862,0.6863 1.2685,0.1581 1.7167,-1.0044zm-5.5988 -26.6491l0 0c0,0.4744 -0.1059,0.6863 -0.8722,0.6065 -0.6864,-0.0522 -7.3157,-0.9506 -7.9762,-1.1087 -0.5542,-0.1321 -0.5021,-0.3441 -0.5282,-0.9244 -0.2901,-6.6572 1.4527,-11.2516 1.9548,-11.2516 1.0826,0 7.4218,9.6129 7.4218,12.6782z"/>
   <path class="fil1" d="M73.0319 31.7755c-2.325,-0.0539 -4.7283,-0.2641 -6.2071,-0.3962 -0.4482,-0.0278 -0.6864,-0.0538 -0.6342,-0.7402 0.3181,-5.7587 -1.0027,-8.5581 -3.9359,-8.5581 -1.4527,0 -3.9081,1.0565 -3.9081,8.1879 0,5.7049 2.8517,16.8522 3.1158,17.5385 0.1599,0.3962 0.4762,1.0825 0.7402,1.0825 0.0801,0 0.3441,0 0.6343,-0.9245 1.3989,-4.1999 2.245,-8.24 2.5874,-9.9569 0.2121,-0.9504 0.3441,-1.6385 1.0844,-1.8488 0.3162,-0.1059 5.6249,-1.5326 6.4432,-1.7428 0.8203,-0.212 0.9784,0.264 1.0045,0.4482 0.4222,2.1391 1.3468,5.8108 3.0374,11.1995 0.4484,1.3988 0.7403,1.3988 0.8724,1.3988 0.3684,0 0.5542,-0.8445 0.7923,-1.6891 0.7125,-2.6151 2.9314,-10.539 2.9314,-17.0102 0,-5.2044 -1.9808,-7.1315 -4.1198,-7.1315 -4.0419,0 -4.094,6.9994 -4.094,7.2896 0,1.1087 0.0781,1.7968 0.1041,2.1652 0.0278,0.318 0.1599,0.6881 -0.4482,0.6881z"/>
   <path class="fil1" d="M91.6528 45.06c-0.7922,0 -0.9504,-0.3422 -0.9504,-1.5586 0,-2.0071 1.2146,-6.2331 2.377,-10.3009 1.0027,-3.5119 1.9811,-6.8396 1.9811,-8.2402 0,-2.061 -1.9811,-3.3537 -3.6979,-3.3537 -2.4033,0 -6.023,1.3727 -6.023,13.2064 0,6.7614 0.3441,13.7608 2.7996,14.2352 2.801,0.556 8.32,-0.5283 11.1733,-1.4528 1.4006,-0.4482 2.325,-1.0826 2.7211,-1.927 0.2903,-0.5822 0.3163,-1.2426 0.0784,-1.929 -0.3962,-1.1624 -1.0826,-1.6107 -2.4034,-1.6107 -2.8793,0 -6.6032,2.9314 -8.056,2.9314z"/>
   <path class="fil1" d="M119.4664 13.1005c-1.7967,0 -3.6195,1.4006 -4.8341,2.5892 -1.3728,1.3468 -2.4832,2.8255 -2.7995,3.4598 -0.2119,0.3962 -0.3181,0.6864 -0.1859,0.8445 0.1321,0.186 0.4239,0.1599 0.8723,0.08 6.3911,-1.1364 8.6641,-3.6457 8.6641,-5.5989 0,-0.5022 -0.6082,-1.3745 -1.717,-1.3745z"/>
   <path class="fil1" d="M107.3425 21.5788c2.2712,0 2.4833,2.219 2.4833,2.7212 0,1.6108 -0.7925,8.5043 -0.7925,12.3341 0,3.8298 0.8967,7.8457 4.7804,7.8457 3.882,0 4.8326,-4.5163 4.8326,-8.5842 0,-4.068 -0.4744,-6.5772 -0.4744,-10.2229 0,-2.113 1.0825,-4.0661 2.9316,-4.0661 1.8748,0 3.6177,2.4813 3.6177,6.075 0,7.2635 -1.3727,20.4961 -11.6216,20.4961 -6.5233,0 -10.169,-6.4712 -10.169,-17.2744 0.054,-8.188 2.8012,-9.3245 4.412,-9.3245z"/>
   <path class="fil1" d="M143.0782 37.7183c-1.425,0 -6.5233,-0.7662 -8.9526,-1.1624 -0.3179,-0.0539 -0.5281,-0.2381 -0.5281,-0.9505 0,-2.4832 3.4596,-11.7817 4.8585,-11.7817 1.849,0 4.9402,9.9588 5.2566,13.1544 0.0538,0.6342 0,0.7401 -0.6343,0.7401zm-17.9329 12.7044l0 0c0,4.7004 0.3684,5.1244 1.5308,4.5962 0.8186,-0.3701 4.7543,-2.2992 5.969,-3.1174 1.1627,-0.7665 1.0566,-0.9766 0.8985,-1.6909 -0.132,-0.5802 -0.4743,-2.7994 -0.4743,-4.0401 0,-3.0653 0.3423,-3.0375 1.1885,-3.2755 0.8706,-0.2641 8.5565,-2.167 9.4808,-2.4033 0.7925,-0.212 0.7665,0.2363 0.7665,0.6064 0.0261,0.3702 0.158,3.2235 0.158,4.7805 0,1.5586 0,7.7657 -3.1156,16.5621 -0.5283,1.5046 -0.3963,1.5848 0.5542,2.2189 1.1363,0.7125 5.0184,2.8777 6.7352,3.6439 1.5848,0.7143 1.5328,0.186 1.7968,-0.6342 0.2642,-0.8185 2.4815,-11.0656 2.4815,-17.0086 0,-19.1771 -12.0181,-30.983 -14.5793,-30.983 -2.1392,-0.0261 -13.3907,15.1353 -13.3907,30.745z"/>
  </g>
 </g>
</svg>
