<?xml version="1.0" encoding="UTF-8"?>
<svg xmlns="http://www.w3.org/2000/svg" xmlns:xlink="http://www.w3.org/1999/xlink" width="130.145" height="47.526" viewBox="0 0 130.145 47.526">
  <defs>
    <linearGradient id="linear-gradient" y1="0.5" x2="1" y2="0.5" gradientUnits="objectBoundingBox">
      <stop offset="0" stop-color="#dd956f"></stop>
      <stop offset="0.106" stop-color="#d68e69"></stop>
      <stop offset="0.24" stop-color="#c87e5a"></stop>
      <stop offset="0.389" stop-color="#b36644"></stop>
      <stop offset="0.397" stop-color="#b16443"></stop>
      <stop offset="0.465" stop-color="#b46746"></stop>
      <stop offset="0.525" stop-color="#bc704d"></stop>
      <stop offset="0.582" stop-color="#ca805a"></stop>
      <stop offset="0.637" stop-color="#df986e"></stop>
      <stop offset="0.674" stop-color="#f9b283"></stop>
      <stop offset="0.815" stop-color="#e39b73"></stop>
      <stop offset="0.851" stop-color="#dd956f"></stop>
      <stop offset="0.995" stop-color="#b16443"></stop>
    </linearGradient>
  </defs>
  <g id="Logos" transform="translate(-3.29 -2.12)">
    <g id="Group_745" data-name="Group 745" transform="translate(3.29 2.12)">
      <path id="Path_1006" data-name="Path 1006" d="M42.948,36.529c1.237,0,2.764-.026,4.256-.053h.149v.939h-1.6c-1.536,0-1.58.254-1.58,1.781v5.678c0,1.9,0,2.01,1.632,2.01h1.544v.939H47.1c-1.4-.026-2.7-.053-4.142-.053s-2.747.026-4.142.053H38.56v-.939H40.1c1.632,0,1.632-.114,1.632-2.01V39.2c0-1.527-.044-1.781-1.58-1.781h-1.6v-.939h.149c1.465.026,3,.053,4.238.053m19.016-.421c-3.142,0-5.6,2.15-5.6,4.9a3.936,3.936,0,0,0,3.87,4.247,4.87,4.87,0,0,0,3.8-1.764l.044-.044V42.3l-.325.237a4.726,4.726,0,0,1-2.4,1.079c-1.527,0-2.554-1.246-2.554-3.106,0-2,1.15-3.457,2.738-3.457,1.816,0,3.036,1.764,3.036,4.388,0,6.845-6.555,10.206-9.082,10.925l-.167.044.377.79.114-.026c6.59-1.659,11.2-6.388,11.2-11.5,0-3.335-2.027-5.563-5.055-5.563M80.786,46.419A4.256,4.256,0,1,0,76.5,42.163a4.277,4.277,0,0,0,4.282,4.256m0-10.311a6.055,6.055,0,1,1-6.072,6.055,6.065,6.065,0,0,1,6.072-6.055m19.147-4.019A2.414,2.414,0,0,0,97.5,34.7c0,1.132.939,2.343,2.878,3.694a4.284,4.284,0,0,0,1.966-3.449c0-1.7-.974-2.852-2.413-2.852m-.816,8.266c-1.808,1.483-2.141,2.413-2.141,3.7,0,1.6.9,3.212,2.633,3.212a2.584,2.584,0,0,0,2.536-2.685c0-1.562-1.018-2.984-3.027-4.23m2.141-1.386c2.361,1.457,3.326,2.817,3.326,4.642a4.814,4.814,0,0,1-5.1,4.6c-3.194,0-4.651-2.1-4.651-4.045,0-1.7,1.3-3.352,3.414-4.352-1.992-1.246-3.036-2.773-3.036-4.44,0-2.773,2.431-4.221,4.826-4.221,2.141,0,4.449,1.141,4.449,3.65,0,1.676-1.062,3.045-3.229,4.168" transform="translate(-7.61 -5.676)" fill="url(#linear-gradient)"></path>
      <g id="Group_742" data-name="Group 742">
        <path id="Path_1007" data-name="Path 1007" d="M3.29,20.093V2.42H13.882V4.605H5.975V9.861h6.3V11.95h-6.3v5.958h8.2v2.185Z" transform="translate(-3.29 -2.157)" fill="#444953"></path>
        <path id="Path_1008" data-name="Path 1008" d="M38.664,20.093V5.342h-.219L34.022,20.093H31.188L26.748,5.342h-.193V20.093H24.08V2.42h4.344l4.186,14.093h.167L36.953,2.42h4.282V20.093Z" transform="translate(-5.836 -2.157)" fill="#444953"></path>
        <path id="Path_1009" data-name="Path 1009" d="M58.27,4.465h-2.6V10.87H58.34c2.211,0,3.431-1.106,3.431-3.238.009-2.071-1.193-3.168-3.5-3.168m.123,8.486H55.778v7.143H53.04V2.42h5.528c3.7,0,5.958,1.746,5.958,5.151-.009,3.519-2.22,5.379-6.134,5.379" transform="translate(-9.383 -2.157)" fill="#444953"></path>
        <path id="Path_1010" data-name="Path 1010" d="M79.852,4.465H77.061v6.213h2.861c2.211,0,3.431-1.009,3.431-3.142.009-2.071-1.193-3.071-3.5-3.071M83.7,20.093l-4.326-7.485H77.158v7.485H74.42V2.42h5.774c3.677,0,5.914,1.641,5.914,5.055a4.474,4.474,0,0,1-4.063,4.765l4.66,7.854H83.7Z" transform="translate(-12.002 -2.157)" fill="#444953"></path>
        <path id="Path_1011" data-name="Path 1011" d="M96.58,20.093V2.42h10.6V4.605H99.274V9.861h6.292V11.95H99.274v5.958h8.2v2.185Z" transform="translate(-14.716 -2.157)" fill="#444953"></path>
        <path id="Path_1012" data-name="Path 1012" d="M122.628,20.328c-3.124,0-5.116-1.229-6.318-3.677l1.825-1.5a4.829,4.829,0,0,0,4.563,3.071c1.948,0,3.291-.956,3.291-2.624,0-1.571-.772-2.4-3.966-3.387-3.9-1.15-5.186-2.624-5.186-5.353,0-2.747,2.088-4.739,5.432-4.739a5.952,5.952,0,0,1,5.651,3.115l-1.825,1.518a4.3,4.3,0,0,0-3.87-2.527c-1.9,0-2.861,1.079-2.861,2.334,0,1.474.79,2.282,3.844,3.238,4.08,1.255,5.309,2.773,5.309,5.493,0,3.317-2.5,5.037-5.888,5.037" transform="translate(-17.133 -2.12)" fill="#444953"></path>
        <path id="Path_1013" data-name="Path 1013" d="M144.018,20.328c-3.124,0-5.116-1.229-6.318-3.677l1.825-1.5a4.829,4.829,0,0,0,4.563,3.071c1.948,0,3.291-.956,3.291-2.624,0-1.571-.772-2.4-3.966-3.387-3.9-1.15-5.186-2.624-5.186-5.353,0-2.747,2.088-4.739,5.432-4.739A5.93,5.93,0,0,1,149.3,5.235l-1.825,1.518a4.3,4.3,0,0,0-3.87-2.527c-1.9,0-2.861,1.079-2.861,2.334,0,1.474.79,2.282,3.844,3.238,4.08,1.255,5.309,2.773,5.309,5.493.009,3.317-2.492,5.037-5.879,5.037" transform="translate(-19.753 -2.12)" fill="#444953"></path>
      </g>
    </g>
  </g>
</svg>
