<?xml version="1.0" encoding="utf-8"?>
<!-- Generator: Adobe Illustrator 25.4.1, SVG Export Plug-In . SVG Version: 6.00 Build 0)  -->
<svg version="1.1" id="Layer_1" xmlns="http://www.w3.org/2000/svg" xmlns:xlink="http://www.w3.org/1999/xlink" x="0px" y="0px"
	 viewBox="0 0 1462.2 1148.5" style="enable-background:new 0 0 1462.2 1148.5;" xml:space="preserve">
<style type="text/css">
	.st0{fill:#00753E;}
	.st1{fill:#FDDD00;}
	.st2{fill:#E21E25;}
	.st3{fill:#FFFFFF;}
	.st4{fill:none;stroke:#FFFFFF;stroke-width:3.200000e-02;}
</style>
<g id="layer1" transform="translate(-219.96368,-408.11271)">
	<g id="g76365" transform="matrix(7.7983655,0,0,-7.7983655,-695.26035,844.61842)">
		<path id="path14326" class="st0" d="M211.1-90.6L211.1-90.6c3.7,4.4,8.6,7.4,20.1,10.1c9.8,2.3,19.9,4.4,22.2,18.6
			c12.1-4.8,34.9-2.1,45.2,20.3c16.7,36.6-2.5,72.2-26.1,82.2c-8.2,3.4-23.3,8.6-43.1,2c-3.8,2.1-7,2.2-10.6,1.6
			c0.2,4.4-5.6,9.5-7.6,11.2c-2-1.7-7.8-6.8-7.6-11.2c-3.6,0.6-6.8,0.5-10.6-1.6c-19.8,6.6-34.9,1.4-43.1-2
			c-23.6-9.9-42.9-45.6-26.1-82.2c10.2-22.4,33-25.1,45.2-20.3c2.3-14.2,12.3-16.3,22.2-18.6C202.6-83.3,207.5-86.2,211.1-90.6
			L211.1-90.6"/>
		<path id="path14342" class="st1" d="M211.1,29c23.6,16.6,47.3,12.7,57.9,8.3c27.3-11.3,40.7-49.6,25.9-77.7
			c-12.3-23.4-34.5-21.3-43.2-18C249.5-72,240.1-75,229.2-77.1c-11-2.2-14.7-3.4-18.1-7.6c-3.4,4.2-7.1,5.4-18.1,7.6
			C182-75,172.7-72,170.5-58.4c-8.7-3.3-30.9-5.4-43.2,18c-14.8,28.2-1.4,66.5,25.9,77.7C163.8,41.7,187.5,45.6,211.1,29"/>
		<path id="path14346" class="st1" d="M210.1,32.6c-5.3,3.2-8.9,5-14.2,7.1c2.4,0.5,5,0.6,6.8,0.4c2.5-0.2,3-1,3.7-1.6
			C208.4,36.7,210.1,32.6,210.1,32.6"/>
		<path id="path14350" class="st1" d="M212,32.6c5.2,3.2,8.9,5,14.2,7.1c-2.4,0.5-5,0.6-6.8,0.4c-2.5-0.2-3-1-3.7-1.6
			C213.7,36.7,212,32.6,212,32.6"/>
		<path id="path14354" class="st1" d="M211.1,49.5L211.1,49.5c0,0,0.6-0.8,2.2-2.9c2.1-2.7,1.3-4.9,0.1-7c-1.3-2.2-2-3.1-2.4-3.6h0
			c-0.4,0.4-1.1,1.4-2.4,3.6c-1.2,2-2,4.3,0.1,7C210.5,48.7,211.1,49.5,211.1,49.5L211.1,49.5"/>
		<path id="path14358" class="st2" d="M211.1,18.5L211.1,18.5c28.4,21.1,66.3,20,80.1-10.4c7.7-17,5.7-41-9.1-51.5
			c-9.4-6.6-15.9-8.5-31.8-4.9c-0.8-13.1-7-16.4-21.9-18.6c-6.5-1-12.1-1.3-17.4-6.6h0h0h0c-5.3,5.3-10.9,5.6-17.4,6.6
			c-14.9,2.2-21.1,5.5-21.9,18.6c-15.9-3.6-22.4-1.8-31.8,4.9C125.2-32.9,123.2-9,130.9,8.1C144.7,38.5,182.7,39.5,211.1,18.5
			L211.1,18.5"/>
		<path id="path14362" class="st3" d="M145-0.5l-6.3-2.8v-16.2c0-2.2-1.7-4-2.7-5h10.2c4.6,0,9.5,1.2,9.5,9.1v11.2
			c0,6.7-4.2,9.9-10,9.8c-3.6-0.1-7.1-0.5-8.4-0.9l-2.2-6.5c0.3,0.2,6.2,1.8,8.6,1.8c0.5,0,5.6,1,5.6-4.5v-11c0-4-2.9-3.6-4.5-3.6
			L145-0.5"/>
		<path id="path14366" class="st3" d="M164.7-13.2c1.4,1.2,1.8,1.6,2.5,2.4c1.8,1.9-0.4,5.2-1.1,5.9c-0.8,0.8-1.4,0.4-1.4-0.6V-13.2
			L164.7-13.2z M158.6-8.8c0,1.2,0.1,2.3,0.2,3c0.1,1,0.3,1.8,2.4,3c0.7,0.4,3,1.6,5.1,2.6c0.7,0.3,3.1,1.5,5-1.2
			c0.8-1.1,0.9-1.2,1.7-2.8c1.5-2.7-0.1-4.7-1-5.6c-1.8-1.9-4.8-4.6-7.2-6.2c0-2.2,1.8-2.7,2.8-3.1c1.4-0.5,1.9-0.7,4.7-1.4l-3.4-5
			c-5.6,1.7-6.4,2.4-7.6,3.1c-1.5,0.8-2.3,2.1-2.6,4.4C158.7-17.2,158.5-12.4,158.6-8.8"/>
		<path id="path14370" class="st3" d="M182,6l-6.3-2.9v-20.8c0-2.9,0.7-4.4,2.4-5.7c1.5-1.1,3.9-2.2,3.9-2.2l3.3,5
			c-1.7,0.9-3.2,1.5-3.2,4.2C182-14.8,182,6,182,6"/>
		<path id="path14374" class="st3" d="M202.4-24.5h6.5v23.8c0,0,0.7,0.4,1.2,0.7c0.8,0.4,2.1,0.1,2.1-1.4v-17.4
			c0-2.5,0.9-3.5,1.7-4.2c0.3-0.3,1.2-1,1.3-1c0.5-0.4,1.3-1.1,2.4-1.6l4.1,4.7c-1.2,0.7-2.9,1.2-2.9,4c0,0,0,15.5,0,17.3
			c0,1.6,0,1.8-1,2.9c-0.7,0.7-1.5,1.3-2.4,1.8c-1.5,0.9-2.8,0.8-4.6-0.1c-0.9-0.4-2.1-1.1-2.9-1.5c-0.7,0.6-1.5,1.1-2.4,1.6
			c-0.8,0.4-2.1,1-4.3-0.3c-1.3-0.8-2-1.1-3-1.7c-1.8,1.4-3.1,1.9-3.9,2.2L189,1.2c0,0,1-0.5,2-1c1.7-0.8,1.7-0.7,1.7-2.9v-21.8h6.5
			l0,23.7c0.2,0.1,0.9,0.6,1.2,0.8c0.7,0.3,2,0.1,2-1.4L202.4-24.5"/>
		<path id="path14378" class="st3" d="M222.6-12.6v-6.2c0-1.3,0.3-2.5,2.1-3.8c1-0.7,1.3-1,3.3-2c1.9-1,3.1-0.4,4.8,0.5
			c1.2,0.6,2.7,1.6,3.6,2.4c0.9,0.7,1.9,1.5,1.9,3.7v11.9c0,2.1,0,2.9-1.3,3.9c-0.8,0.7-1.7,1.3-2.7,2c-1.4,0.9-2.4,1-4.8-0.1
			c-1.2-0.5-2.5-1.1-4.2-2c-1.9-1-2.7-1.9-2.7-3.6C222.6-6.6,222.6-9.5,222.6-12.6 M228.9-12.6v6.8c0,0.5,0.3,0.8,0.6,1
			c0.8,0.4,1,0.2,1.6-0.4c0.5-0.4,0.7-0.7,0.7-1.4v-12.2c0-0.8-0.4-1.4-1.3-0.8c-0.6,0.5-0.7,0.5-1.1,0.8c-0.4,0.4-0.6,0.5-0.6,1.2
			L228.9-12.6"/>
		<path id="path14382" class="st3" d="M280.1-13c1.4,1.2,1.8,1.6,2.5,2.4c1.8,1.9-0.4,5.2-1.1,5.9c-0.8,0.8-1.4,0.5-1.4-0.5V-13
			L280.1-13z M274-8.6c0,1.2,0.1,2.3,0.2,3c0.1,1,0.3,1.8,2.4,3c0.7,0.4,3,1.6,5.1,2.6c0.7,0.3,3.1,1.5,5-1.2
			c0.8-1.1,0.9-1.2,1.7-2.8c1.5-2.7-0.1-4.7-1-5.6c-1.8-1.9-4.8-4.6-7.2-6.3c0-2.2,1.8-2.7,2.8-3.1c1.4-0.5,1.9-0.7,4.7-1.4
			l-3.4-5.1c-5.6,1.7-6.4,2.4-7.6,3.1c-1.5,0.8-2.3,2.1-2.6,4.4C274.1-17,274-12.2,274-8.6"/>
		<path id="path14386" class="st3" d="M248.3-5.7v-18.8h-6.2v17.1c0,2.1-0.3,2-1.5,2.9l-0.8,0.5l4.9,4c0.9-0.3,2-1.3,2.8-2
			c1.1,0.6,1.5,0.9,3.2,1.7c2.1,1,2.6,0.5,3.5-0.1c0.8-0.6,1.5-1.1,2.1-1.9c0.9-1,1-1.5,1-2.9c0-1.8,0-12.2,0-12.2
			c0-2.4,0.4-2.5,2.5-3.7l-4.1-4.8c-0.9,0.6-1.5,1.1-2.2,1.6c-0.4,0.3-0.6,0.4-1.4,1.2c-1.1,1.1-1.1,2.4-1.1,4.1v13
			c0,1.1-1.1,1.3-1.8,0.8C248.7-5.4,248.3-5.7,248.3-5.7"/>
		<path id="path14390" class="st3" d="M268.5-5.2v-11.5c0-2.3,1.3-2.8,3.9-4l-3.3-5l-3.3,1.7c-2.1,1.3-3.6,2.6-3.6,5.2v13.6h-3.4
			v4.6h3.4v3l6.3,3v-6h3.7v-4.6H268.5"/>
		<path id="path14394" class="st3" d="M197.6-40.9l-0.2,0.4c0.6,0.4,1.4,0.9,2.4,1.5c0.4,0.2,0.7,0.3,0.9,0.3l0.3-0.1l0.1-0.4
			c0-0.2-0.1-0.4-0.2-0.9c-0.9-3.7-1.4-5.8-1.4-6.5l0.1-0.3l0.2-0.1l0.5,0.2c0.5,0.3,1.1,0.7,1.7,1.3c0.6,0.6,1.2,1.3,1.7,2.1
			c0.3,0.4,0.6,1,0.8,1.7c0.2,0.7,0.5,1.6,0.7,2.7c0.1,0,0.5,0.1,1.1,0.3l0.1-0.1l-0.3-1.8c-0.2-0.9-0.4-1.9-0.6-3
			c-0.2-1.1-0.4-1.8-0.5-2.3l-0.1-0.6l0.1-0.3l0.2-0.1l0.4,0.2c0.2,0.1,0.5,0.4,1.2,0.9l0.2-0.4c-1.1-0.9-1.9-1.4-2.3-1.7
			c-0.3-0.2-0.6-0.3-0.8-0.3l-0.3,0.2l-0.2,0.5l0,0.5c0.1,0.3,0.2,0.9,0.4,1.8l0.4,1.7l-0.1,0c-0.7-0.9-1.1-1.5-1.3-1.7
			c-0.5-0.6-1.1-1.2-1.8-1.7c-0.7-0.5-1.3-0.9-1.9-1.2l-0.5-0.1l-0.5,0.3c-0.1,0.2-0.2,0.4-0.2,0.8c0,0.5,0.1,1.3,0.4,2.3
			c0.4,1.5,0.6,2.7,0.8,3.5c0.1,0.6,0.2,0.9,0.2,1.1l-0.1,0.3l-0.2,0.1C198.9-40.1,198.4-40.4,197.6-40.9"/>
		<path id="path14398" class="st4" d="M197.6-40.9l-0.2,0.4c0.6,0.4,1.4,0.9,2.4,1.5c0.4,0.2,0.7,0.3,0.9,0.3l0.3-0.1l0.1-0.4
			c0-0.2-0.1-0.4-0.2-0.9c-0.9-3.7-1.4-5.8-1.4-6.5l0.1-0.3l0.2-0.1l0.5,0.2c0.5,0.3,1.1,0.7,1.7,1.3c0.6,0.6,1.2,1.3,1.7,2.1
			c0.3,0.4,0.6,1,0.8,1.7c0.2,0.7,0.5,1.6,0.7,2.7c0.1,0,0.5,0.1,1.1,0.3l0.1-0.1l-0.3-1.8c-0.2-0.9-0.4-1.9-0.6-3
			c-0.2-1.1-0.4-1.8-0.5-2.3l-0.1-0.6l0.1-0.3l0.2-0.1l0.4,0.2c0.2,0.1,0.5,0.4,1.2,0.9l0.2-0.4c-1.1-0.9-1.9-1.4-2.3-1.7
			c-0.3-0.2-0.6-0.3-0.8-0.3l-0.3,0.2l-0.2,0.5l0,0.5c0.1,0.3,0.2,0.9,0.4,1.8l0.4,1.7l-0.1,0c-0.7-0.9-1.1-1.5-1.3-1.7
			c-0.5-0.6-1.1-1.2-1.8-1.7c-0.7-0.5-1.3-0.9-1.9-1.2l-0.5-0.1l-0.5,0.3c-0.1,0.2-0.2,0.4-0.2,0.8c0,0.5,0.1,1.3,0.4,2.3
			c0.4,1.5,0.6,2.7,0.8,3.5c0.1,0.6,0.2,0.9,0.2,1.1l-0.1,0.3l-0.2,0.1C198.9-40.1,198.4-40.4,197.6-40.9L197.6-40.9z"/>
		<path id="path14402" class="st3" d="M214.2-40.1l-0.8,0.3c-0.3,0.1-0.6,0.1-0.9,0.1c-0.6,0-1-0.1-1.3-0.3
			c-0.1-0.1-0.3-0.3-0.5-0.6c-0.3-0.7-0.6-1.5-0.9-2.3c-0.4-1.3-0.6-2.4-0.6-3.4l0-0.4l0.1-0.2l0.2-0.1l0.6,0.3
			c0.5,0.3,1.1,0.8,1.6,1.5c0.6,0.7,1,1.4,1.4,2.2C213.6-42.3,213.9-41.3,214.2-40.1 M215.6-46.1l0.1-0.4l-1.4-1.1
			c-0.4-0.3-0.8-0.6-1-0.7l-0.2-0.1l-0.3,0.2l-0.2,0.5c0,0.7,0.2,1.8,0.6,3.4l-0.1,0c-0.5-0.7-0.9-1.2-1.2-1.5
			c-0.5-0.6-1.1-1.1-1.6-1.6c-0.5-0.4-1-0.8-1.5-0.9l-0.4-0.1l-0.4,0.3c-0.2,0.3-0.3,0.8-0.3,1.4c0,0.8,0.2,1.8,0.5,2.9
			c0.3,1.1,0.7,2.1,1.1,2.9c0.2,0.4,0.5,0.8,0.9,1c0.6,0.5,1.2,0.8,1.7,1c0.4,0.1,0.7,0.2,1.2,0.2c0.3,0,0.6,0,0.8-0.1
			c0.3,0,0.6-0.1,1-0.3l0.6,0.4l0.2-0.2c-0.4-1.4-0.8-2.8-1.1-4.1c-0.3-0.8-0.4-1.3-0.5-1.7c-0.2-0.6-0.3-1.2-0.4-1.7l0-0.3L214-47
			l0.2-0.1l0.4,0.1C214.7-46.8,215.1-46.5,215.6-46.1"/>
		<path id="path14406" class="st4" d="M214.2-40.1l-0.8,0.3c-0.3,0.1-0.6,0.1-0.9,0.1c-0.6,0-1-0.1-1.3-0.3
			c-0.1-0.1-0.3-0.3-0.5-0.6c-0.3-0.7-0.6-1.5-0.9-2.3c-0.4-1.3-0.6-2.4-0.6-3.4l0-0.4l0.1-0.2l0.2-0.1l0.6,0.3
			c0.5,0.3,1.1,0.8,1.6,1.5c0.6,0.7,1,1.4,1.4,2.2C213.6-42.3,213.9-41.3,214.2-40.1L214.2-40.1z"/>
		<path id="path14410" class="st4" d="M215.6-46.1l0.1-0.4l-1.4-1.1c-0.4-0.3-0.8-0.6-1-0.7l-0.2-0.1l-0.3,0.2l-0.2,0.5
			c0,0.7,0.2,1.8,0.6,3.4l-0.1,0c-0.5-0.7-0.9-1.2-1.2-1.5c-0.5-0.6-1.1-1.1-1.6-1.6c-0.5-0.4-1-0.8-1.5-0.9l-0.4-0.1l-0.4,0.3
			c-0.2,0.3-0.3,0.8-0.3,1.4c0,0.8,0.2,1.8,0.5,2.9c0.3,1.1,0.7,2.1,1.1,2.9c0.2,0.4,0.5,0.8,0.9,1c0.6,0.5,1.2,0.8,1.7,1
			c0.4,0.1,0.7,0.2,1.2,0.2c0.3,0,0.6,0,0.8-0.1c0.3,0,0.6-0.1,1-0.3l0.6,0.4l0.2-0.2c-0.4-1.4-0.8-2.8-1.1-4.1
			c-0.2-0.8-0.4-1.3-0.5-1.7c-0.2-0.6-0.3-1.2-0.4-1.7l0-0.3L214-47l0.2-0.1l0.4,0.1C214.7-46.8,215.1-46.5,215.6-46.1L215.6-46.1z"
			/>
		<path id="path14414" class="st3" d="M220.8-46.1l0.2-0.4c-0.2-0.2-0.6-0.4-1.2-0.9c-0.6-0.4-1.1-0.8-1.5-0.9l-0.5-0.1l-0.4,0.2
			c-0.1,0.1-0.2,0.3-0.2,0.6l0.1,0.7c0.1,0.4,0.4,1.8,0.9,4.2c0.4,1.8,0.7,2.9,0.8,3.4c0.3,1.3,0.5,2.4,0.6,3.2l0,0.5l-0.1,0.4
			l-0.5,0.1H218l0,0.4c0.6,0.1,1.1,0.2,1.6,0.3c0.5,0.1,0.9,0.3,1.5,0.5l0.3-0.2c-0.1-0.6-0.6-2.8-1.4-6.7c-0.7-3.1-1-5-1.1-5.7
			l0-0.3l0.1-0.3l0.2-0.1l0.2,0.1c0.1,0.1,0.4,0.2,0.8,0.4"/>
		<path id="path14418" class="st4" d="M220.8-46.1l0.2-0.4c-0.2-0.2-0.6-0.4-1.2-0.9c-0.6-0.4-1.1-0.8-1.5-0.9l-0.5-0.1l-0.4,0.2
			c-0.1,0.1-0.2,0.3-0.2,0.6l0.1,0.7c0.1,0.4,0.4,1.8,0.9,4.2c0.4,1.8,0.7,2.9,0.8,3.4c0.3,1.3,0.5,2.4,0.6,3.2l0,0.5l-0.1,0.4
			l-0.5,0.1H218l0,0.4c0.6,0.1,1.1,0.2,1.6,0.3c0.5,0.1,0.9,0.3,1.5,0.5l0.3-0.2c-0.1-0.6-0.6-2.8-1.4-6.7c-0.7-3.1-1-5-1.1-5.7
			l0-0.3l0.1-0.3l0.2-0.1l0.2,0.1c0.1,0.1,0.4,0.2,0.8,0.4L220.8-46.1L220.8-46.1z"/>
		<path id="path14422" class="st3" d="M224.9-35.5c0,0.4,0.1,0.7,0.3,0.9c0.2,0.3,0.5,0.4,0.8,0.4l0.5-0.2l0.2-0.6
			c0-0.3-0.1-0.7-0.3-0.9c-0.2-0.3-0.5-0.4-0.8-0.4l-0.6,0.3L224.9-35.5 M222.4-41l-0.2,0.4c1.1,0.8,1.9,1.3,2.3,1.4
			c0.4,0.2,0.7,0.3,0.9,0.3l0.3-0.1l0.1-0.5l-0.1-0.5c-0.1-0.4-0.3-1.1-0.5-2.1c-0.7-2.6-1.1-4.2-1.1-4.6l0.1-0.3l0.2-0.1l0.5,0.2
			c0.2,0.1,0.6,0.3,1.1,0.8l0.2-0.4c-1.1-0.8-1.8-1.3-2.4-1.6l-0.6-0.2l-0.4,0.2l-0.2,0.6l0.1,0.7c0,0.3,0.2,0.7,0.3,1.4
			c0.8,2.7,1.1,4.4,1.1,5l-0.1,0.3l-0.2,0.1l-0.3-0.1C223.7-40.2,223.2-40.5,222.4-41"/>
		<path id="path14426" class="st4" d="M224.9-35.5c0,0.4,0.1,0.7,0.3,0.9c0.2,0.3,0.5,0.4,0.8,0.4l0.5-0.2l0.2-0.6
			c0-0.3-0.1-0.7-0.3-0.9c-0.2-0.3-0.5-0.4-0.8-0.4l-0.6,0.3L224.9-35.5L224.9-35.5z"/>
		<path id="path14430" class="st4" d="M222.4-41l-0.2,0.4c1.1,0.8,1.9,1.3,2.3,1.4c0.4,0.2,0.7,0.3,0.9,0.3l0.3-0.1l0.1-0.5
			l-0.1-0.5c-0.1-0.4-0.3-1.1-0.5-2.1c-0.7-2.6-1.1-4.2-1.1-4.6l0.1-0.3l0.2-0.1l0.5,0.2c0.2,0.1,0.6,0.3,1.1,0.8l0.2-0.4
			c-1.1-0.8-1.8-1.3-2.4-1.6l-0.6-0.2l-0.4,0.2l-0.2,0.6l0.1,0.7c0,0.3,0.2,0.7,0.3,1.4c0.8,2.7,1.1,4.4,1.1,5l-0.1,0.3l-0.2,0.1
			l-0.3-0.1C223.7-40.2,223.2-40.5,222.4-41L222.4-41z"/>
		<path id="path14434" class="st3" d="M232.3-45.8l0.2-0.4c-0.6-0.5-1.2-0.9-1.8-1.3c-0.6-0.4-1-0.7-1.3-0.8l-0.4-0.1l-0.4,0.3
			c-0.1,0.2-0.2,0.4-0.2,0.8l0,0.5c0,0.2,0.1,0.5,0.1,0.8l0.4,2c0.2,0.7,0.4,1.9,0.7,3.6l-1.6,0l0.1,0.3c0.5,0.2,0.9,0.3,1.1,0.4
			l0.7,0.3c0.1,0.5,0.2,0.9,0.2,1.1c0,0.3,0.2,1,0.3,2.2l0.8,0.4l0.7,0.3l0.2-0.2c-0.3-1-0.4-1.6-0.4-1.7c-0.1-0.3-0.2-1-0.5-2.3
			c0.3,0,0.5,0,0.7,0c0.6,0,1.1,0.1,1.4,0.2l0.1-0.1l-0.2-1c-0.3,0-1,0-2.1,0.1c-0.1-0.5-0.3-1.4-0.6-2.7c-0.3-1.3-0.4-2.2-0.5-2.8
			l-0.1-0.5l0.1-0.3l0.3-0.1l0.3,0.1c0.2,0.1,0.4,0.2,0.7,0.4"/>
		<path id="path14438" class="st4" d="M232.3-45.8l0.2-0.4c-0.6-0.5-1.2-0.9-1.8-1.3c-0.6-0.4-1-0.7-1.3-0.8l-0.4-0.1l-0.4,0.3
			c-0.1,0.2-0.2,0.4-0.2,0.8l0,0.5c0,0.2,0.1,0.5,0.1,0.8l0.4,2c0.2,0.7,0.4,1.9,0.7,3.6l-1.6,0l0.1,0.3c0.5,0.2,0.9,0.3,1.1,0.4
			l0.7,0.3c0.1,0.5,0.2,0.9,0.2,1.1c0,0.3,0.2,1,0.3,2.2l0.8,0.4l0.7,0.3l0.2-0.2c-0.3-1-0.4-1.6-0.4-1.7c-0.1-0.3-0.2-1-0.5-2.3
			c0.3,0,0.5,0,0.7,0c0.6,0,1.1,0.1,1.4,0.2l0.1-0.1l-0.2-1c-0.3,0-1,0-2.1,0.1c-0.1-0.5-0.3-1.4-0.6-2.7c-0.3-1.3-0.4-2.2-0.5-2.8
			l-0.1-0.5l0.1-0.3l0.3-0.1l0.3,0.1c0.2,0.1,0.4,0.2,0.7,0.4L232.3-45.8L232.3-45.8z"/>
		<path id="path14442" class="st3" d="M233.2-51.7l1,0.6l0.2-0.1l0-0.3c0-0.4,0.1-0.8,0.4-1c0.3-0.3,0.6-0.4,0.9-0.4l0.7,0.2
			l0.7,0.6c0.3,0.3,0.6,0.8,0.9,1.6c0.3,0.7,0.7,1.8,1.1,3.2l0.7,2.7c-0.5-0.7-1-1.3-1.4-1.9c-0.9-0.9-1.4-1.5-1.7-1.7l-0.7-0.3
			l-0.5,0.3c-0.2,0.3-0.3,0.8-0.3,1.4c0,0.3,0,0.8,0.1,1.5c0.2,1.4,0.2,2.7,0.2,3.8c0,0.4,0,0.7-0.1,0.9l-0.1,0.3l-0.2,0.1
			c-0.2,0-0.6-0.3-1.2-0.7l-0.2-0.2l-0.3,0.4c0.7,0.6,1.4,1.2,2.1,1.5c0.4,0.3,0.6,0.3,0.9,0.3l0.4-0.3c0.1-0.2,0.2-0.5,0.2-1
			c0-0.4-0.1-1.3-0.2-2.7c-0.1-1.6-0.2-2.8-0.2-3.4c0-0.3,0-0.6,0.1-0.7l0.3-0.1l0.3,0.1c0.3,0.1,0.5,0.4,0.9,0.7
			c0.3,0.4,0.7,0.8,1,1.2c0.5,0.8,0.9,1.6,1.3,2.6c0.2,0.6,0.5,1.7,0.9,3.2c0.4,0.1,0.9,0.2,1.5,0.4l0.2-0.2
			c-0.2-0.4-0.4-0.8-0.5-1.3c-0.3-0.9-0.7-2.2-1.3-4.1c-0.4-1.5-0.7-2.5-1-3.1c-0.4-1.2-0.8-2.2-1.2-2.9c-0.4-0.8-0.9-1.4-1.6-2
			c-0.5-0.4-0.9-0.8-1.4-0.9c-0.5-0.2-0.9-0.3-1.3-0.3c-0.3,0-0.6,0.1-0.8,0.2l-0.6,0.6c-0.1,0.3-0.2,0.5-0.2,0.8L233.2-51.7"/>
		<path id="path14446" class="st4" d="M233.2-51.7l1,0.6l0.2-0.1l0-0.3c0-0.4,0.1-0.8,0.4-1c0.3-0.3,0.6-0.4,0.9-0.4l0.7,0.2
			l0.7,0.6c0.3,0.3,0.6,0.8,0.9,1.6c0.3,0.7,0.7,1.8,1.1,3.2l0.7,2.7c-0.5-0.7-1-1.3-1.4-1.9c-0.9-0.9-1.4-1.5-1.7-1.7l-0.7-0.3
			l-0.5,0.3c-0.2,0.3-0.3,0.8-0.3,1.4c0,0.3,0,0.8,0.1,1.5c0.2,1.4,0.2,2.7,0.2,3.8c0,0.4,0,0.7-0.1,0.9l-0.1,0.3l-0.2,0.1
			c-0.2,0-0.6-0.3-1.2-0.7l-0.2-0.2l-0.3,0.4c0.7,0.6,1.4,1.2,2.1,1.5c0.4,0.3,0.6,0.3,0.9,0.3l0.4-0.3c0.1-0.2,0.2-0.5,0.2-1
			c0-0.4-0.1-1.3-0.2-2.7c-0.1-1.6-0.2-2.8-0.2-3.4c0-0.3,0-0.6,0.1-0.7l0.3-0.1l0.3,0.1c0.3,0.1,0.5,0.4,0.9,0.7
			c0.3,0.4,0.7,0.8,1,1.2c0.5,0.8,0.9,1.6,1.3,2.6c0.2,0.6,0.5,1.7,0.9,3.2c0.4,0.1,0.9,0.2,1.5,0.4l0.2-0.2
			c-0.2-0.4-0.4-0.8-0.5-1.3c-0.3-0.9-0.7-2.2-1.3-4.1c-0.4-1.5-0.7-2.5-1-3.1c-0.4-1.2-0.8-2.2-1.2-2.9c-0.4-0.8-0.9-1.4-1.6-2
			c-0.5-0.4-0.9-0.8-1.4-0.9c-0.5-0.2-0.9-0.3-1.3-0.3c-0.3,0-0.6,0.1-0.8,0.2l-0.6,0.6c-0.1,0.3-0.2,0.5-0.2,0.8L233.2-51.7
			L233.2-51.7z"/>
		<path id="path14450" class="st3" d="M179.3-40.4c-0.3-3.1,0.6-6.3,4-7.6c4.2-1.6,9.9,0.3,12.1,4.8c3.1,6.2,1.5,10.9-2.6,12.3
			c-4.7,1.7-9.9-0.3-12.2-5C180-37.2,179.5-38.8,179.3-40.4 M181.5-40.4c0.1,0.9,0.3,1.8,0.5,2.6c1.2,4.6,3.9,7.2,8.6,6.3
			c3.6-0.7,4.9-4.1,3.6-9.5c-1.2-5.1-4.9-7.1-8.5-6.4C182.3-46.7,181.2-44,181.5-40.4"/>
		<path id="path14454" class="st4" d="M179.3-40.4c-0.3-3.1,0.6-6.3,4-7.6c4.2-1.6,9.9,0.3,12.1,4.8c3.1,6.2,1.5,10.9-2.6,12.3
			c-4.7,1.7-9.9-0.3-12.2-5C180-37.2,179.5-38.8,179.3-40.4"/>
		<path id="path14458" class="st4" d="M181.5-40.4c0.1,0.9,0.3,1.8,0.5,2.6c1.2,4.6,3.9,7.2,8.6,6.3c3.6-0.7,4.9-4.1,3.6-9.5
			c-1.2-5.1-4.9-7.1-8.5-6.4C182.3-46.7,181.2-44,181.5-40.4"/>
		<path id="path14462" class="st3" d="M184.3-51.6c0.8,1.8,2.2,2.6,4.3,1.9c1.6-0.5,6.6-2.3,7.4-2.6c2.6-0.9,6.1-1.5,7.1,0.3
			c0.5,0.9,0.8,1.6,0.8,1.6c0.3,0.4,0,1.3,0.1,1.1c-0.3,0.4-0.5,0.2-0.6,0c0.1-1.5-0.5-2.4-3.6-2.3c-1.4,0-2.7,0.3-4.5,1.1
			c-1.3,0.5-2.2,0.7-2.5,0.8c-1.5,0.5-3.7,1.1-4.9,1.3c-2.6,0.3-3.5-1.9-4-2.7C183.7-51.4,184.2-51.8,184.3-51.6"/>
		<path id="path14466" class="st4" d="M184.3-51.6c0.8,1.8,2.2,2.6,4.3,1.9c1.6-0.5,6.6-2.3,7.4-2.6c2.6-0.9,6.1-1.5,7.1,0.3
			c0.5,0.9,0.8,1.6,0.8,1.6c0.3,0.4,0,1.3,0.1,1.1c-0.3,0.4-0.5,0.2-0.6,0c0.1-1.5-0.5-2.4-3.6-2.3c-1.4,0-2.7,0.3-4.5,1.1
			c-1.3,0.5-2.2,0.7-2.5,0.8c-1.5,0.5-3.7,1.1-4.9,1.3c-2.6,0.3-3.5-1.9-4-2.7C183.7-51.4,184.2-51.8,184.3-51.6L184.3-51.6z"/>
	</g>
</g>
</svg>
