<!--?xml version="1.0" standalone="no"?-->
              <svg id="sw-js-blob-svg" viewBox="0 0 100 100" xmlns="http://www.w3.org/2000/svg" version="1.1">
                    <defs> 
                        <linearGradient id="sw-gradient" x1="0" x2="1" y1="1" y2="0">
                            <stop id="stop1" stop-color="rgba(234, 61, 2, 1)" offset="0%"></stop>
                            <stop id="stop2" stop-color="rgba(255, 231, 81, 1)" offset="100%"></stop>
                        </linearGradient>
                    </defs>
                <path fill="none" d="M19.1,-33.6C23.5,-30.5,25,-22.9,27,-16.6C28.9,-10.2,31.2,-5.1,32.5,0.7C33.8,6.6,34.1,13.2,31.7,18.7C29.3,24.3,24.2,28.7,18.5,30C12.8,31.4,6.4,29.6,0.3,29.1C-5.9,28.7,-11.7,29.6,-15.9,27.4C-20.1,25.2,-22.6,19.8,-24.7,14.7C-26.9,9.6,-28.7,4.8,-28.2,0.3C-27.7,-4.2,-24.8,-8.4,-22.3,-13C-19.8,-17.5,-17.8,-22.4,-14.1,-26C-10.5,-29.6,-5.2,-32,1,-33.8C7.3,-35.6,14.6,-36.8,19.1,-33.6Z" width="100%" height="100%" transform="translate(50 50)" stroke-width="1" style="transition: all 0.3s ease 0s;" stroke="url(#sw-gradient)"></path>
              </svg>