<!--?xml version="1.0" standalone="no"?-->
              <svg id="sw-js-blob-svg" viewBox="0 0 100 100" xmlns="http://www.w3.org/2000/svg" version="1.1">
                    <defs> 
                        <linearGradient id="sw-gradient" x1="0" x2="1" y1="1" y2="0">
                            <stop id="stop1" stop-color="rgba(112.52, 34.39, 124.156, 1)" offset="0%"></stop>
                            <stop id="stop2" stop-color="rgba(184, 1, 5, 1)" offset="100%"></stop>
                        </linearGradient>
                    </defs>
                <path fill="url(#sw-gradient)" d="M17.1,-26.7C22.9,-26.3,28.7,-23.1,33.6,-18.2C38.4,-13.3,42.2,-6.7,41.4,-0.4C40.6,5.8,35.3,11.5,31.1,17.6C27,23.8,24.1,30.3,19.1,33C14.2,35.7,7.1,34.7,-0.1,34.9C-7.3,35.1,-14.7,36.6,-17.9,32.8C-21.1,29.1,-20.1,20.1,-20.1,13.7C-20.2,7.4,-21.2,3.7,-21.5,-0.2C-21.9,-4.1,-21.6,-8.2,-20,-11.8C-18.3,-15.4,-15.4,-18.4,-11.8,-20.1C-8.3,-21.8,-4.1,-22.2,0.8,-23.5C5.7,-24.8,11.3,-27.2,17.1,-26.7Z" width="100%" height="100%" transform="translate(50 50)" stroke-width="0" style="transition: all 0.3s ease 0s;" stroke="url(#sw-gradient)"></path>
              </svg>